<?xml version="1.0" encoding="UTF-8" standalone="no"?>
<svg
   id="svg2"
   version="1.1"
   inkscape:version="1.1 (c68e22c387, 2021-05-23)"
   width="273.06668"
   height="273.06668"
   sodipodi:docname="ampersand_circ.svg"
   inkscape:export-filename="/media/berthawork/webcontent/gmic/gradients/blurface-00.png"
   inkscape:export-xdpi="180"
   inkscape:export-ydpi="180"
   xmlns:inkscape="http://www.inkscape.org/namespaces/inkscape"
   xmlns:sodipodi="http://sodipodi.sourceforge.net/DTD/sodipodi-0.dtd"
   xmlns="http://www.w3.org/2000/svg"
   xmlns:svg="http://www.w3.org/2000/svg"
   xmlns:rdf="http://www.w3.org/1999/02/22-rdf-syntax-ns#"
   xmlns:cc="http://creativecommons.org/ns#"
   xmlns:dc="http://purl.org/dc/elements/1.1/">
  <metadata
     id="metadata8">
    <rdf:RDF>
      <cc:Work
         rdf:about="">
        <dc:format>image/svg+xml</dc:format>
        <dc:type
           rdf:resource="http://purl.org/dc/dcmitype/StillImage" />
      </cc:Work>
    </rdf:RDF>
  </metadata>
  <defs
     id="defs6" />
  <sodipodi:namedview
     pagecolor="#ffffff"
     bordercolor="#666666"
     borderopacity="1"
     objecttolerance="10"
     gridtolerance="10"
     guidetolerance="10"
     inkscape:pageopacity="0"
     inkscape:pageshadow="2"
     inkscape:window-width="1680"
     inkscape:window-height="978"
     id="namedview4"
     showgrid="false"
     inkscape:zoom="5.8479393"
     inkscape:cx="58.653139"
     inkscape:cy="57.285136"
     inkscape:window-x="0"
     inkscape:window-y="28"
     inkscape:window-maximized="1"
     inkscape:current-layer="svg2"
     inkscape:document-rotation="0"
     inkscape:pagecheckerboard="0" />
  <path
     inkscape:connector-curvature="0"
     id="goudyampersand-01"
     style="font-style:normal;font-variant:normal;font-weight:normal;font-stretch:normal;font-size:40px;line-height:125%;font-family:'Goudy Bookletter 1911';-inkscape-font-specification:'Goudy Bookletter 1911';letter-spacing:0px;word-spacing:0px;fill:none;fill-opacity:1;stroke:#000000;stroke-width:0.25;stroke-miterlimit:4;stroke-dasharray:none;stroke-opacity:1"
     d="M 20.879181,104.41624 C 18.317518,101.27236 15.771659,96.827207 13.362518,91.091109 C 10.987638,85.436583 9.9458534,79.132836 9.9458534,72.299259 C 9.9458534,56.582637 16.096774,42.689037 28.395843,30.615512 C 40.924515,18.316595 55.273549,12.165328 71.445819,12.165328 C 76.456844,12.165328 81.58189,12.734761 86.820817,13.873676 C 92.059657,15.012572 96.916929,17.344458 101.51246,20.707075 C 106.25644,24.178309 108.68747,28.451828 108.68747,33.690538 C 108.68747,38.246362 107.09286,42.004678 103.90414,44.965655 C 100.71509,47.926947 97.070698,49.40736 92.970813,49.40736 C 88.187386,49.40736 83.057004,46.66779 77.937487,40.865614 C 72.804817,35.04853 67.801305,31.982193 62.562491,31.982193 C 54.134654,31.982193 45.877726,35.915407 37.620843,43.598974 C 29.477291,51.177079 25.320849,60.68267 25.320849,72.299259 C 25.320849,79.132836 26.77848,85.808698 30.10418,92.116124 C 33.385586,98.339537 36.481905,101.3412 38.987509,101.3412 C 39.443035,101.3412 41.531354,100.75618 45.137506,99.291184 C 48.822852,97.794014 53.565176,96.102293 59.487497,94.507811 C 65.409609,92.913378 71.445741,92.116124 77.595816,92.116124 C 86.251277,92.116124 93.34354,94.071126 99.120804,97.582839 C 104.96326,101.13417 108.00414,105.66917 108.00414,111.59131 C 108.00414,117.51373 104.92899,122.29706 98.779134,125.94146 C 92.629009,129.58604 84.998502,131.40832 77.424915,131.40832 C 69.85133,131.40832 64.544994,130.8077 59.145853,129.35816 C 53.746713,127.90862 46.135731,125.13812 40.384824,121.27136 C 44.573878,116.11664 50.448103,110.68134 54.70421,108.17462 C 60.896304,104.52766 71.869461,102.64534 80.670864,103.39125 C 90.728205,104.2436 95.704187,106.58017 95.704187,112.27467 C 95.704187,117.96917 90.80687,120.47475 81.012524,120.47475 C 68.2569,120.47475 58.606963,118.31148 52.312541,113.64136 C 51.536514,113.06559 50.020749,111.55281 50.020749,111.55281 C 44.949842,115.76646 40.084848,121.008 36.419496,126.73789 C 29.552394,137.47293 28.054234,150.65579 28.054234,163.86694 C 28.054234,172.06709 29.497191,180.16732 32.495893,188.1255 C 35.419475,195.88432 39.887856,203.71526 46.162553,211.35906 C 52.41726,218.97851 61.460445,225.61748 73.495871,230.15092 C 88.649431,235.85889 104.73584,238.81447 121.67085,238.69267 C 135.10923,238.59603 146.84014,236.7566 156.8625,232.88429 C 166.88455,229.0121 174.51519,223.88709 179.75415,217.50914 C 184.99293,211.1314 188.65035,204.60397 191.02913,198.03394 C 193.43424,191.39122 194.78748,184.82276 194.78748,178.21707 C 194.78748,166.14482 191.48465,156.12238 184.87914,148.15013 C 178.27357,140.17779 169.50397,136.19164 158.57084,136.19164 C 148.54847,136.19164 139.61468,139.5517 131.92085,146.44176 C 124.35315,153.21886 120.64585,161.01977 120.64585,169.67532 C 120.64585,175.59769 122.34652,180.82797 126.1125,185.05048 C 129.86621,189.25922 134.8818,191.20053 140.80417,191.20053 C 143.30957,191.20053 146.0429,190.63112 149.00417,189.49219 C 151.96512,188.35335 153.44583,186.98668 153.44583,185.39215 C 153.44583,184.4811 152.99018,183.79766 152.07916,183.34212 C 151.16794,182.88647 150.02552,182.56492 148.66251,182.31712 C 147.51965,182.10935 146.15686,181.51981 144.5625,180.60875 C 142.96798,179.69759 141.59246,178.45117 140.46251,176.85039 C 138.8591,174.57887 138.07084,172.06709 138.07084,169.33365 C 138.07084,165.91703 139.26844,162.89964 141.82916,160.45023 C 144.50856,157.88732 147.86514,156.69186 151.7375,156.69186 C 156.97623,156.69186 161.59327,158.68433 165.74583,162.50025 C 170.02178,166.42955 172.23749,171.15598 172.23749,176.85039 C 172.23749,183.91165 169.33324,190.23802 163.35416,195.64224 C 157.48813,200.94427 150.25678,203.50066 141.82916,203.50066 C 132.49016,203.50066 124.51803,200.08392 117.91251,193.25055 C 111.30695,186.41712 108.00419,178.10326 108.00419,168.30864 C 108.00419,159.19755 110.94476,150.52711 116.88752,142.34173 C 123.017,133.89915 131.32875,127.03531 141.82916,121.8415 C 152.51225,116.55735 167.79277,112.37091 187.61248,109.19972 C 207.65383,105.99307 221.18196,102.76042 228.27079,99.632955 C 236.67132,95.926801 243.74637,90.625264 249.45411,83.574455 C 255.36305,76.275114 258.33744,67.743933 258.33744,57.949204 C 258.33744,47.243747 254.86123,38.417222 248.08745,31.298939 C 241.42188,24.294379 233.85111,20.707164 225.19578,20.707164 C 218.13446,20.707164 213.39853,22.124463 214.60414,23.782198 L 217.33746,27.540564 C 219.24159,30.158766 220.41246,32.893621 220.41246,36.082321 C 220.41246,40.18258 219.04556,43.599271 216.31246,46.332422 C 213.57891,49.065984 210.16226,50.432463 206.06247,50.432463 C 201.50671,50.432463 197.69244,48.889257 194.78748,45.649082 C 191.76936,42.282676 190.34581,38.13256 190.34581,33.348959 C 190.34581,26.06023 193.42057,19.910126 199.5708,14.898776 C 205.72055,9.8878174 212.89558,7.3820355 221.09579,7.3820355 C 234.30665,7.3820355 246.09127,13.019352 256.6291,24.123864 C 267.27486,35.342096 272.68744,49.179876 272.68744,65.807612 C 272.68744,84.485753 265.40279,100.54911 250.82077,113.98309 C 236.47505,127.19937 219.38867,134.09472 199.5708,134.48332 C 196.15459,134.55031 194.4458,135.39455 194.4458,137.21669 C 194.4458,137.44452 195.27303,139.20222 197.17914,142.34173 C 199.14656,145.58222 201.27914,150.20017 203.32913,156.3502 C 205.37914,162.50027 206.40392,169.10596 206.40392,184.82279 C 206.40392,200.53962 196.15401,221.26766 175.65415,239.03439 C 155.15406,256.80132 130.66792,265.68465 102.19587,265.68465 C 73.495792,265.68465 49.294644,256.51962 29.762562,238.00937 C 10.116747,219.39134 0.37923697,197.23681 0.37924545,171.72538 C 0.37923697,164.89207 0.95425615,158.2623 2.4292439,151.90853 C 3.9158285,145.5048 5.9597487,140.06407 8.2375785,135.50837 C 10.515299,130.95286 12.600536,127.02865 14.729237,123.89157 C 16.9296,120.6489 19.409813,118.29717 21.220904,116.03316 L 23.954184,112.61633 C 24.590421,111.82099 24.637513,110.90812 24.637517,110.13927 C 24.637522,109.19975 23.329443,107.42342 20.879181,104.41624 Z"
     inkscape:label="Goudy Ampersand"
     sodipodi:nodetypes="sssssssssssssssssssssssscssssscsssssssssssssssssssssssssssssssssssssssssssssssssssssssssssssssssss" />
</svg>
