<?xml version="1.0" encoding="UTF-8" standalone="no"?>
<svg
   id="svg2"
   version="1.1"
   inkscape:version="1.1 (c68e22c387, 2021-05-23)"
   width="273.06668"
   height="273.06668"
   sodipodi:docname="ampersand_circ.svg"
   inkscape:export-filename="/media/berthawork/webcontent/gmic/gradients/blurface-00.png"
   inkscape:export-xdpi="180"
   inkscape:export-ydpi="180"
   xmlns:inkscape="http://www.inkscape.org/namespaces/inkscape"
   xmlns:sodipodi="http://sodipodi.sourceforge.net/DTD/sodipodi-0.dtd"
   xmlns="http://www.w3.org/2000/svg"
   xmlns:svg="http://www.w3.org/2000/svg"
   xmlns:rdf="http://www.w3.org/1999/02/22-rdf-syntax-ns#"
   xmlns:cc="http://creativecommons.org/ns#"
   xmlns:dc="http://purl.org/dc/elements/1.1/">
  <metadata
     id="metadata8">
    <rdf:RDF>
      <cc:Work
         rdf:about="">
        <dc:format>image/svg+xml</dc:format>
        <dc:type
           rdf:resource="http://purl.org/dc/dcmitype/StillImage" />
      </cc:Work>
    </rdf:RDF>
  </metadata>
  <defs
     id="defs6" />
  <sodipodi:namedview
     pagecolor="#ffffff"
     bordercolor="#666666"
     borderopacity="1"
     objecttolerance="10"
     gridtolerance="10"
     guidetolerance="10"
     inkscape:pageopacity="0"
     inkscape:pageshadow="2"
     inkscape:window-width="1680"
     inkscape:window-height="978"
     id="namedview4"
     showgrid="false"
     inkscape:zoom="46.658117"
     inkscape:cx="273.11432"
     inkscape:cy="92.652689"
     inkscape:window-x="0"
     inkscape:window-y="28"
     inkscape:window-maximized="1"
     inkscape:current-layer="svg2"
     inkscape:document-rotation="0"
     inkscape:pagecheckerboard="0" />
  <path
     inkscape:connector-curvature="0"
     id="goudyampersand-01"
     style="font-style:normal;font-variant:normal;font-weight:normal;font-stretch:normal;font-size:40px;line-height:125%;font-family:'Goudy Bookletter 1911';-inkscape-font-specification:'Goudy Bookletter 1911';letter-spacing:0px;word-spacing:0px;fill:#fafad1;fill-opacity:1;fill-rule:evenodd;stroke:#000000;stroke-width:0.944882;stroke-miterlimit:4;stroke-dasharray:none;stroke-opacity:1"
     d="M 20.953325,104.41624 C 18.394042,101.27236 15.850549,96.827207 13.443647,91.091109 C 11.070975,85.436583 10.030158,79.132836 10.030158,72.299259 C 10.030158,56.582637 16.175362,42.689037 28.463001,30.615512 C 40.980029,18.316595 55.315727,12.165328 71.472966,12.165328 C 76.479334,12.165328 81.599617,12.734761 86.833675,13.873676 C 92.067646,15.012572 96.920404,17.344458 101.51167,20.707075 C 106.25124,24.178309 108.68001,28.451828 108.68001,33.690538 C 108.68001,38.246362 107.08688,42.004678 103.90112,44.965655 C 100.71504,47.926947 97.07403,49.40736 92.977955,49.40736 C 88.198974,49.40736 83.07336,46.66779 77.958601,40.865614 C 72.830701,35.04853 67.83184,31.982193 62.597895,31.982193 C 54.17789,31.982193 45.928636,35.915407 37.679427,43.598974 C 29.543444,51.177079 25.390865,60.68267 25.390865,72.299259 C 25.390865,79.132836 26.847141,85.808698 30.16975,92.116124 C 33.448106,98.339537 36.541548,101.3412 39.044823,101.3412 C 39.499926,101.3412 41.586304,100.75618 45.189104,99.291184 C 48.871025,97.794014 53.608942,96.102293 59.525758,94.507811 C 65.442366,92.913378 71.472889,92.116124 77.617248,92.116124 C 86.264664,92.116124 93.350336,94.071126 99.122231,97.582839 C 104.95926,101.13417 107.99731,105.66917 107.99731,111.59131 C 107.99731,117.51373 104.92502,122.29706 98.780878,125.94146 C 92.636469,129.58604 85.013054,131.40832 77.446506,131.40832 C 69.879959,131.40832 64.578555,130.8077 59.184432,129.35816 C 53.79031,127.90862 46.186401,125.13812 40.440839,121.27136 C 44.626,116.11664 50.494766,110.68134 54.746917,108.17462 C 60.933256,104.52766 71.896215,102.64534 80.689438,103.39125 C 90.737432,104.2436 95.708789,106.58017 95.708789,112.27467 C 95.708789,117.96917 90.816023,120.47475 81.03078,120.47475 C 68.287011,120.47475 58.646043,118.31148 52.357471,113.64136 C 51.582165,113.06559 50.067809,111.55281 50.067809,111.55281 C 45.001615,115.76646 40.141142,121.008 36.479197,126.73789 C 29.618477,137.47293 28.121709,150.65579 28.121709,163.86694 C 28.121709,172.06709 29.563325,180.16732 32.55924,188.1255 C 35.480105,195.88432 39.944333,203.71526 46.213198,211.35906 C 52.462092,218.97851 61.496873,225.61748 73.521113,230.15092 C 88.66059,235.85889 104.73205,238.81447 121.65132,238.69267 C 135.07721,238.59603 146.79722,236.7566 156.81027,232.88429 C 166.823,229.0121 174.44655,223.88709 179.68064,217.50914 C 184.91455,211.1314 188.56857,204.60397 190.94514,198.03394 C 193.34802,191.39122 194.7,184.82276 194.7,178.21707 C 194.7,166.14482 191.40024,156.12238 184.80087,148.15013 C 178.20144,140.17779 169.43999,136.19164 158.51702,136.19164 C 148.50396,136.19164 139.57848,139.5517 131.8918,146.44176 C 124.33113,153.21886 120.62728,161.01977 120.62728,169.67532 C 120.62728,175.59769 122.32636,180.82797 126.08884,185.05048 C 129.83907,189.25922 134.84999,191.20053 140.76686,191.20053 C 143.26993,191.20053 146.00072,190.63112 148.95924,189.49219 C 151.91744,188.35335 153.39677,186.98668 153.39677,185.39215 C 153.39677,184.4811 152.94154,183.79766 152.03137,183.34212 C 151.121,182.88647 149.97964,182.56492 148.6179,182.31712 C 147.4761,182.10935 146.11458,181.51981 144.5217,180.60875 C 142.92866,179.69759 141.55442,178.45117 140.42552,176.85039 C 138.8236,174.57887 138.03607,172.06709 138.03607,169.33365 C 138.03607,165.91703 139.23256,162.89964 141.7909,160.45023 C 144.46781,157.88732 147.82127,156.69186 151.69003,156.69186 C 156.92389,156.69186 161.53664,158.68433 165.68534,162.50025 C 169.95732,166.42955 172.17097,171.15598 172.17097,176.85039 C 172.17097,183.91165 169.26942,190.23802 163.29589,195.64224 C 157.43531,200.94427 150.21069,203.50066 141.7909,203.50066 C 132.46058,203.50066 124.49586,200.08392 117.89648,193.25055 C 111.29705,186.41712 107.99736,178.10326 107.99736,168.30864 C 107.99736,159.19755 110.9352,150.52711 116.87244,142.34173 C 122.99622,133.89915 131.30025,127.03531 141.7909,121.8415 C 152.46406,116.55735 167.73038,112.37091 187.53167,109.19972 C 207.55439,105.99307 221.06995,102.76042 228.15219,99.632955 C 236.54491,95.926801 243.61339,90.625264 249.31582,83.574455 C 255.21927,76.275114 258.1909,67.743933 258.1909,57.949204 C 258.1909,47.243747 254.71792,38.417222 247.95043,31.298939 C 241.29106,24.294379 233.72732,20.707164 225.08004,20.707164 C 218.02528,20.707164 213.29375,22.124463 214.49824,23.782198 L 217.22902,27.540564 C 219.13138,30.158766 220.30116,32.893621 220.30116,36.082321 C 220.30116,40.18258 218.93553,43.599271 216.20497,46.332422 C 213.47396,49.065984 210.06049,50.432463 205.96451,50.432463 C 201.41298,50.432463 197.60226,48.889257 194.7,45.649082 C 191.68468,42.282676 190.26246,38.13256 190.26246,33.348959 C 190.26246,26.06023 193.33436,19.910126 199.47887,14.898776 C 205.62291,9.8878174 212.79127,7.3820355 220.98386,7.3820355 C 234.18244,7.3820355 245.95611,13.019352 256.48414,24.123864 C 267.12001,35.342096 272.52756,49.179876 272.52756,65.807612 C 272.52756,84.485753 265.24968,100.54911 250.68121,113.98309 C 236.34882,127.19937 219.27832,134.09472 199.47887,134.48332 C 196.06584,134.55031 194.35864,135.39455 194.35864,137.21669 C 194.35864,137.44452 195.1851,139.20222 197.08944,142.34173 C 199.05503,145.58222 201.18563,150.20017 203.23371,156.3502 C 205.28182,162.50027 206.30564,169.10596 206.30564,184.82279 C 206.30564,200.53962 196.06526,221.26766 175.58445,239.03439 C 155.10341,256.80132 130.64003,265.68465 102.19444,265.68465 C 73.521034,265.68465 49.342379,256.51962 29.828449,238.00937 C 10.200893,219.39134 0.47243249,197.23681 0.47244096,171.72538 C 0.47243249,164.89207 1.0469173,158.2623 2.5205342,151.90853 C 4.0057371,145.5048 6.0477577,140.06407 8.3234705,135.50837 C 10.599075,130.95286 12.682374,127.02865 14.809096,123.89157 C 17.007414,120.6489 19.485322,118.29717 21.29473,116.03316 L 24.02547,112.61633 C 24.661115,111.82099 24.708164,110.90812 24.708168,110.13927 C 24.708173,109.19975 23.401309,107.42342 20.953325,104.41624 Z"
     inkscape:label="Goudy Ampersand"
     sodipodi:nodetypes="sssssssssssssssssssssssscssssscsssssssssssssssssssssssssssssssssssssssssssssssssssssssssssssssssss" />
</svg>
