<?xml version="1.0" encoding="UTF-8" standalone="no"?>
<!-- Created with Inkscape (http://www.inkscape.org/) -->

<!-- Path template: $ gmic wheelie_simple.gmic wheelie 2048,1,0,1,0.5,0,-3,0.5,0,7 -->

<svg
   version="1.1"
   id="svg2"
   width="2050"
   height="2050"
   viewBox="0 0 2050 2050"
   sodipodi:docname="arabesque_1n37.svg"
   inkscape:version="1.1 (c68e22c387, 2021-05-23)"
   xmlns:inkscape="http://www.inkscape.org/namespaces/inkscape"
   xmlns:sodipodi="http://sodipodi.sourceforge.net/DTD/sodipodi-0.dtd"
   xmlns="http://www.w3.org/2000/svg"
   xmlns:svg="http://www.w3.org/2000/svg">
  <defs
     id="defs6">
    <rect
       x="56.033832"
       y="114.84347"
       width="545.97248"
       height="45.524365"
       id="rect27066" />
    <rect
       x="145.30291"
       y="108.6561"
       width="1258.1844"
       height="488.72798"
       id="rect18084" />
    <rect
       x="148.27793"
       y="59.889656"
       width="1700.8883"
       height="513.84596"
       id="rect11632" />
    <rect
       x="34.530076"
       y="50.510374"
       width="1880.2305"
       height="277.29558"
       id="rect5092" />
  </defs>
  <sodipodi:namedview
     id="namedview4"
     pagecolor="#ffffff"
     bordercolor="#666666"
     borderopacity="1.0"
     inkscape:pageshadow="2"
     inkscape:pageopacity="0.0"
     inkscape:pagecheckerboard="0"
     showgrid="false"
     inkscape:zoom="0.43691826"
     inkscape:cx="936.10186"
     inkscape:cy="984.16577"
     inkscape:window-width="1680"
     inkscape:window-height="978"
     inkscape:window-x="0"
     inkscape:window-y="28"
     inkscape:window-maximized="1"
     inkscape:current-layer="layer1" />
  <g
     inkscape:groupmode="layer"
     id="layer1"
     inkscape:label="PathLayer"
     style="display:inline"
     sodipodi:insensitive="true">
    <path
       style="display:inline;fill:none;stroke:#000000;stroke-width:2;stroke-linecap:round;stroke-linejoin:round;stroke-miterlimit:4;stroke-dasharray:none;stroke-opacity:1"
       d="M 1024.3956,200.9952 C 868.97466,200.9952 760.3956,360.8282 760.3956,550.9952 C 760.3956,741.1622 861.68681,867.92075 877.8956,895.9952 C 937.64675,999.48722 1124.3956,1082.2822 1124.3956,1027.9952 C 1124.3956,984.39665 1008.6278,960.9952 948.3956,960.9952 C 627.41611,960.9952 236.20275,1269.6839 236.20275,1610.2872 C 236.20275,1709.0624 288.32629,1848.9952 409.3956,1848.9952 C 530.46491,1848.9952 625.3956,1714.1909 625.3956,1567.9952 C 625.3956,1421.7995 538.0948,1300.7241 458.8582,1300.7241 C 412.10027,1300.7241 401.35511,1345.6882 401.35511,1372.0724 C 401.35511,1502.1956 636.0408,1737.2811 1024.4579,1737.2811 C 1412.875,1737.2811 1647.5784,1502.2546 1647.5784,1371.4514 C 1647.5784,1332.706 1634.3271,1300.8694 1587.4326,1300.8694 C 1508.9874,1300.8694 1423.4602,1429.8087 1423.4524,1567.9952 C 1423.4446,1706.1817 1519.137,1847.7998 1633.3956,1848.9952 C 1747.6542,1850.1906 1813.7364,1739.7847 1813.7972,1609.6547 C 1813.9476,1287.5309 1451.8129,960.9952 1100.3956,960.9952 C 1040.3971,960.9952 924.3956,979.83394 924.3956,1027.9952 C 924.3956,1085.8692 1113.6564,998.60045 1172.8956,895.9952 C 1232.1348,793.38995 1288.3956,741.53656 1288.3956,550.9952 C 1288.3956,360.45384 1179.8165,200.9952 1024.3956,200.9952 Z"
       id="path207"
       sodipodi:nodetypes="zzsssszzsszsszzssszzz"
       inkscape:label="path_101050n30507"
       sodipodi:insensitive="true" />
    <g
       aria-label="512,0.5,270,1,0.25,0,-3,0.25,0,7"
       id="text27064"
       style="font-size:24px;line-height:1.25;font-family:'Liberation Sans';-inkscape-font-specification:'Liberation Sans';white-space:pre;shape-inside:url(#rect27066)"
       inkscape:label="specifications"
       sodipodi:insensitive="true">
      <path
         d="M 68.373047,131.08295 Q 68.373047,133.69623 66.814453,135.19623 Q 65.267578,136.69623 62.513672,136.69623 Q 60.205078,136.69623 58.787109,135.68842 Q 57.369141,134.68061 56.994141,132.77045 L 59.126953,132.52436 Q 59.794922,134.97357 62.560547,134.97357 Q 64.259766,134.97357 65.220703,133.95404 Q 66.181641,132.92279 66.181641,131.12982 Q 66.181641,129.57123 65.208984,128.61029 Q 64.248047,127.64936 62.607422,127.64936 Q 61.751953,127.64936 61.013672,127.91889 Q 60.275391,128.18842 59.537109,128.83295 H 57.474609 L 58.025391,119.95014 H 67.412109 V 121.74311 H 59.947266 L 59.630859,126.98139 Q 61.001953,125.9267 63.041016,125.9267 Q 65.478516,125.9267 66.919922,127.35639 Q 68.373047,128.78607 68.373047,131.08295 Z"
         style="font-size:24px;line-height:1.25;font-family:'Liberation Sans';-inkscape-font-specification:'Liberation Sans';white-space:pre;shape-inside:url(#rect27066)"
         id="path38000" />
      <path
         d="M 71.208984,136.46186 V 134.66889 H 75.416016 V 121.96576 L 71.689453,124.62592 V 122.63373 L 75.591797,119.95014 H 77.537109 V 134.66889 H 81.556641 V 136.46186 Z"
         style="font-size:24px;line-height:1.25;font-family:'Liberation Sans';-inkscape-font-specification:'Liberation Sans';white-space:pre;shape-inside:url(#rect27066)"
         id="path38002" />
      <path
         d="M 83.935547,136.46186 V 134.97357 Q 84.533203,133.60248 85.388672,132.55951 Q 86.255859,131.50482 87.205078,130.66107 Q 88.154297,129.80561 89.080078,129.07904 Q 90.017578,128.35248 90.767578,127.62592 Q 91.517578,126.89936 91.974609,126.10248 Q 92.443359,125.30561 92.443359,124.29779 Q 92.443359,122.93842 91.646484,122.18842 Q 90.849609,121.43842 89.431641,121.43842 Q 88.083984,121.43842 87.205078,122.1767 Q 86.337891,122.90326 86.185547,124.22748 L 84.029297,124.02826 Q 84.263672,122.04779 85.705078,120.87592 Q 87.158203,119.70404 89.431641,119.70404 Q 91.927734,119.70404 93.263672,120.88764 Q 94.611328,122.05951 94.611328,124.22748 Q 94.611328,125.18842 94.166016,126.13764 Q 93.732422,127.08686 92.865234,128.03607 Q 91.998047,128.98529 89.548828,130.97748 Q 88.201172,132.07904 87.404297,132.96967 Q 86.607422,133.84857 86.255859,134.66889 H 94.869141 V 136.46186 Z"
         style="font-size:24px;line-height:1.25;font-family:'Liberation Sans';-inkscape-font-specification:'Liberation Sans';white-space:pre;shape-inside:url(#rect27066)"
         id="path38004" />
      <path
         d="M 100.58789,133.89545 V 135.8642 Q 100.58789,137.10639 100.36523,137.93842 Q 100.14258,138.77045 99.673828,139.53217 H 98.232422 Q 99.333984,137.93842 99.333984,136.46186 H 98.302734 V 133.89545 Z"
         style="font-size:24px;line-height:1.25;font-family:'Liberation Sans';-inkscape-font-specification:'Liberation Sans';white-space:pre;shape-inside:url(#rect27066)"
         id="path38006" />
      <path
         d="M 115.1543,128.20014 Q 115.1543,132.33686 113.68945,134.51654 Q 112.23633,136.69623 109.38867,136.69623 Q 106.54102,136.69623 105.11133,134.52826 Q 103.68164,132.36029 103.68164,128.20014 Q 103.68164,123.94623 105.06445,121.82514 Q 106.45898,119.70404 109.45898,119.70404 Q 112.37695,119.70404 113.75977,121.84857 Q 115.1543,123.99311 115.1543,128.20014 Z M 113.00977,128.20014 Q 113.00977,124.62592 112.17773,123.02045 Q 111.35742,121.41498 109.45898,121.41498 Q 107.51367,121.41498 106.6582,122.99701 Q 105.81445,124.57904 105.81445,128.20014 Q 105.81445,131.71576 106.66992,133.34467 Q 107.53711,134.97357 109.41211,134.97357 Q 111.27539,134.97357 112.14258,133.30951 Q 113.00977,131.64545 113.00977,128.20014 Z"
         style="font-size:24px;line-height:1.25;font-family:'Liberation Sans';-inkscape-font-specification:'Liberation Sans';white-space:pre;shape-inside:url(#rect27066)"
         id="path38008" />
      <path
         d="M 118.2832,136.46186 V 133.89545 H 120.56836 V 136.46186 Z"
         style="font-size:24px;line-height:1.25;font-family:'Liberation Sans';-inkscape-font-specification:'Liberation Sans';white-space:pre;shape-inside:url(#rect27066)"
         id="path38010" />
      <path
         d="M 135.09961,131.08295 Q 135.09961,133.69623 133.54102,135.19623 Q 131.99414,136.69623 129.24023,136.69623 Q 126.93164,136.69623 125.51367,135.68842 Q 124.0957,134.68061 123.7207,132.77045 L 125.85352,132.52436 Q 126.52148,134.97357 129.28711,134.97357 Q 130.98633,134.97357 131.94727,133.95404 Q 132.9082,132.92279 132.9082,131.12982 Q 132.9082,129.57123 131.93555,128.61029 Q 130.97461,127.64936 129.33398,127.64936 Q 128.47852,127.64936 127.74023,127.91889 Q 127.00195,128.18842 126.26367,128.83295 H 124.20117 L 124.75195,119.95014 H 134.13867 V 121.74311 H 126.67383 L 126.35742,126.98139 Q 127.72852,125.9267 129.76758,125.9267 Q 132.20508,125.9267 133.64648,127.35639 Q 135.09961,128.78607 135.09961,131.08295 Z"
         style="font-size:24px;line-height:1.25;font-family:'Liberation Sans';-inkscape-font-specification:'Liberation Sans';white-space:pre;shape-inside:url(#rect27066)"
         id="path38012" />
      <path
         d="M 140.61914,133.89545 V 135.8642 Q 140.61914,137.10639 140.39648,137.93842 Q 140.17383,138.77045 139.70508,139.53217 H 138.26367 Q 139.36523,137.93842 139.36523,136.46186 H 138.33398 V 133.89545 Z"
         style="font-size:24px;line-height:1.25;font-family:'Liberation Sans';-inkscape-font-specification:'Liberation Sans';white-space:pre;shape-inside:url(#rect27066)"
         id="path38014" />
      <path
         d="M 143.98242,136.46186 V 134.97357 Q 144.58008,133.60248 145.43555,132.55951 Q 146.30273,131.50482 147.25195,130.66107 Q 148.20117,129.80561 149.12695,129.07904 Q 150.06445,128.35248 150.81445,127.62592 Q 151.56445,126.89936 152.02148,126.10248 Q 152.49023,125.30561 152.49023,124.29779 Q 152.49023,122.93842 151.69336,122.18842 Q 150.89648,121.43842 149.47852,121.43842 Q 148.13086,121.43842 147.25195,122.1767 Q 146.38477,122.90326 146.23242,124.22748 L 144.07617,124.02826 Q 144.31055,122.04779 145.75195,120.87592 Q 147.20508,119.70404 149.47852,119.70404 Q 151.97461,119.70404 153.31055,120.88764 Q 154.6582,122.05951 154.6582,124.22748 Q 154.6582,125.18842 154.21289,126.13764 Q 153.7793,127.08686 152.91211,128.03607 Q 152.04492,128.98529 149.5957,130.97748 Q 148.24805,132.07904 147.45117,132.96967 Q 146.6543,133.84857 146.30273,134.66889 H 154.91602 V 136.46186 Z"
         style="font-size:24px;line-height:1.25;font-family:'Liberation Sans';-inkscape-font-specification:'Liberation Sans';white-space:pre;shape-inside:url(#rect27066)"
         id="path38016" />
      <path
         d="M 168.26367,121.66107 Q 165.73242,125.52826 164.68945,127.71967 Q 163.64648,129.91107 163.11914,132.04389 Q 162.60352,134.1767 162.60352,136.46186 H 160.40039 Q 160.40039,133.29779 161.73633,129.80561 Q 163.08398,126.3017 166.22461,121.74311 H 157.35352 V 119.95014 H 168.26367 Z"
         style="font-size:24px;line-height:1.25;font-family:'Liberation Sans';-inkscape-font-specification:'Liberation Sans';white-space:pre;shape-inside:url(#rect27066)"
         id="path38018" />
      <path
         d="M 181.88086,128.20014 Q 181.88086,132.33686 180.41602,134.51654 Q 178.96289,136.69623 176.11523,136.69623 Q 173.26758,136.69623 171.83789,134.52826 Q 170.4082,132.36029 170.4082,128.20014 Q 170.4082,123.94623 171.79102,121.82514 Q 173.18555,119.70404 176.18555,119.70404 Q 179.10352,119.70404 180.48633,121.84857 Q 181.88086,123.99311 181.88086,128.20014 Z M 179.73633,128.20014 Q 179.73633,124.62592 178.9043,123.02045 Q 178.08398,121.41498 176.18555,121.41498 Q 174.24023,121.41498 173.38477,122.99701 Q 172.54102,124.57904 172.54102,128.20014 Q 172.54102,131.71576 173.39648,133.34467 Q 174.26367,134.97357 176.13867,134.97357 Q 178.00195,134.97357 178.86914,133.30951 Q 179.73633,131.64545 179.73633,128.20014 Z"
         style="font-size:24px;line-height:1.25;font-family:'Liberation Sans';-inkscape-font-specification:'Liberation Sans';white-space:pre;shape-inside:url(#rect27066)"
         id="path38020" />
      <path
         d="M 187.33008,133.89545 V 135.8642 Q 187.33008,137.10639 187.10742,137.93842 Q 186.88477,138.77045 186.41602,139.53217 H 184.97461 Q 186.07617,137.93842 186.07617,136.46186 H 185.04492 V 133.89545 Z"
         style="font-size:24px;line-height:1.25;font-family:'Liberation Sans';-inkscape-font-specification:'Liberation Sans';white-space:pre;shape-inside:url(#rect27066)"
         id="path38022" />
      <path
         d="M 191.31445,136.46186 V 134.66889 H 195.52148 V 121.96576 L 191.79492,124.62592 V 122.63373 L 195.69727,119.95014 H 197.64258 V 134.66889 H 201.66211 V 136.46186 Z"
         style="font-size:24px;line-height:1.25;font-family:'Liberation Sans';-inkscape-font-specification:'Liberation Sans';white-space:pre;shape-inside:url(#rect27066)"
         id="path38024" />
      <path
         d="M 207.3457,133.89545 V 135.8642 Q 207.3457,137.10639 207.12305,137.93842 Q 206.90039,138.77045 206.43164,139.53217 H 204.99023 Q 206.0918,137.93842 206.0918,136.46186 H 205.06055 V 133.89545 Z"
         style="font-size:24px;line-height:1.25;font-family:'Liberation Sans';-inkscape-font-specification:'Liberation Sans';white-space:pre;shape-inside:url(#rect27066)"
         id="path38026" />
      <path
         d="M 221.91211,128.20014 Q 221.91211,132.33686 220.44727,134.51654 Q 218.99414,136.69623 216.14648,136.69623 Q 213.29883,136.69623 211.86914,134.52826 Q 210.43945,132.36029 210.43945,128.20014 Q 210.43945,123.94623 211.82227,121.82514 Q 213.2168,119.70404 216.2168,119.70404 Q 219.13477,119.70404 220.51758,121.84857 Q 221.91211,123.99311 221.91211,128.20014 Z M 219.76758,128.20014 Q 219.76758,124.62592 218.93555,123.02045 Q 218.11523,121.41498 216.2168,121.41498 Q 214.27148,121.41498 213.41602,122.99701 Q 212.57227,124.57904 212.57227,128.20014 Q 212.57227,131.71576 213.42773,133.34467 Q 214.29492,134.97357 216.16992,134.97357 Q 218.0332,134.97357 218.90039,133.30951 Q 219.76758,131.64545 219.76758,128.20014 Z"
         style="font-size:24px;line-height:1.25;font-family:'Liberation Sans';-inkscape-font-specification:'Liberation Sans';white-space:pre;shape-inside:url(#rect27066)"
         id="path38028" />
      <path
         d="M 225.04102,136.46186 V 133.89545 H 227.32617 V 136.46186 Z"
         style="font-size:24px;line-height:1.25;font-family:'Liberation Sans';-inkscape-font-specification:'Liberation Sans';white-space:pre;shape-inside:url(#rect27066)"
         id="path38030" />
      <path
         d="M 230.72461,136.46186 V 134.97357 Q 231.32227,133.60248 232.17773,132.55951 Q 233.04492,131.50482 233.99414,130.66107 Q 234.94336,129.80561 235.86914,129.07904 Q 236.80664,128.35248 237.55664,127.62592 Q 238.30664,126.89936 238.76367,126.10248 Q 239.23242,125.30561 239.23242,124.29779 Q 239.23242,122.93842 238.43555,122.18842 Q 237.63867,121.43842 236.2207,121.43842 Q 234.87305,121.43842 233.99414,122.1767 Q 233.12695,122.90326 232.97461,124.22748 L 230.81836,124.02826 Q 231.05273,122.04779 232.49414,120.87592 Q 233.94727,119.70404 236.2207,119.70404 Q 238.7168,119.70404 240.05273,120.88764 Q 241.40039,122.05951 241.40039,124.22748 Q 241.40039,125.18842 240.95508,126.13764 Q 240.52148,127.08686 239.6543,128.03607 Q 238.78711,128.98529 236.33789,130.97748 Q 234.99023,132.07904 234.19336,132.96967 Q 233.39648,133.84857 233.04492,134.66889 H 241.6582 V 136.46186 Z"
         style="font-size:24px;line-height:1.25;font-family:'Liberation Sans';-inkscape-font-specification:'Liberation Sans';white-space:pre;shape-inside:url(#rect27066)"
         id="path38032" />
      <path
         d="M 255.20508,131.08295 Q 255.20508,133.69623 253.64648,135.19623 Q 252.09961,136.69623 249.3457,136.69623 Q 247.03711,136.69623 245.61914,135.68842 Q 244.20117,134.68061 243.82617,132.77045 L 245.95898,132.52436 Q 246.62695,134.97357 249.39258,134.97357 Q 251.0918,134.97357 252.05273,133.95404 Q 253.01367,132.92279 253.01367,131.12982 Q 253.01367,129.57123 252.04102,128.61029 Q 251.08008,127.64936 249.43945,127.64936 Q 248.58398,127.64936 247.8457,127.91889 Q 247.10742,128.18842 246.36914,128.83295 H 244.30664 L 244.85742,119.95014 H 254.24414 V 121.74311 H 246.7793 L 246.46289,126.98139 Q 247.83398,125.9267 249.87305,125.9267 Q 252.31055,125.9267 253.75195,127.35639 Q 255.20508,128.78607 255.20508,131.08295 Z"
         style="font-size:24px;line-height:1.25;font-family:'Liberation Sans';-inkscape-font-specification:'Liberation Sans';white-space:pre;shape-inside:url(#rect27066)"
         id="path38034" />
      <path
         d="M 260.72461,133.89545 V 135.8642 Q 260.72461,137.10639 260.50195,137.93842 Q 260.2793,138.77045 259.81055,139.53217 H 258.36914 Q 259.4707,137.93842 259.4707,136.46186 H 258.43945 V 133.89545 Z"
         style="font-size:24px;line-height:1.25;font-family:'Liberation Sans';-inkscape-font-specification:'Liberation Sans';white-space:pre;shape-inside:url(#rect27066)"
         id="path38036" />
      <path
         d="M 275.29102,128.20014 Q 275.29102,132.33686 273.82617,134.51654 Q 272.37305,136.69623 269.52539,136.69623 Q 266.67773,136.69623 265.24805,134.52826 Q 263.81836,132.36029 263.81836,128.20014 Q 263.81836,123.94623 265.20117,121.82514 Q 266.5957,119.70404 269.5957,119.70404 Q 272.51367,119.70404 273.89648,121.84857 Q 275.29102,123.99311 275.29102,128.20014 Z M 273.14648,128.20014 Q 273.14648,124.62592 272.31445,123.02045 Q 271.49414,121.41498 269.5957,121.41498 Q 267.65039,121.41498 266.79492,122.99701 Q 265.95117,124.57904 265.95117,128.20014 Q 265.95117,131.71576 266.80664,133.34467 Q 267.67383,134.97357 269.54883,134.97357 Q 271.41211,134.97357 272.2793,133.30951 Q 273.14648,131.64545 273.14648,128.20014 Z"
         style="font-size:24px;line-height:1.25;font-family:'Liberation Sans';-inkscape-font-specification:'Liberation Sans';white-space:pre;shape-inside:url(#rect27066)"
         id="path38038" />
      <path
         d="M 280.74023,133.89545 V 135.8642 Q 280.74023,137.10639 280.51758,137.93842 Q 280.29492,138.77045 279.82617,139.53217 H 278.38477 Q 279.48633,137.93842 279.48633,136.46186 H 278.45508 V 133.89545 Z"
         style="font-size:24px;line-height:1.25;font-family:'Liberation Sans';-inkscape-font-specification:'Liberation Sans';white-space:pre;shape-inside:url(#rect27066)"
         id="path38040" />
      <path
         d="M 283.96289,131.02436 V 129.14936 H 289.82227 V 131.02436 Z"
         style="font-size:24px;line-height:1.25;font-family:'Liberation Sans';-inkscape-font-specification:'Liberation Sans';white-space:pre;shape-inside:url(#rect27066)"
         id="path38042" />
      <path
         d="M 303.18164,131.90326 Q 303.18164,134.18842 301.72852,135.44232 Q 300.27539,136.69623 297.58008,136.69623 Q 295.07227,136.69623 293.57227,135.57123 Q 292.08398,134.43451 291.80273,132.21967 L 293.98242,132.02045 Q 294.4043,134.95014 297.58008,134.95014 Q 299.17383,134.95014 300.07617,134.16498 Q 300.99023,133.37982 300.99023,131.83295 Q 300.99023,130.48529 299.94727,129.73529 Q 298.91602,128.97357 296.95898,128.97357 H 295.76367 V 127.14545 H 296.91211 Q 298.64648,127.14545 299.5957,126.39545 Q 300.55664,125.63373 300.55664,124.29779 Q 300.55664,122.97357 299.77148,122.21186 Q 298.99805,121.43842 297.46289,121.43842 Q 296.06836,121.43842 295.20117,122.15326 Q 294.3457,122.86811 294.20508,124.16889 L 292.08398,124.00482 Q 292.31836,121.97748 293.75977,120.84076 Q 295.21289,119.70404 297.48633,119.70404 Q 299.9707,119.70404 301.3418,120.8642 Q 302.72461,122.01264 302.72461,124.07514 Q 302.72461,125.65717 301.83398,126.65326 Q 300.95508,127.63764 299.26758,127.9892 V 128.03607 Q 301.11914,128.23529 302.15039,129.27826 Q 303.18164,130.32123 303.18164,131.90326 Z"
         style="font-size:24px;line-height:1.25;font-family:'Liberation Sans';-inkscape-font-specification:'Liberation Sans';white-space:pre;shape-inside:url(#rect27066)"
         id="path38044" />
      <path
         d="M 308.74805,133.89545 V 135.8642 Q 308.74805,137.10639 308.52539,137.93842 Q 308.30273,138.77045 307.83398,139.53217 H 306.39258 Q 307.49414,137.93842 307.49414,136.46186 H 306.46289 V 133.89545 Z"
         style="font-size:24px;line-height:1.25;font-family:'Liberation Sans';-inkscape-font-specification:'Liberation Sans';white-space:pre;shape-inside:url(#rect27066)"
         id="path38046" />
      <path
         d="M 323.31445,128.20014 Q 323.31445,132.33686 321.84961,134.51654 Q 320.39648,136.69623 317.54883,136.69623 Q 314.70117,136.69623 313.27148,134.52826 Q 311.8418,132.36029 311.8418,128.20014 Q 311.8418,123.94623 313.22461,121.82514 Q 314.61914,119.70404 317.61914,119.70404 Q 320.53711,119.70404 321.91992,121.84857 Q 323.31445,123.99311 323.31445,128.20014 Z M 321.16992,128.20014 Q 321.16992,124.62592 320.33789,123.02045 Q 319.51758,121.41498 317.61914,121.41498 Q 315.67383,121.41498 314.81836,122.99701 Q 313.97461,124.57904 313.97461,128.20014 Q 313.97461,131.71576 314.83008,133.34467 Q 315.69727,134.97357 317.57227,134.97357 Q 319.43555,134.97357 320.30273,133.30951 Q 321.16992,131.64545 321.16992,128.20014 Z"
         style="font-size:24px;line-height:1.25;font-family:'Liberation Sans';-inkscape-font-specification:'Liberation Sans';white-space:pre;shape-inside:url(#rect27066)"
         id="path38048" />
      <path
         d="M 326.44336,136.46186 V 133.89545 H 328.72852 V 136.46186 Z"
         style="font-size:24px;line-height:1.25;font-family:'Liberation Sans';-inkscape-font-specification:'Liberation Sans';white-space:pre;shape-inside:url(#rect27066)"
         id="path38050" />
      <path
         d="M 332.12695,136.46186 V 134.97357 Q 332.72461,133.60248 333.58008,132.55951 Q 334.44727,131.50482 335.39648,130.66107 Q 336.3457,129.80561 337.27148,129.07904 Q 338.20898,128.35248 338.95898,127.62592 Q 339.70898,126.89936 340.16602,126.10248 Q 340.63477,125.30561 340.63477,124.29779 Q 340.63477,122.93842 339.83789,122.18842 Q 339.04102,121.43842 337.62305,121.43842 Q 336.27539,121.43842 335.39648,122.1767 Q 334.5293,122.90326 334.37695,124.22748 L 332.2207,124.02826 Q 332.45508,122.04779 333.89648,120.87592 Q 335.34961,119.70404 337.62305,119.70404 Q 340.11914,119.70404 341.45508,120.88764 Q 342.80273,122.05951 342.80273,124.22748 Q 342.80273,125.18842 342.35742,126.13764 Q 341.92383,127.08686 341.05664,128.03607 Q 340.18945,128.98529 337.74023,130.97748 Q 336.39258,132.07904 335.5957,132.96967 Q 334.79883,133.84857 334.44727,134.66889 H 343.06055 V 136.46186 Z"
         style="font-size:24px;line-height:1.25;font-family:'Liberation Sans';-inkscape-font-specification:'Liberation Sans';white-space:pre;shape-inside:url(#rect27066)"
         id="path38052" />
      <path
         d="M 356.60742,131.08295 Q 356.60742,133.69623 355.04883,135.19623 Q 353.50195,136.69623 350.74805,136.69623 Q 348.43945,136.69623 347.02148,135.68842 Q 345.60352,134.68061 345.22852,132.77045 L 347.36133,132.52436 Q 348.0293,134.97357 350.79492,134.97357 Q 352.49414,134.97357 353.45508,133.95404 Q 354.41602,132.92279 354.41602,131.12982 Q 354.41602,129.57123 353.44336,128.61029 Q 352.48242,127.64936 350.8418,127.64936 Q 349.98633,127.64936 349.24805,127.91889 Q 348.50977,128.18842 347.77148,128.83295 H 345.70898 L 346.25977,119.95014 H 355.64648 V 121.74311 H 348.18164 L 347.86523,126.98139 Q 349.23633,125.9267 351.27539,125.9267 Q 353.71289,125.9267 355.1543,127.35639 Q 356.60742,128.78607 356.60742,131.08295 Z"
         style="font-size:24px;line-height:1.25;font-family:'Liberation Sans';-inkscape-font-specification:'Liberation Sans';white-space:pre;shape-inside:url(#rect27066)"
         id="path38054" />
      <path
         d="M 362.12695,133.89545 V 135.8642 Q 362.12695,137.10639 361.9043,137.93842 Q 361.68164,138.77045 361.21289,139.53217 H 359.77148 Q 360.87305,137.93842 360.87305,136.46186 H 359.8418 V 133.89545 Z"
         style="font-size:24px;line-height:1.25;font-family:'Liberation Sans';-inkscape-font-specification:'Liberation Sans';white-space:pre;shape-inside:url(#rect27066)"
         id="path38056" />
      <path
         d="M 376.69336,128.20014 Q 376.69336,132.33686 375.22852,134.51654 Q 373.77539,136.69623 370.92773,136.69623 Q 368.08008,136.69623 366.65039,134.52826 Q 365.2207,132.36029 365.2207,128.20014 Q 365.2207,123.94623 366.60352,121.82514 Q 367.99805,119.70404 370.99805,119.70404 Q 373.91602,119.70404 375.29883,121.84857 Q 376.69336,123.99311 376.69336,128.20014 Z M 374.54883,128.20014 Q 374.54883,124.62592 373.7168,123.02045 Q 372.89648,121.41498 370.99805,121.41498 Q 369.05273,121.41498 368.19727,122.99701 Q 367.35352,124.57904 367.35352,128.20014 Q 367.35352,131.71576 368.20898,133.34467 Q 369.07617,134.97357 370.95117,134.97357 Q 372.81445,134.97357 373.68164,133.30951 Q 374.54883,131.64545 374.54883,128.20014 Z"
         style="font-size:24px;line-height:1.25;font-family:'Liberation Sans';-inkscape-font-specification:'Liberation Sans';white-space:pre;shape-inside:url(#rect27066)"
         id="path38058" />
      <path
         d="M 382.14258,133.89545 V 135.8642 Q 382.14258,137.10639 381.91992,137.93842 Q 381.69727,138.77045 381.22852,139.53217 H 379.78711 Q 380.88867,137.93842 380.88867,136.46186 H 379.85742 V 133.89545 Z"
         style="font-size:24px;line-height:1.25;font-family:'Liberation Sans';-inkscape-font-specification:'Liberation Sans';white-space:pre;shape-inside:url(#rect27066)"
         id="path38060" />
      <path
         d="M 396.43945,121.66107 Q 393.9082,125.52826 392.86523,127.71967 Q 391.82227,129.91107 391.29492,132.04389 Q 390.7793,134.1767 390.7793,136.46186 H 388.57617 Q 388.57617,133.29779 389.91211,129.80561 Q 391.25977,126.3017 394.40039,121.74311 H 385.5293 V 119.95014 H 396.43945 Z"
         style="font-size:24px;line-height:1.25;font-family:'Liberation Sans';-inkscape-font-specification:'Liberation Sans';white-space:pre;shape-inside:url(#rect27066)"
         id="path38062" />
    </g>
  </g>
</svg>
