<?xml version="1.0" encoding="UTF-8" standalone="no"?>
<!-- Created with Inkscape (http://www.inkscape.org/) -->

<svg
   width="100mm"
   height="100mm"
   viewBox="0 0 300 300.00001"
   version="1.1"
   id="svg5"
   inkscape:version="1.1 (c68e22c387, 2021-05-23)"
   sodipodi:docname="spectralspace.svg"
   xmlns:inkscape="http://www.inkscape.org/namespaces/inkscape"
   xmlns:sodipodi="http://sodipodi.sourceforge.net/DTD/sodipodi-0.dtd"
   xmlns:xlink="http://www.w3.org/1999/xlink"
   xmlns="http://www.w3.org/2000/svg"
   xmlns:svg="http://www.w3.org/2000/svg">
  <sodipodi:namedview
     id="namedview7"
     pagecolor="#ffffff"
     bordercolor="#c7f2fb"
     borderopacity="1"
     inkscape:pageshadow="2"
     inkscape:pageopacity="0.0"
     inkscape:pagecheckerboard="true"
     inkscape:document-units="mm"
     showgrid="false"
     width="300mm"
     inkscape:snap-global="false"
     inkscape:zoom="2.137267"
     inkscape:cx="179.20082"
     inkscape:cy="263.42052"
     inkscape:window-width="1680"
     inkscape:window-height="978"
     inkscape:window-x="0"
     inkscape:window-y="28"
     inkscape:window-maximized="1"
     inkscape:current-layer="layer1"
     inkscape:snap-bbox="true"
     inkscape:snap-others="false"
     scale-x="3"
     inkscape:object-nodes="true"
     inkscape:snap-grids="false"
     inkscape:snap-to-guides="false"
     inkscape:object-paths="true"
     inkscape:bbox-nodes="true"
     inkscape:snap-smooth-nodes="false"
     inkscape:snap-nodes="true" />
  <defs
     id="defs2">
    <rect
       x="127.27001"
       y="223.66598"
       width="147.82784"
       height="81.936497"
       id="rect5833" />
    <rect
       x="141.68007"
       y="150.29382"
       width="105.2564"
       height="58.361564"
       id="rect188900" />
    <rect
       x="136.86106"
       y="149.0378"
       width="106.88755"
       height="48.995521"
       id="rect174058" />
    <rect
       x="142.3325"
       y="138.17995"
       width="113.04249"
       height="71.467353"
       id="rect158869" />
    <rect
       x="145.87701"
       y="117.84126"
       width="118.86073"
       height="55.305959"
       id="rect150752" />
    <rect
       x="143.19542"
       y="127.04062"
       width="53.052788"
       height="48.050439"
       id="rect126872" />
    <rect
       x="126.08535"
       y="182.24609"
       width="139.93083"
       height="35.274103"
       id="rect94683" />
    <rect
       x="156.27173"
       y="154.53199"
       width="71.590046"
       height="61.505007"
       id="rect76044" />
    <rect
       x="180.01453"
       y="119.72036"
       width="30.517003"
       height="23.422415"
       id="rect42687" />
    <linearGradient
       inkscape:collect="always"
       id="Backgradient">
      <stop
         style="stop-color:#d9eaf2;stop-opacity:1"
         offset="0"
         id="stop960" />
      <stop
         style="stop-color:#f0f0dc;stop-opacity:1"
         offset="1"
         id="stop962" />
    </linearGradient>
    <rect
       x="280.44116"
       y="93.903404"
       width="348.69312"
       height="65.019081"
       id="rect73495" />
    <rect
       x="810.34015"
       y="76.609459"
       width="158.12024"
       height="40.934669"
       id="rect22919" />
    <rect
       x="836.91852"
       y="121.90139"
       width="85.342522"
       height="79.572823"
       id="rect9322" />
    <rect
       x="126.4501"
       y="353.63721"
       width="188.33687"
       height="141.26376"
       id="rect4811" />
    <rect
       x="735.84259"
       y="812.22839"
       width="232.6528"
       height="159.1553"
       id="rect111452" />
    <rect
       x="117.87085"
       y="281.94232"
       width="315.23315"
       height="240.20856"
       id="rect103135" />
    <rect
       x="955.68018"
       y="533.83032"
       width="46.705185"
       height="49.647881"
       id="rect94166" />
    <rect
       x="166.27986"
       y="640.80829"
       width="37.033524"
       height="48.738281"
       id="rect86164" />
    <rect
       x="186.27026"
       y="608.54156"
       width="35.770874"
       height="50.68338"
       id="rect75075" />
    <rect
       x="190.41675"
       y="374.6709"
       width="96.829758"
       height="63.563358"
       id="rect8790" />
    <rect
       x="810.34015"
       y="76.609459"
       width="255.82944"
       height="41.197124"
       id="rect41481" />
    <rect
       x="810.34015"
       y="76.609459"
       width="302.93381"
       height="41.197124"
       id="rect54249" />
    <rect
       x="810.34015"
       y="76.609459"
       width="302.93381"
       height="41.197124"
       id="rect58785" />
    <linearGradient
       inkscape:collect="always"
       xlink:href="#Backgradient"
       id="linearGradient966"
       x1="149.94312"
       y1="-1.1761929"
       x2="150.42719"
       y2="299.92682"
       gradientUnits="userSpaceOnUse"
       gradientTransform="scale(1.2598425)" />
    <clipPath
       clipPathUnits="userSpaceOnUse"
       id="clipPath1363">
      <path
         d="M 0,0.028 H 594.935 V 841.917 H 0 Z"
         clip-rule="evenodd"
         id="path1361" />
    </clipPath>
    <clipPath
       clipPathUnits="userSpaceOnUse"
       id="clipPath1389">
      <path
         d="M 61.71,113.215 H 537.59 V 753.929 H 61.71 Z"
         clip-rule="evenodd"
         id="path1387" />
    </clipPath>
    <clipPath
       clipPathUnits="userSpaceOnUse"
       id="clipPath1712">
      <path
         d="M 0,0.028 H 594.935 V 841.917 H 0 Z"
         clip-rule="evenodd"
         id="path1710" />
    </clipPath>
    <clipPath
       clipPathUnits="userSpaceOnUse"
       id="clipPath1738">
      <path
         d="M 61.71,113.215 H 537.59 V 753.929 H 61.71 Z"
         clip-rule="evenodd"
         id="path1736" />
    </clipPath>
  </defs>
  <g
     inkscape:label="Layer 1"
     inkscape:groupmode="layer"
     id="layer1"
     style="display:inline">
    <path
       id="rect120965"
       style="font-size:40px;line-height:1.25;font-family:Dingbats;-inkscape-font-specification:Dingbats;white-space:pre;shape-inside:url(#rect103135);display:inline;fill:url(#linearGradient966);fill-opacity:1;fill-rule:nonzero;stroke:#40a9be;stroke-width:0.629921;stroke-linecap:round;stroke-linejoin:round;stroke-miterlimit:4;stroke-dasharray:none;stroke-opacity:1"
       d="M 0,0 V 377.95312 H 377.95312 V 0 Z"
       transform="scale(0.79375002)"
       sodipodi:insensitive="true" />
    <g
       id="g12068">
      <path
         style="display:inline;fill:#ff80e5;stroke:#020607;stroke-width:0.944882;stroke-linecap:round;stroke-linejoin:round;stroke-miterlimit:4;stroke-dasharray:none;stroke-opacity:1"
         d="M 211.13153,20.328329 C 203.88006,19.385005 196.48513,18.898438 188.97656,18.898438 C 181.43748,18.898438 174.01298,19.388967 166.73321,20.33985 L 175.46588,86.330714 C 179.41265,85.852004 183.42844,85.605469 187.5,85.605469 C 192.57677,85.605469 197.56682,85.988762 202.44449,86.72751 Z"
         transform="scale(0.79375002)"
         id="path11639"
         inkscape:label="freq_0" />
      <path
         style="display:inline;fill:#80b3ff;stroke:#020607;stroke-width:0.982677;stroke-linecap:round;stroke-linejoin:round;stroke-miterlimit:4;stroke-dasharray:none;stroke-opacity:1"
         d="M 166.67721,357.60595 C 173.9749,358.56164 181.41815,359.05469 188.97656,359.05469 C 196.45959,359.05469 203.82974,358.57143 211.05752,357.6344 L 201.93014,288.41223 C 197.2162,289.06006 192.39847,289.39453 187.5,289.39453 C 183.54358,289.39453 179.63983,289.17634 175.80089,288.75107 Z"
         transform="scale(0.79375002)"
         id="path8834"
         inkscape:label="freq_n" />
    </g>
    <g
       id="g12074"
       transform="rotate(15,148.34995,148.29098)">
      <path
         style="display:inline;fill:#f7c5d4;fill-opacity:1;stroke:#020607;stroke-width:0.944882;stroke-linecap:round;stroke-linejoin:round;stroke-miterlimit:4;stroke-dasharray:none;stroke-opacity:1"
         d="M 211.63953,19.694103 C 196.44247,17.823238 181.46345,17.922004 167.3042,19.735868 L 176.00805,86.114352 C 185.00563,85.531822 193.92205,85.438053 202.77504,86.516162 Z"
         transform="scale(0.79375002)"
         id="path12070"
         inkscape:label="freq_0"
         sodipodi:nodetypes="ccccc" />
      <path
         style="display:inline;fill:#c5e6f7;fill-opacity:1;stroke:#020607;stroke-width:0.982677;stroke-linecap:round;stroke-linejoin:round;stroke-miterlimit:4;stroke-dasharray:none;stroke-opacity:1"
         d="M 167.01669,357.61687 C 183.26791,358.55491 197.1156,358.87895 211.62142,356.99407 L 202.55985,288.15 C 193.45199,289.66485 184.52215,289.48489 176.12604,288.55458 Z"
         transform="scale(0.79375002)"
         id="path12072"
         inkscape:label="freq_n"
         sodipodi:nodetypes="ccccc" />
    </g>
    <g
       id="g12224"
       transform="rotate(30,149.51206,148.42304)">
      <path
         style="display:inline;fill:#f7c5d4;fill-opacity:1;stroke:#020607;stroke-width:0.944882;stroke-linecap:round;stroke-linejoin:round;stroke-miterlimit:4;stroke-dasharray:none;stroke-opacity:1"
         d="M 212.48881,19.824839 C 197.17652,17.902055 181.89263,17.561072 167.65322,19.739528 L 176.3856,86.57898 C 185.24857,85.215651 194.82774,86.334687 203.16487,87.573057 Z"
         transform="scale(0.79375002)"
         id="path12220"
         inkscape:label="freq_0"
         sodipodi:nodetypes="ccccc" />
      <path
         style="display:inline;fill:#c5e6f7;fill-opacity:1;stroke:#020607;stroke-width:0.982677;stroke-linecap:round;stroke-linejoin:round;stroke-miterlimit:4;stroke-dasharray:none;stroke-opacity:1"
         d="M 167.62684,357.0264 C 183.57682,359.20615 197.28904,358.3548 212.01171,357.6971 L 202.93603,288.63037 C 193.9747,289.37728 184.55555,290.15128 176.59407,289.00494 Z"
         transform="scale(0.79375002)"
         id="path12222"
         inkscape:label="freq_n"
         sodipodi:nodetypes="ccccc" />
    </g>
    <g
       id="g12230"
       transform="rotate(45,149.14642,148.09604)">
      <path
         style="display:inline;fill:#f7c5d4;fill-opacity:1;stroke:#020607;stroke-width:0.944882;stroke-linecap:round;stroke-linejoin:round;stroke-miterlimit:4;stroke-dasharray:none;stroke-opacity:1"
         d="M 212.78489,18.911614 C 197.80918,17.509588 181.94209,17.128516 168.55764,18.829883 L 177.08594,86.682848 C 186.11453,86.251283 194.83362,86.089468 203.69251,87.354769 Z"
         transform="scale(0.79375002)"
         id="path12226"
         inkscape:label="freq_0"
         sodipodi:nodetypes="ccccc" />
      <path
         style="display:inline;fill:#c5e6f7;fill-opacity:1;stroke:#020607;stroke-width:0.982677;stroke-linecap:round;stroke-linejoin:round;stroke-miterlimit:4;stroke-dasharray:none;stroke-opacity:1"
         d="M 168.152,356.14418 C 183.22717,357.51848 197.57164,358.06808 212.4985,356.15271 L 203.55492,288.12814 C 194.15052,289.4558 184.54769,289.70137 175.80089,288.75107 Z"
         transform="scale(0.79375002)"
         id="path12228"
         inkscape:label="freq_n"
         sodipodi:nodetypes="ccccc" />
    </g>
    <g
       id="g12236"
       transform="rotate(60,149.14858,148.63707)">
      <path
         style="display:inline;fill:#f2f2a6;fill-opacity:1;stroke:#020607;stroke-width:0.944882;stroke-linecap:round;stroke-linejoin:round;stroke-miterlimit:4;stroke-dasharray:none;stroke-opacity:1"
         d="M 212.55968,19.235701 C 198.07024,17.270121 181.81999,16.015382 167.95289,18.527434 L 176.88471,86.991726 C 185.65873,86.507865 194.6925,86.170368 202.92458,87.393135 Z"
         transform="scale(0.79375002)"
         id="path12232"
         inkscape:label="freq_0"
         sodipodi:nodetypes="ccccc" />
      <path
         style="display:inline;fill:#c5e6f7;fill-opacity:1;stroke:#020607;stroke-width:0.982677;stroke-linecap:round;stroke-linejoin:round;stroke-miterlimit:4;stroke-dasharray:none;stroke-opacity:1"
         d="M 168.07798,356.47226 C 184.70361,357.21967 196.73323,357.44897 212.12304,355.82092 L 202.06868,288.7445 C 192.9959,289.61311 185.30435,290.73705 176.86221,289.81985 Z"
         transform="scale(0.79375002)"
         id="path12234"
         inkscape:label="freq_n"
         sodipodi:nodetypes="ccccc" />
    </g>
    <g
       id="g12242"
       transform="rotate(75,149.15033,148.97646)">
      <path
         style="display:inline;fill:#f7c5d4;fill-opacity:1;stroke:#020607;stroke-width:0.944882;stroke-linecap:round;stroke-linejoin:round;stroke-miterlimit:4;stroke-dasharray:none;stroke-opacity:1"
         d="M 211.66938,18.368362 C 198.05042,16.157737 181.67567,16.402452 167.82047,18.898574 L 176.15412,87.227348 C 185.75999,86.286947 194.03241,86.604455 202.34918,87.375204 Z"
         transform="scale(0.79375002)"
         id="path12238"
         inkscape:label="freq_0"
         sodipodi:nodetypes="ccccc" />
      <path
         style="display:inline;fill:#c5e6f7;fill-opacity:1;stroke:#020607;stroke-width:0.982677;stroke-linecap:round;stroke-linejoin:round;stroke-miterlimit:4;stroke-dasharray:none;stroke-opacity:1"
         d="M 167.18769,355.60492 C 183.12034,356.98488 197.25842,357.24812 212.13769,356.15679 L 203.37169,289.50198 C 193.66402,290.18692 184.45971,291.06629 175.91104,289.46908 Z"
         transform="scale(0.79375002)"
         id="path12240"
         inkscape:label="freq_n"
         sodipodi:nodetypes="ccccc" />
    </g>
    <g
       id="g12248"
       transform="rotate(90,149.15163,149.21587)">
      <path
         style="display:inline;fill:#f7c5d4;fill-opacity:1;stroke:#020607;stroke-width:0.944882;stroke-linecap:round;stroke-linejoin:round;stroke-miterlimit:4;stroke-dasharray:none;stroke-opacity:1"
         d="M 211.13628,18.301393 C 195.93922,16.430529 180.89608,16.476707 166.73683,18.290571 L 175.59449,87.358307 C 184.7444,86.290783 193.99998,86.426428 202.39215,87.391193 Z"
         transform="scale(0.79375002)"
         id="path12244"
         inkscape:label="freq_0"
         sodipodi:nodetypes="ccccc" />
      <path
         style="display:inline;fill:#c5e6f7;fill-opacity:1;stroke:#020607;stroke-width:0.982677;stroke-linecap:round;stroke-linejoin:round;stroke-miterlimit:4;stroke-dasharray:none;stroke-opacity:1"
         d="M 166.6546,355.53795 C 184.78499,357.20115 194.83951,356.89569 211.05405,355.54878 L 202.36295,289.4087 C 193.0304,290.38022 184.02432,290.28584 175.37795,289.40212 Z"
         transform="scale(0.79375002)"
         id="path12246"
         inkscape:label="freq_n"
         sodipodi:nodetypes="ccccc" />
    </g>
    <g
       id="g12254"
       transform="rotate(105,149.15069,149.39916)">
      <path
         style="display:inline;fill:#f7c5d4;fill-opacity:1;stroke:#020607;stroke-width:0.944882;stroke-linecap:round;stroke-linejoin:round;stroke-miterlimit:4;stroke-dasharray:none;stroke-opacity:1"
         d="M 210.60145,18.371673 C 196.83402,17.076992 179.26769,16.817514 166.20199,18.360843 L 175.63756,87.359614 C 184.61006,85.792788 193.48001,86.193957 201.49209,87.433965 Z"
         transform="scale(0.79375002)"
         id="path12250"
         inkscape:label="freq_0"
         sodipodi:nodetypes="ccccc" />
      <path
         style="display:inline;fill:#c5e6f7;fill-opacity:1;stroke:#020607;stroke-width:0.982677;stroke-linecap:round;stroke-linejoin:round;stroke-miterlimit:4;stroke-dasharray:none;stroke-opacity:1"
         d="M 166.11976,355.60823 C 182.87285,357.02427 196.35315,357.42022 210.51922,355.61905 L 201.82813,289.47897 C 192.80817,290.26796 184.3462,290.5881 174.84312,289.47239 Z"
         transform="scale(0.79375002)"
         id="path12252"
         inkscape:label="freq_n"
         sodipodi:nodetypes="ccccc" />
    </g>
    <g
       id="g12260"
       transform="rotate(120,149.14958,149.55016)">
      <path
         style="display:inline;fill:#f7c5d4;fill-opacity:1;stroke:#020607;stroke-width:0.944882;stroke-linecap:round;stroke-linejoin:round;stroke-miterlimit:4;stroke-dasharray:none;stroke-opacity:1"
         d="M 210.10093,18.580148 C 194.87721,17.170289 180.4412,17.247055 165.70146,18.569319 L 174.77713,87.636047 C 184.73629,86.726169 192.99887,86.876363 200.99156,87.642443 Z"
         transform="scale(0.79375002)"
         id="path12256"
         inkscape:label="freq_0"
         sodipodi:nodetypes="ccccc" />
      <path
         style="display:inline;fill:#c5e6f7;fill-opacity:1;stroke:#020607;stroke-width:0.982677;stroke-linecap:round;stroke-linejoin:round;stroke-miterlimit:4;stroke-dasharray:none;stroke-opacity:1"
         d="M 165.61923,355.8167 C 180.99318,357.47726 196.33651,357.6985 210.01869,355.82753 L 201.32759,289.68744 C 192.79159,290.45519 183.391,290.57384 174.34258,289.68086 Z"
         transform="scale(0.79375002)"
         id="path12258"
         inkscape:label="freq_n"
         sodipodi:nodetypes="ccccc" />
    </g>
    <g
       id="g12266"
       transform="rotate(135,149.28534,149.61289)">
      <path
         style="display:inline;fill:#f7c5d4;fill-opacity:1;stroke:#020607;stroke-width:0.944882;stroke-linecap:round;stroke-linejoin:round;stroke-miterlimit:4;stroke-dasharray:none;stroke-opacity:1"
         d="M 210.02506,18.888893 C 193.96554,17.540576 179.78666,17.58651 165.62561,18.878066 L 174.70127,87.944799 C 185.42864,86.013913 192.47948,87.981795 200.9157,87.951187 Z"
         transform="scale(0.79375002)"
         id="path12262"
         inkscape:label="freq_0"
         sodipodi:nodetypes="ccccc" />
      <path
         style="display:inline;fill:#c5e6f7;fill-opacity:1;stroke:#020607;stroke-width:0.982677;stroke-linecap:round;stroke-linejoin:round;stroke-miterlimit:4;stroke-dasharray:none;stroke-opacity:1"
         d="M 165.54337,356.12544 C 181.7559,357.97345 196.86395,358.17695 209.94283,356.13627 L 201.25172,289.99619 C 191.79956,291.06932 182.82777,291.05538 174.26672,289.98961 Z"
         transform="scale(0.79375002)"
         id="path12264"
         inkscape:label="freq_n"
         sodipodi:nodetypes="ccccc" />
    </g>
    <g
       id="g12272"
       transform="rotate(150,149.19725,149.54256)">
      <path
         style="display:inline;fill:#f7c5d4;fill-opacity:1;stroke:#020607;stroke-width:0.944882;stroke-linecap:round;stroke-linejoin:round;stroke-miterlimit:4;stroke-dasharray:none;stroke-opacity:1"
         d="M 209.61818,18.77703 C 194.39272,17.139406 180.13104,16.88528 165.21872,18.766207 L 174.29439,87.832934 C 185.13317,87.189032 192.50424,87.284972 200.50882,87.83933 Z"
         transform="scale(0.79375002)"
         id="path12268"
         inkscape:label="freq_0"
         sodipodi:nodetypes="ccccc" />
      <path
         style="display:inline;fill:#c5e6f7;fill-opacity:1;stroke:#020607;stroke-width:0.982677;stroke-linecap:round;stroke-linejoin:round;stroke-miterlimit:4;stroke-dasharray:none;stroke-opacity:1"
         d="M 165.13649,356.01358 C 180.30714,357.69762 196.14978,357.8462 209.53595,356.0244 L 200.84485,289.88433 C 192.97479,291.0363 182.78823,291.77035 173.85984,289.87775 Z"
         transform="scale(0.79375002)"
         id="path12270"
         inkscape:label="freq_n"
         sodipodi:nodetypes="ccccc" />
    </g>
    <g
       id="g12278"
       transform="rotate(165,149.43766,149.41651)">
      <path
         style="display:inline;fill:#f7c5d4;fill-opacity:1;stroke:#020607;stroke-width:0.944882;stroke-linecap:round;stroke-linejoin:round;stroke-miterlimit:4;stroke-dasharray:none;stroke-opacity:1"
         d="M 210.01469,18.729575 C 194.20123,17.353785 179.95029,17.005358 165.61523,18.718745 L 174.6909,87.785479 C 183.84081,86.717955 192.52145,86.688518 200.99737,87.947504 Z"
         transform="scale(0.79375002)"
         id="path12274"
         inkscape:label="freq_0"
         sodipodi:nodetypes="ccccc" />
      <path
         style="display:inline;fill:#c5e6f7;fill-opacity:1;stroke:#020607;stroke-width:0.982677;stroke-linecap:round;stroke-linejoin:round;stroke-miterlimit:4;stroke-dasharray:none;stroke-opacity:1"
         d="M 165.53299,355.96612 C 180.73371,357.84782 195.76639,357.77811 209.93246,355.97695 L 201.24136,289.83687 C 192.5171,291.29102 183.71467,291.43106 174.25734,289.99271 Z"
         transform="scale(0.79375002)"
         id="path12276"
         inkscape:label="freq_n"
         sodipodi:nodetypes="ccccc" />
    </g>
    <g
       id="g8832"
       transform="rotate(-7.4860289,150,150)"
       inkscape:label="freqdiv"
       sodipodi:insensitive="true"
       style="display:none">
      <path
         id="path7408"
         style="fill:none;stroke:#000000;stroke-width:1.5;stroke-linecap:butt;stroke-linejoin:miter;stroke-miterlimit:4;stroke-dasharray:none;stroke-opacity:1"
         d="M 229.70701,150 H 285.00001 M 15,150 H 67.950002" />
      <path
         id="path8320"
         style="fill:none;stroke:#000000;stroke-width:1.5;stroke-linecap:butt;stroke-linejoin:miter;stroke-miterlimit:4;stroke-dasharray:none;stroke-opacity:1"
         d="M 226.99106,170.62969 L 280.4,184.94057 M 19.600014,115.05943 L 70.745788,128.7639" />
      <path
         id="path8322"
         style="fill:none;stroke:#000000;stroke-width:1.5;stroke-linecap:butt;stroke-linejoin:miter;stroke-miterlimit:4;stroke-dasharray:none;stroke-opacity:1"
         d="M 219.0283,189.8535 L 266.91344,217.5 M 33.086571,82.499997 L 78.942618,108.975" />
      <path
         id="path8324"
         style="fill:none;stroke:#000000;stroke-width:1.5;stroke-linecap:butt;stroke-linejoin:miter;stroke-miterlimit:4;stroke-dasharray:none;stroke-opacity:1"
         d="M 206.36137,206.36136 L 245.45942,245.45942 M 54.540586,54.540581 L 91.981891,91.981886" />
      <path
         id="path8326"
         style="fill:none;stroke:#000000;stroke-width:1.5;stroke-linecap:butt;stroke-linejoin:miter;stroke-miterlimit:4;stroke-dasharray:none;stroke-opacity:1"
         d="M 189.85351,219.02829 L 217.50001,266.91343 M 82.500002,33.086566 L 108.975,78.942613" />
      <path
         id="path8328"
         style="fill:none;stroke:#000000;stroke-width:1.5;stroke-linecap:butt;stroke-linejoin:miter;stroke-miterlimit:4;stroke-dasharray:none;stroke-opacity:1"
         d="M 170.6297,226.99105 L 184.94058,280.39999 M 115.05943,19.600009 L 128.7639,70.745783" />
      <path
         id="path8330"
         style="fill:none;stroke:#000000;stroke-width:1.5;stroke-linecap:butt;stroke-linejoin:miter;stroke-miterlimit:4;stroke-dasharray:none;stroke-opacity:1"
         d="M 150.00001,229.707 V 285 M 150.00001,14.999995 V 67.949997" />
      <path
         id="path8343"
         style="fill:none;stroke:#000000;stroke-width:1.5;stroke-linecap:butt;stroke-linejoin:miter;stroke-miterlimit:4;stroke-dasharray:none;stroke-opacity:1"
         d="M 70.774446,171.61313 L 19.231386,185.42997 M 280.03138,115.54883 L 228.8856,129.2533"
         sodipodi:nodetypes="cccc" />
      <path
         id="path8345"
         style="fill:none;stroke:#000000;stroke-width:1.5;stroke-linecap:butt;stroke-linejoin:miter;stroke-miterlimit:4;stroke-dasharray:none;stroke-opacity:1"
         d="M 78.658988,190.98092 L 32.244716,218.02798 M 266.07159,83.027977 L 220.21554,109.50298"
         sodipodi:nodetypes="cccc" />
      <path
         id="path8347"
         style="fill:none;stroke:#000000;stroke-width:1.5;stroke-linecap:butt;stroke-linejoin:miter;stroke-miterlimit:4;stroke-dasharray:none;stroke-opacity:1"
         d="M 93.031386,206.94209 L 53.933336,246.04015 M 244.85217,55.121307 L 207.41087,92.562612" />
      <path
         id="path8349"
         style="fill:none;stroke:#000000;stroke-width:1.5;stroke-linecap:butt;stroke-linejoin:miter;stroke-miterlimit:4;stroke-dasharray:none;stroke-opacity:1"
         d="M 109.8036,219.43068 L 82.157101,267.31582 M 217.15711,33.48896 L 190.68211,79.345007" />
      <path
         id="path8351"
         style="fill:none;stroke:#000000;stroke-width:1.5;stroke-linecap:butt;stroke-linejoin:miter;stroke-miterlimit:4;stroke-dasharray:none;stroke-opacity:1"
         d="M 129.37031,226.99105 L 115.05943,280.39999 M 184.94058,19.600009 L 171.23611,70.745783" />
    </g>
    <path
       id="circle2026"
       style="display:inline;fill:none;fill-opacity:1;stroke:#020607;stroke-width:1.88976;stroke-linecap:round;stroke-linejoin:round"
       d="M 188.97656,18.898438 C 95.045148,18.89844 18.89844,95.044969 18.898438,188.97638 C 18.898436,282.90779 95.045145,359.05469 188.97656,359.05469 C 282.90798,359.05469 359.05469,282.9078 359.05469,188.97638 C 359.05469,95.044963 282.90797,18.898436 188.97656,18.898438 Z M 187.5,85.605469 C 243.77483,85.605469 289.39453,132.70155 289.39453,188.97638 C 289.39453,245.2512 243.77482,289.39453 187.5,289.39453 C 131.22517,289.39453 85.605469,245.25121 85.605469,188.97638 C 85.605469,132.70155 131.22517,85.605469 187.5,85.605469 Z"
       sodipodi:nodetypes="ssssssssss"
       transform="scale(0.79375002)"
       sodipodi:insensitive="true" />
    <g
       id="g71794"
       transform="translate(-0.80772002,-63.168986)">
      <g
         aria-label="ω0"
         transform="scale(0.79375002)"
         id="text42685"
         style="font-size:18.6667px;line-height:1.25;font-family:'Liberation Sans';-inkscape-font-specification:'Liberation Sans';white-space:pre;shape-inside:url(#rect42687)">
        <path
           d="M 188.06186,132.44236 Q 188.06186,133.87335 188.5814,134.66632 Q 189.10093,135.45018 190.03062,135.45018 Q 191.06968,135.45018 191.5801,134.60252 Q 192.09963,133.75486 192.09963,131.86814 Q 192.09963,130.18194 191.49807,129.0973 Q 190.8965,128.00355 189.78452,127.74834 L 189.99416,126.48141 Q 191.17906,126.67282 192.03583,127.4111 Q 192.90172,128.14027 193.35745,129.29782 Q 193.82229,130.44626 193.82229,131.82257 Q 193.82229,134.15591 192.87437,135.44106 Q 191.93557,136.71711 190.20379,136.71711 Q 189.05535,136.71711 188.3353,136.13377 Q 187.62436,135.54132 187.31447,134.28351 H 187.27801 Q 186.96811,135.54132 186.24806,136.13377 Q 185.53712,136.71711 184.38868,136.71711 Q 182.65691,136.71711 181.70899,135.44106 Q 180.77018,134.15591 180.77018,131.82257 Q 180.77018,129.68975 181.80013,128.23142 Q 182.83008,126.77308 184.59832,126.48141 L 184.80795,127.74834 Q 183.72331,127.98532 183.10352,129.06084 Q 182.49284,130.12725 182.49284,131.86814 Q 182.49284,133.74575 182.99415,134.60252 Q 183.50456,135.45018 184.54363,135.45018 Q 185.47332,135.45018 186.01108,134.66632 Q 186.54884,133.87335 186.54884,132.44236 V 130.14548 H 188.06186 Z"
           style="font-size:18.6667px;line-height:1.25;font-family:'Liberation Sans';-inkscape-font-specification:'Liberation Sans';white-space:pre;shape-inside:url(#rect42687)"
           id="path71631" />
        <path
           d="M 200.55585,134.44869 Q 200.55585,136.60502 199.79228,137.74121 Q 199.03482,138.8774 197.55045,138.8774 Q 196.06607,138.8774 195.32082,137.74732 Q 194.57558,136.61723 194.57558,134.44869 Q 194.57558,132.23129 195.29639,131.12564 Q 196.02331,130.01999 197.58709,130.01999 Q 199.10813,130.01999 199.82893,131.13786 Q 200.55585,132.25572 200.55585,134.44869 Z M 199.43799,134.44869 Q 199.43799,132.58558 199.00428,131.74871 Q 198.57668,130.91184 197.58709,130.91184 Q 196.57307,130.91184 196.12715,131.73649 Q 195.68733,132.56115 195.68733,134.44869 Q 195.68733,136.28126 196.13326,137.13035 Q 196.58529,137.97944 197.56266,137.97944 Q 198.53392,137.97944 198.98596,137.11203 Q 199.43799,136.24461 199.43799,134.44869 Z"
           style="font-size:18.6667px;line-height:1.25;font-family:'Liberation Sans';-inkscape-font-specification:'Liberation Sans';white-space:pre;shape-inside:url(#rect42687);stroke-width:0.999998"
           id="path71633" />
      </g>
    </g>
    <g
       aria-label="ωn"
       transform="scale(0.79375002)"
       id="text76042"
       style="font-size:40px;line-height:1.25;font-family:'Liberation Sans';-inkscape-font-specification:'Liberation Sans';white-space:pre;shape-inside:url(#rect76044)">
      <g
         id="g92457"
         transform="matrix(0.50747464,0,0,0.50747464,100.18299,231.8624)"
         style="stroke-width:1.97054">
        <path
           d="M 173.51758,181.7919 Q 173.51758,184.8583 174.63086,186.55752 Q 175.74414,188.23721 177.73633,188.23721 Q 179.96289,188.23721 181.05664,186.4208 Q 182.16992,184.6044 182.16992,180.56143 Q 182.16992,176.94815 180.88086,174.62393 Q 179.5918,172.28018 177.20898,171.7333 L 177.6582,169.01846 Q 180.19727,169.42861 182.0332,171.01065 Q 183.88867,172.57315 184.86523,175.05361 Q 185.86133,177.51455 185.86133,180.46377 Q 185.86133,185.46377 183.83008,188.21768 Q 181.81836,190.95205 178.10742,190.95205 Q 175.64648,190.95205 174.10352,189.70205 Q 172.58008,188.43252 171.91602,185.73721 H 171.83789 Q 171.17383,188.43252 169.63086,189.70205 Q 168.10742,190.95205 165.64648,190.95205 Q 161.93555,190.95205 159.9043,188.21768 Q 157.89258,185.46377 157.89258,180.46377 Q 157.89258,175.89346 160.09961,172.76846 Q 162.30664,169.64346 166.0957,169.01846 L 166.54492,171.7333 Q 164.2207,172.24111 162.89258,174.5458 Q 161.58398,176.83096 161.58398,180.56143 Q 161.58398,184.58486 162.6582,186.4208 Q 163.75195,188.23721 165.97852,188.23721 Q 167.9707,188.23721 169.12305,186.55752 Q 170.27539,184.8583 170.27539,181.7919 V 176.87002 H 173.51758 Z"
           style="font-size:40px;line-height:1.25;font-family:'Liberation Sans';-inkscape-font-specification:'Liberation Sans';white-space:pre;shape-inside:url(#rect76044);stroke-width:1.97054"
           id="path89268" />
        <path
           d="M 197.1974,193.53776 V 184.56045 Q 197.1974,183.16021 196.92259,182.3881 Q 196.64777,181.616 196.0458,181.27576 Q 195.44382,180.93551 194.27913,180.93551 Q 192.57789,180.93551 191.59641,182.1002 Q 190.61492,183.2649 190.61492,185.33255 V 193.53776 H 188.25936 V 182.40119 Q 188.25936,179.92785 188.18084,179.37822 H 190.40554 Q 190.41863,179.44365 190.43171,179.73156 Q 190.4448,180.01946 190.45788,180.39896 Q 190.48406,180.76539 190.51023,181.79922 H 190.54949 Q 191.36085,180.33353 192.42085,179.73156 Q 193.49394,179.11649 195.0774,179.11649 Q 197.40679,179.11649 198.47988,180.28118 Q 199.56605,181.43279 199.56605,184.10243 V 193.53776 Z"
           style="font-size:40px;line-height:1.25;font-family:'Liberation Sans';-inkscape-font-specification:'Liberation Sans';white-space:pre;shape-inside:url(#rect76044);stroke-width:1.97054"
           id="path89270" />
      </g>
    </g>
    <g
       aria-label="⇩"
       transform="matrix(0.79375002,0,0,0.79375002,0,-1.5875)"
       id="text126870"
       style="font-size:40px;line-height:1.25;font-family:'Noto Sans Symbols2';-inkscape-font-specification:'Noto Sans Symbols2';white-space:pre;shape-inside:url(#rect126872)">
      <path
         d="M 188.88089,295.95107 L 177.68089,284.75107 H 183.80089 V 267.43107 H 193.96089 V 284.75107 H 200.08089 Z"
         style="font-size:40px;line-height:1.25;font-family:'Noto Sans Symbols2';-inkscape-font-specification:'Noto Sans Symbols2';white-space:pre;shape-inside:url(#rect126872);fill:#71dc7b;fill-opacity:1;stroke:#020607;stroke-width:0.755906;stroke-miterlimit:4;stroke-dasharray:none;stroke-opacity:1"
         id="path143574"
         sodipodi:nodetypes="cccccccc" />
    </g>
    <g
       aria-label="zero frequency"
       transform="matrix(0.55735693,0,0,0.55735693,38.891126,22.248863)"
       id="text150750"
       style="font-size:16px;line-height:1.25;font-family:'Liberation Sans';-inkscape-font-specification:'Liberation Sans';white-space:pre;shape-inside:url(#rect150752);stroke-width:1.42413">
      <path
         d="M 146.52539,132.25387 V 131.18356 L 151.25195,124.88668 H 146.79102 V 123.80074 H 152.91602 V 124.87106 L 148.18164,131.16793 H 153.08008 V 132.25387 Z"
         id="path156878"
         style="stroke-width:1.42413" />
      <path
         d="M 156.0332,128.32418 Q 156.0332,129.77731 156.63477,130.56637 Q 157.23633,131.35543 158.39258,131.35543 Q 159.30664,131.35543 159.85352,130.98824 Q 160.4082,130.62106 160.60352,130.05856 L 161.83789,130.41012 Q 161.08008,132.41012 158.39258,132.41012 Q 156.51758,132.41012 155.5332,131.29293 Q 154.55664,130.17574 154.55664,127.97262 Q 154.55664,125.87887 155.5332,124.76168 Q 156.51758,123.64449 158.33789,123.64449 Q 162.06445,123.64449 162.06445,128.13668 V 128.32418 Z M 160.61133,127.24606 Q 160.49414,125.91012 159.93164,125.30074 Q 159.36914,124.68356 158.31445,124.68356 Q 157.29102,124.68356 156.68945,125.37106 Q 156.0957,126.05074 156.04883,127.24606 Z"
         id="path156880"
         style="stroke-width:1.42413" />
      <path
         d="M 163.88477,132.25387 V 125.76949 Q 163.88477,124.87887 163.83789,123.80074 H 165.16602 Q 165.22852,125.23824 165.22852,125.52731 H 165.25977 Q 165.5957,124.44137 166.0332,124.04293 Q 166.4707,123.64449 167.26758,123.64449 Q 167.54883,123.64449 167.83789,123.72262 V 125.01168 Q 167.55664,124.93356 167.08789,124.93356 Q 166.21289,124.93356 165.75195,125.69137 Q 165.29102,126.44137 165.29102,127.84762 V 132.25387 Z"
         id="path156882"
         style="stroke-width:1.42413" />
      <path
         d="M 176.33008,128.01949 Q 176.33008,130.23824 175.35352,131.32418 Q 174.37695,132.41012 172.51758,132.41012 Q 170.66602,132.41012 169.7207,131.28512 Q 168.77539,130.15231 168.77539,128.01949 Q 168.77539,123.64449 172.56445,123.64449 Q 174.50195,123.64449 175.41602,124.71481 Q 176.33008,125.77731 176.33008,128.01949 Z M 174.85352,128.01949 Q 174.85352,126.26949 174.33008,125.48043 Q 173.81445,124.68356 172.58789,124.68356 Q 171.35352,124.68356 170.79883,125.49606 Q 170.25195,126.30074 170.25195,128.01949 Q 170.25195,129.69137 170.79102,130.53512 Q 171.33789,131.37106 172.50195,131.37106 Q 173.76758,131.37106 174.30664,130.55856 Q 174.85352,129.74606 174.85352,128.01949 Z"
         id="path156884"
         style="stroke-width:1.42413" />
      <path
         d="M 184.26758,124.82418 V 132.25387 H 182.86133 V 124.82418 H 181.67383 V 123.80074 H 182.86133 V 122.84762 Q 182.86133,121.69137 183.36914,121.18356 Q 183.87695,120.67574 184.92383,120.67574 Q 185.50977,120.67574 185.91602,120.76949 V 121.83981 Q 185.56445,121.77731 185.29102,121.77731 Q 184.75195,121.77731 184.50977,122.05074 Q 184.26758,122.32418 184.26758,123.04293 V 123.80074 H 185.91602 V 124.82418 Z"
         id="path156886"
         style="stroke-width:1.42413" />
      <path
         d="M 187.00195,132.25387 V 125.76949 Q 187.00195,124.87887 186.95508,123.80074 H 188.2832 Q 188.3457,125.23824 188.3457,125.52731 H 188.37695 Q 188.71289,124.44137 189.15039,124.04293 Q 189.58789,123.64449 190.38477,123.64449 Q 190.66602,123.64449 190.95508,123.72262 V 125.01168 Q 190.67383,124.93356 190.20508,124.93356 Q 189.33008,124.93356 188.86914,125.69137 Q 188.4082,126.44137 188.4082,127.84762 V 132.25387 Z"
         id="path156888"
         style="stroke-width:1.42413" />
      <path
         d="M 193.37695,128.32418 Q 193.37695,129.77731 193.97852,130.56637 Q 194.58008,131.35543 195.73633,131.35543 Q 196.65039,131.35543 197.19727,130.98824 Q 197.75195,130.62106 197.94727,130.05856 L 199.18164,130.41012 Q 198.42383,132.41012 195.73633,132.41012 Q 193.86133,132.41012 192.87695,131.29293 Q 191.90039,130.17574 191.90039,127.97262 Q 191.90039,125.87887 192.87695,124.76168 Q 193.86133,123.64449 195.68164,123.64449 Q 199.4082,123.64449 199.4082,128.13668 V 128.32418 Z M 197.95508,127.24606 Q 197.83789,125.91012 197.27539,125.30074 Q 196.71289,124.68356 195.6582,124.68356 Q 194.63477,124.68356 194.0332,125.37106 Q 193.43945,126.05074 193.39258,127.24606 Z"
         id="path156890"
         style="stroke-width:1.42413" />
      <path
         d="M 203.90039,132.41012 Q 202.29102,132.41012 201.54102,131.32418 Q 200.79102,130.23824 200.79102,128.06637 Q 200.79102,123.64449 203.90039,123.64449 Q 204.86133,123.64449 205.48633,123.98824 Q 206.11133,124.32418 206.5332,125.11324 H 206.54883 Q 206.54883,124.87887 206.58008,124.30856 Q 206.61133,123.73043 206.64258,123.69137 H 207.99414 Q 207.93945,124.15231 207.93945,125.99606 V 135.57418 H 206.5332 V 132.14449 L 206.56445,130.86324 H 206.54883 Q 206.12695,131.69918 205.50977,132.05856 Q 204.89258,132.41012 203.90039,132.41012 Z M 206.5332,127.92574 Q 206.5332,126.27731 205.99414,125.48043 Q 205.45508,124.68356 204.27539,124.68356 Q 203.20508,124.68356 202.73633,125.48043 Q 202.26758,126.27731 202.26758,128.01949 Q 202.26758,129.79293 202.73633,130.55856 Q 203.21289,131.32418 204.25977,131.32418 Q 205.45508,131.32418 205.99414,130.47262 Q 206.5332,129.62106 206.5332,127.92574 Z"
         id="path156892"
         style="stroke-width:1.42413" />
      <path
         d="M 211.4707,123.80074 V 129.16012 Q 211.4707,129.99606 211.63477,130.45699 Q 211.79883,130.91793 212.1582,131.12106 Q 212.51758,131.32418 213.21289,131.32418 Q 214.22852,131.32418 214.81445,130.62887 Q 215.40039,129.93356 215.40039,128.69918 V 123.80074 H 216.80664 V 130.44918 Q 216.80664,131.92574 216.85352,132.25387 H 215.52539 Q 215.51758,132.21481 215.50977,132.04293 Q 215.50195,131.87106 215.48633,131.65231 Q 215.47852,131.42574 215.46289,130.80856 H 215.43945 Q 214.95508,131.68356 214.31445,132.05074 Q 213.68164,132.41012 212.73633,132.41012 Q 211.3457,132.41012 210.69727,131.72262 Q 210.05664,131.02731 210.05664,129.43356 V 123.80074 Z"
         id="path156894"
         style="stroke-width:1.42413" />
      <path
         d="M 220.07227,128.32418 Q 220.07227,129.77731 220.67383,130.56637 Q 221.27539,131.35543 222.43164,131.35543 Q 223.3457,131.35543 223.89258,130.98824 Q 224.44727,130.62106 224.64258,130.05856 L 225.87695,130.41012 Q 225.11914,132.41012 222.43164,132.41012 Q 220.55664,132.41012 219.57227,131.29293 Q 218.5957,130.17574 218.5957,127.97262 Q 218.5957,125.87887 219.57227,124.76168 Q 220.55664,123.64449 222.37695,123.64449 Q 226.10352,123.64449 226.10352,128.13668 V 128.32418 Z M 224.65039,127.24606 Q 224.5332,125.91012 223.9707,125.30074 Q 223.4082,124.68356 222.35352,124.68356 Q 221.33008,124.68356 220.72852,125.37106 Q 220.13477,126.05074 220.08789,127.24606 Z"
         id="path156896"
         style="stroke-width:1.42413" />
      <path
         d="M 233.25977,132.25387 V 126.89449 Q 233.25977,126.05856 233.0957,125.59762 Q 232.93164,125.13668 232.57227,124.93356 Q 232.21289,124.73043 231.51758,124.73043 Q 230.50195,124.73043 229.91602,125.42574 Q 229.33008,126.12106 229.33008,127.35543 V 132.25387 H 227.92383 V 125.60543 Q 227.92383,124.12887 227.87695,123.80074 H 229.20508 Q 229.21289,123.83981 229.2207,124.01168 Q 229.22852,124.18356 229.23633,124.41012 Q 229.25195,124.62887 229.26758,125.24606 H 229.29102 Q 229.77539,124.37106 230.4082,124.01168 Q 231.04883,123.64449 231.99414,123.64449 Q 233.38477,123.64449 234.02539,124.33981 Q 234.67383,125.02731 234.67383,126.62106 V 132.25387 Z"
         id="path156898"
         style="stroke-width:1.42413" />
      <path
         d="M 237.86133,127.98824 Q 237.86133,129.67574 238.39258,130.48824 Q 238.92383,131.30074 239.99414,131.30074 Q 240.74414,131.30074 241.24414,130.89449 Q 241.75195,130.48824 241.86914,129.64449 L 243.29102,129.73824 Q 243.12695,130.95699 242.25195,131.68356 Q 241.37695,132.41012 240.0332,132.41012 Q 238.25977,132.41012 237.32227,131.29293 Q 236.39258,130.16793 236.39258,128.01949 Q 236.39258,125.88668 237.33008,124.76949 Q 238.26758,123.64449 240.01758,123.64449 Q 241.31445,123.64449 242.16602,124.31637 Q 243.02539,124.98824 243.24414,126.16793 L 241.79883,126.27731 Q 241.68945,125.57418 241.24414,125.16012 Q 240.79883,124.74606 239.97852,124.74606 Q 238.86133,124.74606 238.36133,125.48824 Q 237.86133,126.23043 237.86133,127.98824 Z"
         id="path156900"
         style="stroke-width:1.42413" />
      <path
         d="M 245.20508,135.57418 Q 244.62695,135.57418 244.23633,135.48824 V 134.43356 Q 244.5332,134.48043 244.89258,134.48043 Q 246.20508,134.48043 246.9707,132.55074 L 247.10352,132.21481 L 243.75195,123.80074 H 245.25195 L 247.0332,128.47262 Q 247.07227,128.58199 247.12695,128.73824 Q 247.18164,128.88668 247.47852,129.75387 Q 247.77539,130.62106 247.79883,130.72262 L 248.3457,129.18356 L 250.19727,123.80074 H 251.68164 L 248.43164,132.25387 Q 247.9082,133.60543 247.45508,134.26168 Q 247.00195,134.92574 246.44727,135.24606 Q 245.90039,135.57418 245.20508,135.57418 Z"
         id="path156902"
         style="stroke-width:1.42413" />
    </g>
    <g
       aria-label="⇩"
       transform="matrix(-0.79375002,0,0,-0.79375002,299.84842,299.67135)"
       id="g157061"
       style="font-size:40px;line-height:1.25;font-family:'Noto Sans Symbols2';-inkscape-font-specification:'Noto Sans Symbols2';white-space:pre;shape-inside:url(#rect126872)">
      <path
         d="M 188.88089,295.95107 L 177.68089,284.75107 H 183.80089 V 267.43107 H 193.96089 V 284.75107 H 200.08089 Z"
         style="font-size:40px;line-height:1.25;font-family:'Noto Sans Symbols2';-inkscape-font-specification:'Noto Sans Symbols2';white-space:pre;shape-inside:url(#rect126872);fill:#71dc7b;fill-opacity:1;stroke:#020607;stroke-width:0.755906;stroke-miterlimit:4;stroke-dasharray:none;stroke-opacity:1"
         id="path157059"
         sodipodi:nodetypes="cccccccc" />
    </g>
    <g
       aria-label="4 8 -6 ⇨18"
       transform="matrix(0.39662524,0,0,0.39662524,54.545451,66.900239)"
       id="text174056"
       style="font-size:21.3333px;line-height:1.25;font-family:'Liberation Sans';-inkscape-font-specification:'Liberation Sans';white-space:pre;shape-inside:url(#rect174058);stroke-width:2.00126">
      <g
         style="fill:#000000;fill-opacity:1"
         id="g1202"
         transform="matrix(2.6683459,0,0,2.6683459,-606.12836,-941.8238)" />
      <g
         id="g28892"
         transform="matrix(1.200843,0,0,1.2016957,-47.266174,-14.104748)"
         style="stroke-width:1.66595">
        <rect
           style="font-size:21.3333px;line-height:1.25;font-family:'Liberation Sans';-inkscape-font-specification:'Liberation Sans';white-space:pre;shape-inside:url(#rect174058);display:inline;fill:#f2f2a6;fill-opacity:1;stroke:#020607;stroke-width:1.2593;stroke-linecap:round;stroke-linejoin:round"
           id="rect18050"
           width="150.90257"
           height="105.68875"
           x="183.52223"
           y="111.9029"
           transform="translate(21.672358,-2.0430088)" />
        <g
           id="g1355"
           inkscape:label="ordinate"
           transform="matrix(2.2220606,0,0,-2.2204838,-529.19466,1216.3517)">
          <g
             id="g1383"
             transform="matrix(1.5941657,0,0,1.5318911,-114.95099,-189.83861)"
             style="stroke-width:1.06606">
            <g
               id="g1385"
               clip-path="url(#clipPath1389)"
               style="stroke-width:1.06606">
              <g
                 id="g1391"
                 style="stroke-width:1.06606">
                <text
                   transform="matrix(1,0,0,-1,282.614,424.205)"
                   style="font-style:italic;font-variant:normal;font-size:11.991px;font-family:'Liberation Serif';-inkscape-font-specification:LiberationSerif-Italic;writing-mode:lr-tb;fill:#000000;fill-opacity:1;fill-rule:nonzero;stroke:none;stroke-width:1.06606"
                   id="text1395"><tspan
                     x="0"
                     y="0"
                     id="tspan1393"
                     style="stroke-width:1.06606">r</tspan></text>
              </g>
              <g
                 id="g1397"
                 style="stroke-width:1.06606">
                <text
                   transform="matrix(1,0,0,-1,288.113,421.427)"
                   style="font-style:italic;font-variant:normal;font-size:7.2px;font-family:'Liberation Serif';-inkscape-font-specification:LiberationSerif-Italic;writing-mode:lr-tb;fill:#000000;fill-opacity:1;fill-rule:nonzero;stroke:none;stroke-width:1.06606"
                   id="text1401"><tspan
                     x="0"
                     y="0"
                     id="tspan1399"
                     style="stroke-width:1.06606">k</tspan></text>
              </g>
              <g
                 id="g1403"
                 style="stroke-width:1.06606">
                <text
                   transform="matrix(0.96592805,0,-0.25881076,-0.96592805,293.187,424.205)"
                   style="font-variant:normal;font-weight:normal;font-size:12.414px;font-family:OpenSymbol;-inkscape-font-specification:OpenSymbol;writing-mode:lr-tb;fill:#000000;fill-opacity:1;fill-rule:nonzero;stroke:none;stroke-width:1.06606"
                   id="text1407"><tspan
                     x="0"
                     y="0"
                     id="tspan1405"
                     style="stroke-width:1.06606">ϵ</tspan></text>
              </g>
              <g
                 id="g1409"
                 style="stroke-width:1.06606">
                <text
                   transform="matrix(1,0,0,-1,298.687,435.118)"
                   style="font-style:italic;font-variant:normal;font-size:7.2px;font-family:'Liberation Serif';-inkscape-font-specification:LiberationSerif-Italic;writing-mode:lr-tb;fill:#000000;fill-opacity:1;fill-rule:nonzero;stroke:none;stroke-width:1.06606"
                   id="text1413"><tspan
                     x="0"
                     y="0"
                     id="tspan1411"
                     style="stroke-width:1.06606">i</tspan></text>
              </g>
              <g
                 id="g1415"
                 style="stroke-width:1.06606">
                <text
                   transform="matrix(1,0,0,-1,301.493,434.126)"
                   style="font-variant:normal;font-weight:normal;font-size:10.403px;font-family:OpenSymbol;-inkscape-font-specification:OpenSymbol;writing-mode:lr-tb;fill:#000000;fill-opacity:1;fill-rule:nonzero;stroke:none;stroke-width:1.06606"
                   id="text1419"><tspan
                     x="0"
                     y="0"
                     id="tspan1417"
                     style="stroke-width:1.06606">∑</tspan></text>
              </g>
              <g
                 id="g1421"
                 style="stroke-width:1.06606">
                <text
                   transform="matrix(1,0,0,-1,302.513,428.712)"
                   style="font-style:italic;font-variant:normal;font-size:4.309px;font-family:'Liberation Serif';-inkscape-font-specification:LiberationSerif-Italic;writing-mode:lr-tb;fill:#000000;fill-opacity:1;fill-rule:nonzero;stroke:none;stroke-width:1.06606"
                   id="text1425"><tspan
                     x="0"
                     y="0"
                     id="tspan1423"
                     style="stroke-width:1.06606">j</tspan></text>
              </g>
              <g
                 id="g1427"
                 style="stroke-width:1.06606">
                <text
                   transform="matrix(1,0,0,-1,303.902,428.712)"
                   style="font-variant:normal;font-weight:normal;font-size:4.309px;font-family:OpenSymbol;-inkscape-font-specification:OpenSymbol;writing-mode:lr-tb;fill:#000000;fill-opacity:1;fill-rule:nonzero;stroke:none;stroke-width:1.06606"
                   id="text1431"><tspan
                     x="0"
                     y="0"
                     id="tspan1429"
                     style="stroke-width:1.06606">=</tspan></text>
              </g>
              <g
                 id="g1433"
                 style="stroke-width:1.06606">
                <text
                   transform="matrix(1,0,0,-1,307.389,428.712)"
                   style="font-variant:normal;font-weight:normal;font-size:4.309px;font-family:'Liberation Serif';-inkscape-font-specification:LiberationSerif;writing-mode:lr-tb;fill:#000000;fill-opacity:1;fill-rule:nonzero;stroke:none;stroke-width:1.06606"
                   id="text1437"><tspan
                     x="0"
                     y="0"
                     id="tspan1435"
                     style="stroke-width:1.06606">1</tspan></text>
              </g>
              <g
                 id="g1439"
                 style="stroke-width:1.06606">
                <text
                   transform="matrix(1,0,0,-1,304.611,443.31)"
                   style="font-style:italic;font-variant:normal;font-size:4.309px;font-family:'Liberation Serif';-inkscape-font-specification:LiberationSerif-Italic;writing-mode:lr-tb;fill:#000000;fill-opacity:1;fill-rule:nonzero;stroke:none;stroke-width:1.06606"
                   id="text1443"><tspan
                     x="0"
                     y="0"
                     id="tspan1441"
                     style="stroke-width:1.06606">k</tspan></text>
              </g>
              <g
                 id="g1445"
                 style="stroke-width:1.06606">
                <text
                   transform="matrix(0.96592805,0,-0.25881076,-0.96592805,311.102,435.118)"
                   style="font-variant:normal;font-weight:normal;font-size:7.45397px;font-family:OpenSymbol;-inkscape-font-specification:OpenSymbol;writing-mode:lr-tb;fill:#000000;fill-opacity:1;fill-rule:nonzero;stroke:none;stroke-width:1.06606"
                   id="text1449"><tspan
                     x="0"
                     y="0"
                     id="tspan1447"
                     style="stroke-width:1.06606">θ</tspan></text>
              </g>
              <g
                 id="g1451"
                 style="stroke-width:1.06606">
                <text
                   transform="matrix(1,0,0,-1,315.609,433.417)"
                   style="font-style:italic;font-variant:normal;font-size:4.309px;font-family:'Liberation Serif';-inkscape-font-specification:LiberationSerif-Italic;writing-mode:lr-tb;fill:#000000;fill-opacity:1;fill-rule:nonzero;stroke:none;stroke-width:1.06606"
                   id="text1455"><tspan
                     x="0"
                     y="0"
                     id="tspan1453"
                     style="stroke-width:1.06606">j</tspan></text>
              </g>
            </g>
          </g>
        </g>
      </g>
      <g
         id="g1704"
         inkscape:label="abscissa"
         transform="matrix(2.6683459,0,0,-2.6683459,-682.74588,1447.5799)">
        <g
           id="g1732"
           transform="matrix(0.67478612,0,0,0.67478612,236.50649,224.68129)"
           style="stroke-width:2.96577">
          <g
             id="g1734"
             clip-path="url(#clipPath1738)"
             style="stroke-width:2.96577">
            <g
               id="g1740"
               style="stroke-width:2.96577">
              <text
                 transform="matrix(1,0,0,-1,285.591,428.031)"
                 style="font-variant:normal;font-weight:normal;font-size:17.49px;font-family:OpenSymbol;-inkscape-font-specification:OpenSymbol;writing-mode:lr-tb;fill:#000000;fill-opacity:1;fill-rule:nonzero;stroke:none;stroke-width:2.96577"
                 id="text1744"><tspan
                   x="0"
                   y="0"
                   id="tspan1742"
                   style="stroke-width:2.96577">∑</tspan></text>
            </g>
            <g
               id="g1746"
               style="stroke-width:2.96577">
              <text
                 transform="matrix(1,0,0,-1,287.206,419.017)"
                 style="font-style:italic;font-variant:normal;font-size:7.2px;font-family:LiberationSerif;-inkscape-font-specification:LiberationSerif-Italic;writing-mode:lr-tb;fill:#000000;fill-opacity:1;fill-rule:nonzero;stroke:none;stroke-width:2.96577"
                 id="text1750"><tspan
                   x="0"
                   y="0"
                   id="tspan1748"
                   style="stroke-width:2.96577">j</tspan></text>
            </g>
            <g
               id="g1752"
               style="stroke-width:2.96577">
              <text
                 transform="matrix(1,0,0,-1,289.587,419.017)"
                 style="font-variant:normal;font-weight:normal;font-size:7.2px;font-family:OpenSymbol;-inkscape-font-specification:OpenSymbol;writing-mode:lr-tb;fill:#000000;fill-opacity:1;fill-rule:nonzero;stroke:none;stroke-width:2.96577"
                 id="text1756"><tspan
                   x="0"
                   y="0"
                   id="tspan1754"
                   style="stroke-width:2.96577">=</tspan></text>
            </g>
            <g
               id="g1758"
               style="stroke-width:2.96577">
              <text
                 transform="matrix(1,0,0,-1,295.512,419.017)"
                 style="font-variant:normal;font-weight:normal;font-size:7.2px;font-family:LiberationSerif;-inkscape-font-specification:LiberationSerif;writing-mode:lr-tb;fill:#000000;fill-opacity:1;fill-rule:nonzero;stroke:none;stroke-width:2.96577"
                 id="text1762"><tspan
                   x="0"
                   y="0"
                   id="tspan1760"
                   style="stroke-width:2.96577">1</tspan></text>
            </g>
            <g
               id="g1764"
               style="stroke-width:2.96577">
              <text
                 transform="matrix(1,0,0,-1,290.806,443.31)"
                 style="font-style:italic;font-variant:normal;font-size:7.2px;font-family:LiberationSerif;-inkscape-font-specification:LiberationSerif-Italic;writing-mode:lr-tb;fill:#000000;fill-opacity:1;fill-rule:nonzero;stroke:none;stroke-width:2.96577"
                 id="text1768"><tspan
                   x="0"
                   y="0"
                   id="tspan1766"
                   style="stroke-width:2.96577">k</tspan></text>
            </g>
            <g
               id="g1770"
               style="stroke-width:2.96577">
              <text
                 transform="matrix(0.96592805,0,-0.25881076,-0.96592805,301.89,429.505)"
                 style="font-variant:normal;font-weight:normal;font-size:12.414px;font-family:OpenSymbol;-inkscape-font-specification:OpenSymbol;writing-mode:lr-tb;fill:#000000;fill-opacity:1;fill-rule:nonzero;stroke:none;stroke-width:2.96577"
                 id="text1774"><tspan
                   x="0"
                   y="0"
                   id="tspan1772"
                   style="stroke-width:2.96577">ω</tspan></text>
            </g>
            <g
               id="g1776"
               style="stroke-width:2.96577">
              <text
                 transform="matrix(1,0,0,-1,311.499,426.727)"
                 style="font-style:italic;font-variant:normal;font-size:7.2px;font-family:LiberationSerif;-inkscape-font-specification:LiberationSerif-Italic;writing-mode:lr-tb;fill:#000000;fill-opacity:1;fill-rule:nonzero;stroke:none;stroke-width:2.96577"
                 id="text1780"><tspan
                   x="0"
                   y="0"
                   id="tspan1778"
                   style="stroke-width:2.96577">j</tspan></text>
            </g>
          </g>
        </g>
      </g>
    </g>
    <g
       aria-label="⇩"
       transform="matrix(-0.35265843,-0.71110556,0.71110556,-0.35265843,78.733518,346.2909)"
       id="g210198"
       style="font-size:40px;line-height:1.25;font-family:'Noto Sans Symbols2';-inkscape-font-specification:'Noto Sans Symbols2';white-space:pre;shape-inside:url(#rect126872)">
      <path
         d="M 188.88089,295.95107 L 177.68089,284.75107 H 183.80089 V 267.43107 H 193.96089 V 284.75107 H 200.08089 Z"
         style="font-size:40px;line-height:1.25;font-family:'Noto Sans Symbols2';-inkscape-font-specification:'Noto Sans Symbols2';white-space:pre;shape-inside:url(#rect126872);fill:#71dc7b;fill-opacity:1;stroke:#020607;stroke-width:0.755906;stroke-miterlimit:4;stroke-dasharray:none;stroke-opacity:1"
         id="path210196"
         sodipodi:nodetypes="cccccccc" />
    </g>
    <g
       aria-label="Nyquist Sampling Rate"
       transform="matrix(0.79375001,0,0,0.79375001,5.6858475,20.998491)"
       id="text5831"
       style="font-size:10.6667px;line-height:1.25;font-family:'Liberation Sans';-inkscape-font-specification:'Liberation Sans';white-space:pre;shape-inside:url(#rect5833)"
       inkscape:label="nyquist_sampling_rate">
      <path
         d="M 132.90497,233.27409 L 128.97787,227.02407 L 129.00391,227.52928 L 129.02995,228.39908 V 233.27409 H 128.14453 V 225.93553 H 129.30079 L 133.26955,232.22721 Q 133.20705,231.20638 133.20705,230.74804 V 225.93553 H 134.10289 V 233.27409 Z"
         style="font-size:10.6667px;line-height:1.25;font-family:'Liberation Sans';-inkscape-font-specification:'Liberation Sans';white-space:pre;shape-inside:url(#rect5833)"
         id="path10857" />
      <path
         d="M 135.96748,235.48764 Q 135.58206,235.48764 135.32164,235.43035 V 234.72722 Q 135.51956,234.75847 135.75914,234.75847 Q 136.63414,234.75847 137.14456,233.47201 L 137.2331,233.24805 L 134.99872,227.63866 H 135.99873 L 137.18623,230.75325 Q 137.21227,230.82617 137.24873,230.93034 Q 137.28519,231.02929 137.48311,231.60742 Q 137.68102,232.18555 137.69665,232.25326 L 138.06123,231.22721 L 139.29561,227.63866 H 140.2852 L 138.11852,233.27409 Q 137.76956,234.17514 137.46748,234.61264 Q 137.1654,235.05535 136.7956,235.26889 Q 136.43102,235.48764 135.96748,235.48764 Z"
         style="font-size:10.6667px;line-height:1.25;font-family:'Liberation Sans';-inkscape-font-specification:'Liberation Sans';white-space:pre;shape-inside:url(#rect5833)"
         id="path10859" />
      <path
         d="M 142.82687,233.37826 Q 141.75395,233.37826 141.25395,232.6543 Q 140.75395,231.93034 140.75395,230.48242 Q 140.75395,227.53449 142.82687,227.53449 Q 143.4675,227.53449 143.88417,227.76366 Q 144.30083,227.98762 144.58209,228.51366 H 144.5925 Q 144.5925,228.35741 144.61334,227.9772 Q 144.63417,227.59178 144.655,227.56574 H 145.55605 Q 145.51959,227.87303 145.51959,229.1022 V 235.48764 H 144.58209 V 233.20118 L 144.60292,232.34701 H 144.5925 Q 144.31125,232.9043 143.89979,233.14388 Q 143.48833,233.37826 142.82687,233.37826 Z M 144.58209,230.38867 Q 144.58209,229.28971 144.22271,228.75845 Q 143.86333,228.2272 143.07687,228.2272 Q 142.36333,228.2272 142.05083,228.75845 Q 141.73833,229.28971 141.73833,230.45117 Q 141.73833,231.63346 142.05083,232.14388 Q 142.36854,232.6543 143.06646,232.6543 Q 143.86333,232.6543 144.22271,232.08659 Q 144.58209,231.51888 144.58209,230.38867 Z"
         style="font-size:10.6667px;line-height:1.25;font-family:'Liberation Sans';-inkscape-font-specification:'Liberation Sans';white-space:pre;shape-inside:url(#rect5833)"
         id="path10861" />
      <path
         d="M 147.87376,227.63866 V 231.21159 Q 147.87376,231.76888 147.98314,232.07617 Q 148.09251,232.38347 148.3321,232.51888 Q 148.57168,232.6543 149.03523,232.6543 Q 149.71231,232.6543 150.10294,232.19076 Q 150.49356,231.72721 150.49356,230.90429 V 227.63866 H 151.43107 V 232.07096 Q 151.43107,233.05534 151.46232,233.27409 H 150.5769 Q 150.57169,233.24805 150.56648,233.13347 Q 150.56127,233.01888 150.55086,232.87305 Q 150.54565,232.72201 150.53523,232.31055 H 150.51961 Q 150.19669,232.89388 149.7696,233.13868 Q 149.34773,233.37826 148.71752,233.37826 Q 147.79043,233.37826 147.35814,232.91993 Q 146.93105,232.45638 146.93105,231.39388 V 227.63866 Z"
         style="font-size:10.6667px;line-height:1.25;font-family:'Liberation Sans';-inkscape-font-specification:'Liberation Sans';white-space:pre;shape-inside:url(#rect5833)"
         id="path10863" />
      <path
         d="M 152.8842,226.44074 V 225.5449 H 153.8217 V 226.44074 Z M 152.8842,233.27409 V 227.63866 H 153.8217 V 233.27409 Z"
         style="font-size:10.6667px;line-height:1.25;font-family:'Liberation Sans';-inkscape-font-specification:'Liberation Sans';white-space:pre;shape-inside:url(#rect5833)"
         id="path10865" />
      <path
         d="M 159.48838,231.7168 Q 159.48838,232.51367 158.88421,232.94597 Q 158.28525,233.37826 157.20192,233.37826 Q 156.14983,233.37826 155.57691,233.03451 Q 155.0092,232.68555 154.83733,231.95117 L 155.66545,231.78971 Q 155.78525,232.24284 156.16025,232.45638 Q 156.53525,232.66472 157.20192,232.66472 Q 157.91546,232.66472 158.24359,232.44597 Q 158.57692,232.22721 158.57692,231.78971 Q 158.57692,231.45638 158.34775,231.24805 Q 158.11859,231.03971 157.60817,230.90429 L 156.93629,230.72721 Q 156.129,230.51888 155.78525,230.32096 Q 155.4467,230.11783 155.25399,229.83137 Q 155.06129,229.54491 155.06129,229.12825 Q 155.06129,228.35741 155.60816,227.95637 Q 156.16025,227.55012 157.21233,227.55012 Q 158.14463,227.55012 158.69151,227.87824 Q 159.24359,228.20637 159.38942,228.93033 L 158.54567,229.0345 Q 158.46755,228.6595 158.1238,228.46158 Q 157.78525,228.25845 157.21233,228.25845 Q 156.57692,228.25845 156.27483,228.45116 Q 155.97275,228.64387 155.97275,229.0345 Q 155.97275,229.27408 156.09775,229.43033 Q 156.22275,229.58658 156.46754,229.69596 Q 156.71233,229.80533 157.49879,229.99804 Q 158.24359,230.18554 158.57171,230.347 Q 158.89984,230.50325 159.08734,230.69596 Q 159.28005,230.88867 159.38422,231.14388 Q 159.48838,231.39388 159.48838,231.7168 Z"
         style="font-size:10.6667px;line-height:1.25;font-family:'Liberation Sans';-inkscape-font-specification:'Liberation Sans';white-space:pre;shape-inside:url(#rect5833)"
         id="path10867" />
      <path
         d="M 162.75923,233.23243 Q 162.29568,233.35743 161.81131,233.35743 Q 160.6863,233.35743 160.6863,232.08138 V 228.32095 H 160.03526 V 227.63866 H 160.72276 L 160.99881,226.37824 H 161.62381 V 227.63866 H 162.66548 V 228.32095 H 161.62381 V 231.87826 Q 161.62381,232.28451 161.75402,232.45117 Q 161.88943,232.61263 162.21756,232.61263 Q 162.40506,232.61263 162.75923,232.53972 Z"
         style="font-size:10.6667px;line-height:1.25;font-family:'Liberation Sans';-inkscape-font-specification:'Liberation Sans';white-space:pre;shape-inside:url(#rect5833)"
         id="path10869" />
      <path
         d="M 172.42592,231.24805 Q 172.42592,232.26367 171.62905,232.82097 Q 170.83738,233.37826 169.39466,233.37826 Q 166.71236,233.37826 166.28528,231.51367 L 167.24882,231.32096 Q 167.41549,231.98242 167.95716,232.29492 Q 168.49883,232.60222 169.43112,232.60222 Q 170.39467,232.60222 170.9155,232.27409 Q 171.44155,231.94076 171.44155,231.30013 Q 171.44155,230.94075 171.27488,230.71679 Q 171.11342,230.49283 170.81654,230.347 Q 170.51967,230.20117 170.10821,230.10221 Q 169.69675,230.00325 169.19675,229.88867 Q 168.32695,229.69596 167.87383,229.50325 Q 167.42591,229.31054 167.16549,229.07616 Q 166.90507,228.83658 166.76445,228.51887 Q 166.62903,228.20116 166.62903,227.7897 Q 166.62903,226.84699 167.34778,226.33657 Q 168.07174,225.82615 169.4155,225.82615 Q 170.6655,225.82615 171.32696,226.21157 Q 171.98842,226.59178 172.25405,227.51366 L 171.27488,227.68553 Q 171.11342,227.1022 170.66029,226.84178 Q 170.20717,226.57616 169.40508,226.57616 Q 168.52487,226.57616 168.06133,226.86782 Q 167.59778,227.15949 167.59778,227.73762 Q 167.59778,228.07616 167.77487,228.30012 Q 167.95716,228.51887 168.2957,228.67512 Q 168.63425,228.82616 169.64467,229.05012 Q 169.98321,229.12825 170.31654,229.21158 Q 170.65509,229.28971 170.96238,229.40429 Q 171.26967,229.51366 171.5353,229.66471 Q 171.80613,229.81575 172.00405,230.0345 Q 172.20197,230.25325 172.31134,230.55013 Q 172.42592,230.847 172.42592,231.24805 Z"
         style="font-size:10.6667px;line-height:1.25;font-family:'Liberation Sans';-inkscape-font-specification:'Liberation Sans';white-space:pre;shape-inside:url(#rect5833)"
         id="path10871" />
      <path
         d="M 175.07177,233.37826 Q 174.2228,233.37826 173.79572,232.93034 Q 173.36863,232.48242 173.36863,231.70117 Q 173.36863,230.82617 173.94155,230.35742 Q 174.51968,229.88867 175.80093,229.85742 L 177.06656,229.83658 V 229.52929 Q 177.06656,228.84179 176.7749,228.54491 Q 176.48323,228.24804 175.85823,228.24804 Q 175.22802,228.24804 174.94156,228.46158 Q 174.6551,228.67512 174.59781,229.14387 L 173.61864,229.05533 Q 173.85822,227.53449 175.87906,227.53449 Q 176.94156,227.53449 177.47802,228.02408 Q 178.01448,228.50845 178.01448,229.43033 V 231.85742 Q 178.01448,232.27409 178.12386,232.48763 Q 178.23323,232.69597 178.54053,232.69597 Q 178.67594,232.69597 178.84782,232.65951 V 233.24284 Q 178.49365,233.32618 178.12386,233.32618 Q 177.60302,233.32618 177.36344,233.05534 Q 177.12906,232.7793 177.09781,232.19596 H 177.06656 Q 176.70719,232.8418 176.22802,233.11263 Q 175.75406,233.37826 175.07177,233.37826 Z M 175.28531,232.67513 Q 175.80093,232.67513 176.20198,232.44076 Q 176.60302,232.20638 176.83219,231.80013 Q 177.06656,231.38867 177.06656,230.95638 V 230.49283 L 176.04052,230.51367 Q 175.37906,230.52408 175.03531,230.64908 Q 174.69676,230.77409 174.51447,231.0345 Q 174.33218,231.29492 174.33218,231.7168 Q 174.33218,232.17513 174.57697,232.42513 Q 174.82697,232.67513 175.28531,232.67513 Z"
         style="font-size:10.6667px;line-height:1.25;font-family:'Liberation Sans';-inkscape-font-specification:'Liberation Sans';white-space:pre;shape-inside:url(#rect5833)"
         id="path10873" />
      <path
         d="M 182.84783,233.27409 V 229.70117 Q 182.84783,228.88345 182.62387,228.57095 Q 182.39991,228.25845 181.81658,228.25845 Q 181.21762,228.25845 180.86866,228.71679 Q 180.5197,229.17512 180.5197,230.00846 V 233.27409 H 179.58741 V 228.84179 Q 179.58741,227.85741 179.55616,227.63866 H 180.44158 Q 180.44678,227.6647 180.45199,227.77928 Q 180.4572,227.89387 180.46241,228.04491 Q 180.47283,228.19074 180.48324,228.6022 H 180.49887 Q 180.80095,228.00324 181.19158,227.76887 Q 181.5822,227.53449 182.14471,227.53449 Q 182.78533,227.53449 183.15513,227.7897 Q 183.53013,228.04491 183.67596,228.6022 H 183.69159 Q 183.98325,228.03449 184.39471,227.78449 Q 184.81138,227.53449 185.39992,227.53449 Q 186.25409,227.53449 186.63951,227.99803 Q 187.03014,228.46158 187.03014,229.51887 V 233.27409 H 186.10305 V 229.70117 Q 186.10305,228.88345 185.87909,228.57095 Q 185.65513,228.25845 185.0718,228.25845 Q 184.45721,228.25845 184.11346,228.71679 Q 183.77492,229.16991 183.77492,230.00846 V 233.27409 Z"
         style="font-size:10.6667px;line-height:1.25;font-family:'Liberation Sans';-inkscape-font-specification:'Liberation Sans';white-space:pre;shape-inside:url(#rect5833)"
         id="path10875" />
      <path
         d="M 193.21766,230.43033 Q 193.21766,233.37826 191.14473,233.37826 Q 189.84265,233.37826 189.39473,232.39909 H 189.36869 Q 189.38952,232.44076 189.38952,233.28451 V 235.48764 H 188.45202 V 228.7897 Q 188.45202,227.91991 188.42077,227.63866 H 189.32702 Q 189.33223,227.65949 189.34265,227.7897 Q 189.35306,227.9147 189.36348,228.18033 Q 189.3791,228.44595 189.3791,228.54491 H 189.39994 Q 189.64994,228.02408 190.0614,227.78449 Q 190.47286,227.5397 191.14473,227.5397 Q 192.1864,227.5397 192.70203,228.23762 Q 193.21766,228.93554 193.21766,230.43033 Z M 192.23328,230.45117 Q 192.23328,229.27408 191.91557,228.76887 Q 191.59786,228.26366 190.90515,228.26366 Q 190.34786,228.26366 190.03015,228.49804 Q 189.71765,228.73241 189.55098,229.23241 Q 189.38952,229.72721 189.38952,230.52408 Q 189.38952,231.63346 189.74369,232.15951 Q 190.09786,232.68555 190.89473,232.68555 Q 191.59265,232.68555 191.91036,232.17513 Q 192.23328,231.6595 192.23328,230.45117 Z"
         style="font-size:10.6667px;line-height:1.25;font-family:'Liberation Sans';-inkscape-font-specification:'Liberation Sans';white-space:pre;shape-inside:url(#rect5833)"
         id="path10877" />
      <path
         d="M 194.38433,233.27409 V 225.5449 H 195.32183 V 233.27409 Z"
         style="font-size:10.6667px;line-height:1.25;font-family:'Liberation Sans';-inkscape-font-specification:'Liberation Sans';white-space:pre;shape-inside:url(#rect5833)"
         id="path10879" />
      <path
         d="M 196.74892,226.44074 V 225.5449 H 197.68642 V 226.44074 Z M 196.74892,233.27409 V 227.63866 H 197.68642 V 233.27409 Z"
         style="font-size:10.6667px;line-height:1.25;font-family:'Liberation Sans';-inkscape-font-specification:'Liberation Sans';white-space:pre;shape-inside:url(#rect5833)"
         id="path10881" />
      <path
         d="M 202.70206,233.27409 V 229.70117 Q 202.70206,229.14387 202.59269,228.83658 Q 202.48331,228.52929 202.24373,228.39387 Q 202.00414,228.25845 201.5406,228.25845 Q 200.86352,228.25845 200.47289,228.722 Q 200.08226,229.18554 200.08226,230.00846 V 233.27409 H 199.14476 V 228.84179 Q 199.14476,227.85741 199.11351,227.63866 H 199.99893 Q 200.00414,227.6647 200.00935,227.77928 Q 200.01455,227.89387 200.01976,228.04491 Q 200.03018,228.19074 200.0406,228.6022 H 200.05622 Q 200.37914,228.01887 200.80102,227.77928 Q 201.2281,227.53449 201.85831,227.53449 Q 202.7854,227.53449 203.21248,227.99803 Q 203.64477,228.45637 203.64477,229.51887 V 233.27409 Z"
         style="font-size:10.6667px;line-height:1.25;font-family:'Liberation Sans';-inkscape-font-specification:'Liberation Sans';white-space:pre;shape-inside:url(#rect5833)"
         id="path10883" />
      <path
         d="M 207.19166,235.48764 Q 206.26978,235.48764 205.72291,235.12306 Q 205.17603,234.76368 205.01978,234.09701 L 205.96249,233.9616 Q 206.05624,234.35222 206.37395,234.56056 Q 206.69687,234.7741 207.2177,234.7741 Q 208.61875,234.7741 208.61875,233.13347 V 232.22721 H 208.60833 Q 208.34271,232.76888 207.87916,233.04493 Q 207.41562,233.31576 206.79583,233.31576 Q 205.75937,233.31576 205.26978,232.62826 Q 204.7854,231.94076 204.7854,230.46679 Q 204.7854,228.972 205.30624,228.26366 Q 205.83228,227.55012 206.89999,227.55012 Q 207.49895,227.55012 207.93646,227.82616 Q 208.37917,228.09699 208.61875,228.6022 H 208.62917 Q 208.62917,228.44595 208.65,228.06054 Q 208.67083,227.67512 208.69167,227.63866 H 209.58229 Q 209.55104,227.91991 209.55104,228.80533 V 233.11263 Q 209.55104,235.48764 207.19166,235.48764 Z M 208.61875,230.45638 Q 208.61875,229.76887 208.43125,229.27408 Q 208.24375,228.77408 207.9,228.51366 Q 207.56145,228.24804 207.12916,228.24804 Q 206.41041,228.24804 206.08228,228.76887 Q 205.75416,229.28971 205.75416,230.45638 Q 205.75416,231.61263 206.06145,232.11784 Q 206.36874,232.62305 207.11354,232.62305 Q 207.55625,232.62305 207.9,232.36263 Q 208.24375,232.10221 208.43125,231.61784 Q 208.61875,231.12825 208.61875,230.45638 Z"
         style="font-size:10.6667px;line-height:1.25;font-family:'Liberation Sans';-inkscape-font-specification:'Liberation Sans';white-space:pre;shape-inside:url(#rect5833)"
         id="path10885" />
      <path
         d="M 219.29586,233.27409 L 217.38961,230.22721 H 215.10314 V 233.27409 H 214.10835 V 225.93553 H 217.56148 Q 218.80107,225.93553 219.47295,226.49282 Q 220.15003,227.04491 220.15003,228.03449 Q 220.15003,228.8522 219.67087,229.4095 Q 219.19691,229.96679 218.35836,230.11262 L 220.4417,233.27409 Z M 219.15003,228.04491 Q 219.15003,227.40428 218.71253,227.07095 Q 218.28024,226.73241 217.46253,226.73241 H 215.10314 V 229.44075 H 217.50419 Q 218.29065,229.44075 218.71774,229.07616 Q 219.15003,228.70637 219.15003,228.04491 Z"
         style="font-size:10.6667px;line-height:1.25;font-family:'Liberation Sans';-inkscape-font-specification:'Liberation Sans';white-space:pre;shape-inside:url(#rect5833)"
         id="path10887" />
      <path
         d="M 223.09275,233.37826 Q 222.24379,233.37826 221.8167,232.93034 Q 221.38962,232.48242 221.38962,231.70117 Q 221.38962,230.82617 221.96254,230.35742 Q 222.54066,229.88867 223.82192,229.85742 L 225.08755,229.83658 V 229.52929 Q 225.08755,228.84179 224.79588,228.54491 Q 224.50421,228.24804 223.87921,228.24804 Q 223.249,228.24804 222.96254,228.46158 Q 222.67608,228.67512 222.61879,229.14387 L 221.63962,229.05533 Q 221.8792,227.53449 223.90004,227.53449 Q 224.96255,227.53449 225.49901,228.02408 Q 226.03547,228.50845 226.03547,229.43033 V 231.85742 Q 226.03547,232.27409 226.14484,232.48763 Q 226.25422,232.69597 226.56151,232.69597 Q 226.69693,232.69597 226.8688,232.65951 V 233.24284 Q 226.51464,233.32618 226.14484,233.32618 Q 225.62401,233.32618 225.38442,233.05534 Q 225.15005,232.7793 225.1188,232.19596 H 225.08755 Q 224.72817,232.8418 224.249,233.11263 Q 223.77504,233.37826 223.09275,233.37826 Z M 223.30629,232.67513 Q 223.82192,232.67513 224.22296,232.44076 Q 224.624,232.20638 224.85317,231.80013 Q 225.08755,231.38867 225.08755,230.95638 V 230.49283 L 224.0615,230.51367 Q 223.40004,230.52408 223.05629,230.64908 Q 222.71775,230.77409 222.53546,231.0345 Q 222.35316,231.29492 222.35316,231.7168 Q 222.35316,232.17513 222.59796,232.42513 Q 222.84796,232.67513 223.30629,232.67513 Z"
         style="font-size:10.6667px;line-height:1.25;font-family:'Liberation Sans';-inkscape-font-specification:'Liberation Sans';white-space:pre;shape-inside:url(#rect5833)"
         id="path10889" />
      <path
         d="M 229.75423,233.23243 Q 229.29069,233.35743 228.80631,233.35743 Q 227.68131,233.35743 227.68131,232.08138 V 228.32095 H 227.03026 V 227.63866 H 227.71777 L 227.99381,226.37824 H 228.61881 V 227.63866 H 229.66048 V 228.32095 H 228.61881 V 231.87826 Q 228.61881,232.28451 228.74902,232.45117 Q 228.88444,232.61263 229.21256,232.61263 Q 229.40006,232.61263 229.75423,232.53972 Z"
         style="font-size:10.6667px;line-height:1.25;font-family:'Liberation Sans';-inkscape-font-specification:'Liberation Sans';white-space:pre;shape-inside:url(#rect5833)"
         id="path10891" />
      <path
         d="M 231.26986,230.65429 Q 231.26986,231.62305 231.67091,232.14909 Q 232.07195,232.67513 232.84279,232.67513 Q 233.45216,232.67513 233.81675,232.43034 Q 234.18654,232.18555 234.31675,231.81055 L 235.13967,232.04492 Q 234.63446,233.37826 232.84279,233.37826 Q 231.59278,233.37826 230.93653,232.63347 Q 230.28549,231.88867 230.28549,230.41992 Q 230.28549,229.02408 230.93653,228.27929 Q 231.59278,227.53449 232.80633,227.53449 Q 235.29071,227.53449 235.29071,230.52929 V 230.65429 Z M 234.32196,229.93554 Q 234.24383,229.04491 233.86883,228.63866 Q 233.49383,228.2272 232.7907,228.2272 Q 232.10841,228.2272 231.70737,228.68554 Q 231.31153,229.13866 231.28028,229.93554 Z"
         style="font-size:10.6667px;line-height:1.25;font-family:'Liberation Sans';-inkscape-font-specification:'Liberation Sans';white-space:pre;shape-inside:url(#rect5833)"
         id="path10893" />
    </g>
  </g>
</svg>
