<?xml version="1.0" encoding="UTF-8" standalone="no"?>
<!-- Created with Inkscape (http://www.inkscape.org/) -->

<svg
   width="100mm"
   height="100mm"
   viewBox="0 0 300 300.00001"
   version="1.1"
   id="svg5"
   inkscape:version="1.1 (c68e22c387, 2021-05-23)"
   sodipodi:docname="spectralpermutation.svg"
   xmlns:inkscape="http://www.inkscape.org/namespaces/inkscape"
   xmlns:sodipodi="http://sodipodi.sourceforge.net/DTD/sodipodi-0.dtd"
   xmlns:xlink="http://www.w3.org/1999/xlink"
   xmlns="http://www.w3.org/2000/svg"
   xmlns:svg="http://www.w3.org/2000/svg">
  <sodipodi:namedview
     id="namedview7"
     pagecolor="#ffffff"
     bordercolor="#c7f2fb"
     borderopacity="1"
     inkscape:pageshadow="2"
     inkscape:pageopacity="0.0"
     inkscape:pagecheckerboard="true"
     inkscape:document-units="mm"
     showgrid="false"
     width="300mm"
     inkscape:snap-global="false"
     inkscape:zoom="2.137267"
     inkscape:cx="170.77885"
     inkscape:cy="188.55857"
     inkscape:window-width="1680"
     inkscape:window-height="978"
     inkscape:window-x="0"
     inkscape:window-y="28"
     inkscape:window-maximized="1"
     inkscape:current-layer="layer1"
     inkscape:snap-bbox="true"
     inkscape:snap-others="false"
     scale-x="3"
     inkscape:object-nodes="true"
     inkscape:snap-grids="false"
     inkscape:snap-to-guides="false"
     inkscape:object-paths="true"
     inkscape:bbox-nodes="true"
     inkscape:snap-smooth-nodes="false"
     inkscape:snap-nodes="true" />
  <defs
     id="defs2">
    <rect
       x="214.58865"
       y="41.096888"
       width="15.679821"
       height="22.761898"
       id="rect18014" />
    <rect
       x="127.27001"
       y="223.66598"
       width="147.82784"
       height="81.936497"
       id="rect5833" />
    <rect
       x="141.68007"
       y="150.29382"
       width="105.2564"
       height="58.361564"
       id="rect188900" />
    <rect
       x="136.86106"
       y="149.0378"
       width="106.88755"
       height="48.995521"
       id="rect174058" />
    <rect
       x="142.3325"
       y="138.17995"
       width="113.04249"
       height="71.467353"
       id="rect158869" />
    <rect
       x="145.87701"
       y="117.84126"
       width="118.86073"
       height="55.305959"
       id="rect150752" />
    <rect
       x="143.19542"
       y="127.04062"
       width="53.052788"
       height="48.050439"
       id="rect126872" />
    <rect
       x="126.08535"
       y="182.24609"
       width="139.93083"
       height="35.274103"
       id="rect94683" />
    <rect
       x="156.27173"
       y="154.53199"
       width="71.590046"
       height="61.505007"
       id="rect76044" />
    <rect
       x="180.01453"
       y="119.72036"
       width="30.517003"
       height="23.422415"
       id="rect42687" />
    <linearGradient
       inkscape:collect="always"
       id="Backgradient">
      <stop
         style="stop-color:#d9eaf2;stop-opacity:1"
         offset="0"
         id="stop960" />
      <stop
         style="stop-color:#f0f0dc;stop-opacity:1"
         offset="1"
         id="stop962" />
    </linearGradient>
    <rect
       x="280.44116"
       y="93.903404"
       width="348.69312"
       height="65.019081"
       id="rect73495" />
    <rect
       x="810.34015"
       y="76.609459"
       width="158.12024"
       height="40.934669"
       id="rect22919" />
    <rect
       x="836.91852"
       y="121.90139"
       width="85.342522"
       height="79.572823"
       id="rect9322" />
    <rect
       x="126.4501"
       y="353.63721"
       width="188.33687"
       height="141.26376"
       id="rect4811" />
    <rect
       x="735.84259"
       y="812.22839"
       width="232.6528"
       height="159.1553"
       id="rect111452" />
    <rect
       x="117.87085"
       y="281.94232"
       width="315.23315"
       height="240.20856"
       id="rect103135" />
    <rect
       x="955.68018"
       y="533.83032"
       width="46.705185"
       height="49.647881"
       id="rect94166" />
    <rect
       x="166.27986"
       y="640.80829"
       width="37.033524"
       height="48.738281"
       id="rect86164" />
    <rect
       x="186.27026"
       y="608.54156"
       width="35.770874"
       height="50.68338"
       id="rect75075" />
    <rect
       x="190.41675"
       y="374.6709"
       width="96.829758"
       height="63.563358"
       id="rect8790" />
    <rect
       x="810.34015"
       y="76.609459"
       width="255.82944"
       height="41.197124"
       id="rect41481" />
    <rect
       x="810.34015"
       y="76.609459"
       width="302.93381"
       height="41.197124"
       id="rect54249" />
    <rect
       x="810.34015"
       y="76.609459"
       width="302.93381"
       height="41.197124"
       id="rect58785" />
    <linearGradient
       inkscape:collect="always"
       xlink:href="#Backgradient"
       id="linearGradient966"
       x1="149.94312"
       y1="-1.1761929"
       x2="150.42719"
       y2="299.92682"
       gradientUnits="userSpaceOnUse"
       gradientTransform="scale(1.2598425)" />
    <clipPath
       clipPathUnits="userSpaceOnUse"
       id="clipPath1363">
      <path
         d="M 0,0.028 H 594.935 V 841.917 H 0 Z"
         clip-rule="evenodd"
         id="path1361" />
    </clipPath>
    <clipPath
       clipPathUnits="userSpaceOnUse"
       id="clipPath1389">
      <path
         d="M 61.71,113.215 H 537.59 V 753.929 H 61.71 Z"
         clip-rule="evenodd"
         id="path1387" />
    </clipPath>
    <clipPath
       clipPathUnits="userSpaceOnUse"
       id="clipPath1712">
      <path
         d="M 0,0.028 H 594.935 V 841.917 H 0 Z"
         clip-rule="evenodd"
         id="path1710" />
    </clipPath>
    <clipPath
       clipPathUnits="userSpaceOnUse"
       id="clipPath1738">
      <path
         d="M 61.71,113.215 H 537.59 V 753.929 H 61.71 Z"
         clip-rule="evenodd"
         id="path1736" />
    </clipPath>
    <rect
       x="214.58865"
       y="41.096888"
       width="15.679821"
       height="22.761898"
       id="rect31708" />
    <rect
       x="214.58865"
       y="41.096888"
       width="15.679821"
       height="22.761898"
       id="rect31816" />
    <rect
       x="214.58865"
       y="41.096888"
       width="15.679821"
       height="22.761898"
       id="rect35136" />
    <rect
       x="214.58865"
       y="41.096888"
       width="15.679821"
       height="22.761898"
       id="rect41628" />
    <rect
       x="214.58865"
       y="41.096888"
       width="15.679821"
       height="22.761898"
       id="rect44420" />
    <rect
       x="214.58865"
       y="41.096888"
       width="18.179608"
       height="23.634989"
       id="rect45936" />
    <rect
       x="214.58865"
       y="41.096888"
       width="18.179608"
       height="23.634989"
       id="rect52314" />
    <rect
       x="214.58865"
       y="41.096888"
       width="18.179608"
       height="23.634989"
       id="rect56220" />
    <rect
       x="214.58865"
       y="41.096888"
       width="18.179608"
       height="23.634989"
       id="rect63924" />
    <rect
       x="214.58865"
       y="41.096888"
       width="18.179608"
       height="23.634989"
       id="rect66178" />
    <rect
       x="214.58865"
       y="41.096888"
       width="18.179608"
       height="23.634989"
       id="rect67864" />
    <rect
       x="214.58865"
       y="41.096888"
       width="18.179608"
       height="23.634989"
       id="rect70743" />
    <rect
       x="214.58865"
       y="41.096888"
       width="18.179608"
       height="23.634989"
       id="rect73439" />
    <rect
       x="214.58865"
       y="41.096888"
       width="18.179608"
       height="23.634989"
       id="rect74737" />
    <rect
       x="214.58865"
       y="41.096888"
       width="18.179608"
       height="23.634989"
       id="rect76113" />
    <rect
       x="214.58865"
       y="41.096888"
       width="18.179608"
       height="23.634989"
       id="rect79053" />
    <rect
       x="214.58865"
       y="41.096888"
       width="18.179608"
       height="23.634989"
       id="rect80693" />
    <rect
       x="214.58865"
       y="41.096888"
       width="18.179608"
       height="23.634989"
       id="rect82235" />
    <rect
       x="214.58865"
       y="41.096888"
       width="15.679821"
       height="22.761898"
       id="rect85927" />
    <rect
       x="214.58865"
       y="41.096888"
       width="15.679821"
       height="22.761898"
       id="rect87039" />
    <rect
       x="214.58865"
       y="41.096888"
       width="15.679821"
       height="22.761898"
       id="rect87931" />
  </defs>
  <g
     inkscape:label="Layer 1"
     inkscape:groupmode="layer"
     id="layer1"
     style="display:inline">
    <path
       id="rect120965"
       style="font-size:40px;line-height:1.25;font-family:Dingbats;-inkscape-font-specification:Dingbats;white-space:pre;shape-inside:url(#rect103135);display:inline;fill:url(#linearGradient966);fill-opacity:1;fill-rule:nonzero;stroke:#40a9be;stroke-width:0.629921;stroke-linecap:round;stroke-linejoin:round;stroke-miterlimit:4;stroke-dasharray:none;stroke-opacity:1"
       d="M 0,0 V 377.95312 H 377.95312 V 0 Z"
       transform="scale(0.79375002)"
       sodipodi:insensitive="true" />
    <g
       id="g12068">
      <path
         style="display:inline;fill:#ff80e5;stroke:#020607;stroke-width:0.944882;stroke-linecap:round;stroke-linejoin:round;stroke-miterlimit:4;stroke-dasharray:none;stroke-opacity:1"
         d="M 211.13153,20.328329 C 203.88006,19.385005 196.48513,18.898438 188.97656,18.898438 C 181.43748,18.898438 174.01298,19.388967 166.73321,20.33985 L 175.46588,86.330714 C 179.41265,85.852004 183.42844,85.605469 187.5,85.605469 C 192.57677,85.605469 197.56682,85.988762 202.44449,86.72751 Z"
         transform="scale(0.79375002)"
         id="path11639"
         inkscape:label="freq_0" />
      <path
         style="display:inline;fill:#80b3ff;stroke:#020607;stroke-width:0.982677;stroke-linecap:round;stroke-linejoin:round;stroke-miterlimit:4;stroke-dasharray:none;stroke-opacity:1"
         d="M 166.67721,357.60595 C 173.9749,358.56164 181.41815,359.05469 188.97656,359.05469 C 196.45959,359.05469 203.82974,358.57143 211.05752,357.6344 L 201.93014,288.41223 C 197.2162,289.06006 192.39847,289.39453 187.5,289.39453 C 183.54358,289.39453 179.63983,289.17634 175.80089,288.75107 Z"
         transform="scale(0.79375002)"
         id="path8834"
         inkscape:label="freq_n" />
    </g>
    <g
       id="g12074"
       transform="rotate(15,148.34995,148.29098)">
      <path
         style="display:inline;fill:#f7c5d4;fill-opacity:1;stroke:#020607;stroke-width:0.944882;stroke-linecap:round;stroke-linejoin:round;stroke-miterlimit:4;stroke-dasharray:none;stroke-opacity:1"
         d="M 211.63953,19.694103 C 196.44247,17.823238 181.46345,17.922004 167.3042,19.735868 L 176.00805,86.114352 C 185.00563,85.531822 193.92205,85.438053 202.77504,86.516162 Z"
         transform="scale(0.79375002)"
         id="path12070"
         inkscape:label="freq_0"
         sodipodi:nodetypes="ccccc" />
      <path
         style="display:inline;fill:#c5e6f7;fill-opacity:1;stroke:#020607;stroke-width:0.982677;stroke-linecap:round;stroke-linejoin:round;stroke-miterlimit:4;stroke-dasharray:none;stroke-opacity:1"
         d="M 167.01669,357.61687 C 183.26791,358.55491 197.1156,358.87895 211.62142,356.99407 L 202.55985,288.15 C 193.45199,289.66485 184.52215,289.48489 176.12604,288.55458 Z"
         transform="scale(0.79375002)"
         id="path12072"
         inkscape:label="freq_n"
         sodipodi:nodetypes="ccccc" />
    </g>
    <g
       id="g12224"
       transform="rotate(30,149.51206,148.42304)">
      <path
         style="display:inline;fill:#f7c5d4;fill-opacity:1;stroke:#020607;stroke-width:0.944882;stroke-linecap:round;stroke-linejoin:round;stroke-miterlimit:4;stroke-dasharray:none;stroke-opacity:1"
         d="M 212.48881,19.824839 C 197.17652,17.902055 181.89263,17.561072 167.65322,19.739528 L 176.3856,86.57898 C 185.24857,85.215651 194.82774,86.334687 203.16487,87.573057 Z"
         transform="scale(0.79375002)"
         id="path12220"
         inkscape:label="freq_0"
         sodipodi:nodetypes="ccccc" />
      <path
         style="display:inline;fill:#c5e6f7;fill-opacity:1;stroke:#020607;stroke-width:0.982677;stroke-linecap:round;stroke-linejoin:round;stroke-miterlimit:4;stroke-dasharray:none;stroke-opacity:1"
         d="M 167.62684,357.0264 C 183.57682,359.20615 197.28904,358.3548 212.01171,357.6971 L 202.93603,288.63037 C 193.9747,289.37728 184.55555,290.15128 176.59407,289.00494 Z"
         transform="scale(0.79375002)"
         id="path12222"
         inkscape:label="freq_n"
         sodipodi:nodetypes="ccccc" />
    </g>
    <g
       id="g12230"
       transform="rotate(45,149.14642,148.09604)">
      <path
         style="display:inline;fill:#f7c5d4;fill-opacity:1;stroke:#020607;stroke-width:0.944882;stroke-linecap:round;stroke-linejoin:round;stroke-miterlimit:4;stroke-dasharray:none;stroke-opacity:1"
         d="M 212.78489,18.911614 C 197.80918,17.509588 181.94209,17.128516 168.55764,18.829883 L 177.08594,86.682848 C 186.11453,86.251283 194.83362,86.089468 203.69251,87.354769 Z"
         transform="scale(0.79375002)"
         id="path12226"
         inkscape:label="freq_0"
         sodipodi:nodetypes="ccccc" />
      <path
         style="display:inline;fill:#c5e6f7;fill-opacity:1;stroke:#020607;stroke-width:0.982677;stroke-linecap:round;stroke-linejoin:round;stroke-miterlimit:4;stroke-dasharray:none;stroke-opacity:1"
         d="M 168.152,356.14418 C 183.22717,357.51848 197.57164,358.06808 212.4985,356.15271 L 203.55492,288.12814 C 194.15052,289.4558 184.54769,289.70137 175.80089,288.75107 Z"
         transform="scale(0.79375002)"
         id="path12228"
         inkscape:label="freq_n"
         sodipodi:nodetypes="ccccc" />
    </g>
    <g
       id="g12236"
       transform="rotate(60,149.14858,148.63707)">
      <path
         style="display:inline;fill:#f7c5d4;fill-opacity:1;stroke:#020607;stroke-width:0.944882;stroke-linecap:round;stroke-linejoin:round;stroke-miterlimit:4;stroke-dasharray:none;stroke-opacity:1"
         d="M 212.55968,19.235701 C 198.07024,17.270121 181.81999,16.015382 167.95289,18.527434 L 176.88471,86.991726 C 185.65873,86.507865 194.6925,86.170368 202.92458,87.393135 Z"
         transform="scale(0.79375002)"
         id="path12232"
         inkscape:label="freq_0"
         sodipodi:nodetypes="ccccc" />
      <path
         style="display:inline;fill:#c5e6f7;fill-opacity:1;stroke:#020607;stroke-width:0.982677;stroke-linecap:round;stroke-linejoin:round;stroke-miterlimit:4;stroke-dasharray:none;stroke-opacity:1"
         d="M 168.07798,356.47226 C 184.70361,357.21967 196.73323,357.44897 212.12304,355.82092 L 202.06868,288.7445 C 192.9959,289.61311 185.30435,290.73705 176.86221,289.81985 Z"
         transform="scale(0.79375002)"
         id="path12234"
         inkscape:label="freq_n"
         sodipodi:nodetypes="ccccc" />
    </g>
    <g
       id="g12242"
       transform="rotate(75,149.15033,148.97646)">
      <path
         style="display:inline;fill:#f7c5d4;fill-opacity:1;stroke:#020607;stroke-width:0.944882;stroke-linecap:round;stroke-linejoin:round;stroke-miterlimit:4;stroke-dasharray:none;stroke-opacity:1"
         d="M 211.66938,18.368362 C 198.05042,16.157737 181.67567,16.402452 167.82047,18.898574 L 176.15412,87.227348 C 185.75999,86.286947 194.03241,86.604455 202.34918,87.375204 Z"
         transform="scale(0.79375002)"
         id="path12238"
         inkscape:label="freq_0"
         sodipodi:nodetypes="ccccc" />
      <path
         style="display:inline;fill:#c5e6f7;fill-opacity:1;stroke:#020607;stroke-width:0.982677;stroke-linecap:round;stroke-linejoin:round;stroke-miterlimit:4;stroke-dasharray:none;stroke-opacity:1"
         d="M 167.18769,355.60492 C 183.12034,356.98488 197.25842,357.24812 212.13769,356.15679 L 203.37169,289.50198 C 193.66402,290.18692 184.45971,291.06629 175.91104,289.46908 Z"
         transform="scale(0.79375002)"
         id="path12240"
         inkscape:label="freq_n"
         sodipodi:nodetypes="ccccc" />
    </g>
    <g
       id="g12248"
       transform="rotate(90,149.15163,149.21587)">
      <path
         style="display:inline;fill:#f7c5d4;fill-opacity:1;stroke:#020607;stroke-width:0.944882;stroke-linecap:round;stroke-linejoin:round;stroke-miterlimit:4;stroke-dasharray:none;stroke-opacity:1"
         d="M 211.13628,18.301393 C 195.93922,16.430529 180.89608,16.476707 166.73683,18.290571 L 175.59449,87.358307 C 184.7444,86.290783 193.99998,86.426428 202.39215,87.391193 Z"
         transform="scale(0.79375002)"
         id="path12244"
         inkscape:label="freq_0"
         sodipodi:nodetypes="ccccc" />
      <path
         style="display:inline;fill:#c5e6f7;fill-opacity:1;stroke:#020607;stroke-width:0.982677;stroke-linecap:round;stroke-linejoin:round;stroke-miterlimit:4;stroke-dasharray:none;stroke-opacity:1"
         d="M 166.6546,355.53795 C 184.78499,357.20115 194.83951,356.89569 211.05405,355.54878 L 202.36295,289.4087 C 193.0304,290.38022 184.02432,290.28584 175.37795,289.40212 Z"
         transform="scale(0.79375002)"
         id="path12246"
         inkscape:label="freq_n"
         sodipodi:nodetypes="ccccc" />
    </g>
    <g
       id="g12254"
       transform="rotate(105,149.15069,149.39916)">
      <path
         style="display:inline;fill:#f7c5d4;fill-opacity:1;stroke:#020607;stroke-width:0.944882;stroke-linecap:round;stroke-linejoin:round;stroke-miterlimit:4;stroke-dasharray:none;stroke-opacity:1"
         d="M 210.60145,18.371673 C 196.83402,17.076992 179.26769,16.817514 166.20199,18.360843 L 175.63756,87.359614 C 184.61006,85.792788 193.48001,86.193957 201.49209,87.433965 Z"
         transform="scale(0.79375002)"
         id="path12250"
         inkscape:label="freq_0"
         sodipodi:nodetypes="ccccc" />
      <path
         style="display:inline;fill:#c5e6f7;fill-opacity:1;stroke:#020607;stroke-width:0.982677;stroke-linecap:round;stroke-linejoin:round;stroke-miterlimit:4;stroke-dasharray:none;stroke-opacity:1"
         d="M 166.11976,355.60823 C 182.87285,357.02427 196.35315,357.42022 210.51922,355.61905 L 201.82813,289.47897 C 192.80817,290.26796 184.3462,290.5881 174.84312,289.47239 Z"
         transform="scale(0.79375002)"
         id="path12252"
         inkscape:label="freq_n"
         sodipodi:nodetypes="ccccc" />
    </g>
    <g
       id="g12260"
       transform="rotate(120,149.14958,149.55016)">
      <path
         style="display:inline;fill:#f7c5d4;fill-opacity:1;stroke:#020607;stroke-width:0.944882;stroke-linecap:round;stroke-linejoin:round;stroke-miterlimit:4;stroke-dasharray:none;stroke-opacity:1"
         d="M 210.10093,18.580148 C 194.87721,17.170289 180.4412,17.247055 165.70146,18.569319 L 174.77713,87.636047 C 184.73629,86.726169 192.99887,86.876363 200.99156,87.642443 Z"
         transform="scale(0.79375002)"
         id="path12256"
         inkscape:label="freq_0"
         sodipodi:nodetypes="ccccc" />
      <path
         style="display:inline;fill:#c5e6f7;fill-opacity:1;stroke:#020607;stroke-width:0.982677;stroke-linecap:round;stroke-linejoin:round;stroke-miterlimit:4;stroke-dasharray:none;stroke-opacity:1"
         d="M 165.61923,355.8167 C 180.99318,357.47726 196.33651,357.6985 210.01869,355.82753 L 201.32759,289.68744 C 192.79159,290.45519 183.391,290.57384 174.34258,289.68086 Z"
         transform="scale(0.79375002)"
         id="path12258"
         inkscape:label="freq_n"
         sodipodi:nodetypes="ccccc" />
    </g>
    <g
       id="g12266"
       transform="rotate(135,149.28534,149.61289)">
      <path
         style="display:inline;fill:#f7c5d4;fill-opacity:1;stroke:#020607;stroke-width:0.944882;stroke-linecap:round;stroke-linejoin:round;stroke-miterlimit:4;stroke-dasharray:none;stroke-opacity:1"
         d="M 210.02506,18.888893 C 193.96554,17.540576 179.78666,17.58651 165.62561,18.878066 L 174.70127,87.944799 C 185.42864,86.013913 192.47948,87.981795 200.9157,87.951187 Z"
         transform="scale(0.79375002)"
         id="path12262"
         inkscape:label="freq_0"
         sodipodi:nodetypes="ccccc" />
      <path
         style="display:inline;fill:#c5e6f7;fill-opacity:1;stroke:#020607;stroke-width:0.982677;stroke-linecap:round;stroke-linejoin:round;stroke-miterlimit:4;stroke-dasharray:none;stroke-opacity:1"
         d="M 165.54337,356.12544 C 181.7559,357.97345 196.86395,358.17695 209.94283,356.13627 L 201.25172,289.99619 C 191.79956,291.06932 182.82777,291.05538 174.26672,289.98961 Z"
         transform="scale(0.79375002)"
         id="path12264"
         inkscape:label="freq_n"
         sodipodi:nodetypes="ccccc" />
    </g>
    <g
       id="g12272"
       transform="rotate(150,149.19725,149.54256)">
      <path
         style="display:inline;fill:#f7c5d4;fill-opacity:1;stroke:#020607;stroke-width:0.944882;stroke-linecap:round;stroke-linejoin:round;stroke-miterlimit:4;stroke-dasharray:none;stroke-opacity:1"
         d="M 209.61818,18.77703 C 194.39272,17.139406 180.13104,16.88528 165.21872,18.766207 L 174.29439,87.832934 C 185.13317,87.189032 192.50424,87.284972 200.50882,87.83933 Z"
         transform="scale(0.79375002)"
         id="path12268"
         inkscape:label="freq_0"
         sodipodi:nodetypes="ccccc" />
      <path
         style="display:inline;fill:#c5e6f7;fill-opacity:1;stroke:#020607;stroke-width:0.982677;stroke-linecap:round;stroke-linejoin:round;stroke-miterlimit:4;stroke-dasharray:none;stroke-opacity:1"
         d="M 165.13649,356.01358 C 180.30714,357.69762 196.14978,357.8462 209.53595,356.0244 L 200.84485,289.88433 C 192.97479,291.0363 182.78823,291.77035 173.85984,289.87775 Z"
         transform="scale(0.79375002)"
         id="path12270"
         inkscape:label="freq_n"
         sodipodi:nodetypes="ccccc" />
    </g>
    <g
       id="g12278"
       transform="rotate(165,149.43766,149.41651)">
      <path
         style="display:inline;fill:#f7c5d4;fill-opacity:1;stroke:#020607;stroke-width:0.944882;stroke-linecap:round;stroke-linejoin:round;stroke-miterlimit:4;stroke-dasharray:none;stroke-opacity:1"
         d="M 210.01469,18.729575 C 194.20123,17.353785 179.95029,17.005358 165.61523,18.718745 L 174.6909,87.785479 C 183.84081,86.717955 192.52145,86.688518 200.99737,87.947504 Z"
         transform="scale(0.79375002)"
         id="path12274"
         inkscape:label="freq_0"
         sodipodi:nodetypes="ccccc" />
      <path
         style="display:inline;fill:#c5e6f7;fill-opacity:1;stroke:#020607;stroke-width:0.982677;stroke-linecap:round;stroke-linejoin:round;stroke-miterlimit:4;stroke-dasharray:none;stroke-opacity:1"
         d="M 165.53299,355.96612 C 180.73371,357.84782 195.76639,357.77811 209.93246,355.97695 L 201.24136,289.83687 C 192.5171,291.29102 183.71467,291.43106 174.25734,289.99271 Z"
         transform="scale(0.79375002)"
         id="path12276"
         inkscape:label="freq_n"
         sodipodi:nodetypes="ccccc" />
    </g>
    <g
       id="g8832"
       transform="rotate(-7.4860289,150,150)"
       inkscape:label="freqdiv"
       sodipodi:insensitive="true"
       style="display:none">
      <path
         id="path7408"
         style="fill:none;stroke:#000000;stroke-width:1.5;stroke-linecap:butt;stroke-linejoin:miter;stroke-miterlimit:4;stroke-dasharray:none;stroke-opacity:1"
         d="M 229.70701,150 H 285.00001 M 15,150 H 67.950002" />
      <path
         id="path8320"
         style="fill:none;stroke:#000000;stroke-width:1.5;stroke-linecap:butt;stroke-linejoin:miter;stroke-miterlimit:4;stroke-dasharray:none;stroke-opacity:1"
         d="M 226.99106,170.62969 L 280.4,184.94057 M 19.600014,115.05943 L 70.745788,128.7639" />
      <path
         id="path8322"
         style="fill:none;stroke:#000000;stroke-width:1.5;stroke-linecap:butt;stroke-linejoin:miter;stroke-miterlimit:4;stroke-dasharray:none;stroke-opacity:1"
         d="M 219.0283,189.8535 L 266.91344,217.5 M 33.086571,82.499997 L 78.942618,108.975" />
      <path
         id="path8324"
         style="fill:none;stroke:#000000;stroke-width:1.5;stroke-linecap:butt;stroke-linejoin:miter;stroke-miterlimit:4;stroke-dasharray:none;stroke-opacity:1"
         d="M 206.36137,206.36136 L 245.45942,245.45942 M 54.540586,54.540581 L 91.981891,91.981886" />
      <path
         id="path8326"
         style="fill:none;stroke:#000000;stroke-width:1.5;stroke-linecap:butt;stroke-linejoin:miter;stroke-miterlimit:4;stroke-dasharray:none;stroke-opacity:1"
         d="M 189.85351,219.02829 L 217.50001,266.91343 M 82.500002,33.086566 L 108.975,78.942613" />
      <path
         id="path8328"
         style="fill:none;stroke:#000000;stroke-width:1.5;stroke-linecap:butt;stroke-linejoin:miter;stroke-miterlimit:4;stroke-dasharray:none;stroke-opacity:1"
         d="M 170.6297,226.99105 L 184.94058,280.39999 M 115.05943,19.600009 L 128.7639,70.745783" />
      <path
         id="path8330"
         style="fill:none;stroke:#000000;stroke-width:1.5;stroke-linecap:butt;stroke-linejoin:miter;stroke-miterlimit:4;stroke-dasharray:none;stroke-opacity:1"
         d="M 150.00001,229.707 V 285 M 150.00001,14.999995 V 67.949997" />
      <path
         id="path8343"
         style="fill:none;stroke:#000000;stroke-width:1.5;stroke-linecap:butt;stroke-linejoin:miter;stroke-miterlimit:4;stroke-dasharray:none;stroke-opacity:1"
         d="M 70.774446,171.61313 L 19.231386,185.42997 M 280.03138,115.54883 L 228.8856,129.2533"
         sodipodi:nodetypes="cccc" />
      <path
         id="path8345"
         style="fill:none;stroke:#000000;stroke-width:1.5;stroke-linecap:butt;stroke-linejoin:miter;stroke-miterlimit:4;stroke-dasharray:none;stroke-opacity:1"
         d="M 78.658988,190.98092 L 32.244716,218.02798 M 266.07159,83.027977 L 220.21554,109.50298"
         sodipodi:nodetypes="cccc" />
      <path
         id="path8347"
         style="fill:none;stroke:#000000;stroke-width:1.5;stroke-linecap:butt;stroke-linejoin:miter;stroke-miterlimit:4;stroke-dasharray:none;stroke-opacity:1"
         d="M 93.031386,206.94209 L 53.933336,246.04015 M 244.85217,55.121307 L 207.41087,92.562612" />
      <path
         id="path8349"
         style="fill:none;stroke:#000000;stroke-width:1.5;stroke-linecap:butt;stroke-linejoin:miter;stroke-miterlimit:4;stroke-dasharray:none;stroke-opacity:1"
         d="M 109.8036,219.43068 L 82.157101,267.31582 M 217.15711,33.48896 L 190.68211,79.345007" />
      <path
         id="path8351"
         style="fill:none;stroke:#000000;stroke-width:1.5;stroke-linecap:butt;stroke-linejoin:miter;stroke-miterlimit:4;stroke-dasharray:none;stroke-opacity:1"
         d="M 129.37031,226.99105 L 115.05943,280.39999 M 184.94058,19.600009 L 171.23611,70.745783" />
    </g>
    <path
       id="circle2026"
       style="display:inline;fill:none;fill-opacity:1;stroke:#020607;stroke-width:1.88976;stroke-linecap:round;stroke-linejoin:round"
       d="M 188.97656,18.898438 C 95.045148,18.89844 18.89844,95.044969 18.898438,188.97638 C 18.898436,282.90779 95.045145,359.05469 188.97656,359.05469 C 282.90798,359.05469 359.05469,282.9078 359.05469,188.97638 C 359.05469,95.044963 282.90797,18.898436 188.97656,18.898438 Z M 187.5,85.605469 C 243.77483,85.605469 289.39453,132.70155 289.39453,188.97638 C 289.39453,245.2512 243.77482,289.39453 187.5,289.39453 C 131.22517,289.39453 85.605469,245.25121 85.605469,188.97638 C 85.605469,132.70155 131.22517,85.605469 187.5,85.605469 Z"
       sodipodi:nodetypes="ssssssssss"
       transform="scale(0.79375002)"
       sodipodi:insensitive="true" />
    <g
       id="g71794"
       transform="translate(-0.80772002,-63.168986)">
      <g
         aria-label="ω0"
         transform="scale(0.79375002)"
         id="text42685"
         style="font-size:18.6667px;line-height:1.25;font-family:'Liberation Sans';-inkscape-font-specification:'Liberation Sans';white-space:pre;shape-inside:url(#rect42687)">
        <path
           d="M 188.06186,132.44236 Q 188.06186,133.87335 188.5814,134.66632 Q 189.10093,135.45018 190.03062,135.45018 Q 191.06968,135.45018 191.5801,134.60252 Q 192.09963,133.75486 192.09963,131.86814 Q 192.09963,130.18194 191.49807,129.0973 Q 190.8965,128.00355 189.78452,127.74834 L 189.99416,126.48141 Q 191.17906,126.67282 192.03583,127.4111 Q 192.90172,128.14027 193.35745,129.29782 Q 193.82229,130.44626 193.82229,131.82257 Q 193.82229,134.15591 192.87437,135.44106 Q 191.93557,136.71711 190.20379,136.71711 Q 189.05535,136.71711 188.3353,136.13377 Q 187.62436,135.54132 187.31447,134.28351 H 187.27801 Q 186.96811,135.54132 186.24806,136.13377 Q 185.53712,136.71711 184.38868,136.71711 Q 182.65691,136.71711 181.70899,135.44106 Q 180.77018,134.15591 180.77018,131.82257 Q 180.77018,129.68975 181.80013,128.23142 Q 182.83008,126.77308 184.59832,126.48141 L 184.80795,127.74834 Q 183.72331,127.98532 183.10352,129.06084 Q 182.49284,130.12725 182.49284,131.86814 Q 182.49284,133.74575 182.99415,134.60252 Q 183.50456,135.45018 184.54363,135.45018 Q 185.47332,135.45018 186.01108,134.66632 Q 186.54884,133.87335 186.54884,132.44236 V 130.14548 H 188.06186 Z"
           style="font-size:18.6667px;line-height:1.25;font-family:'Liberation Sans';-inkscape-font-specification:'Liberation Sans';white-space:pre;shape-inside:url(#rect42687)"
           id="path71631" />
        <path
           d="M 200.55585,134.44869 Q 200.55585,136.60502 199.79228,137.74121 Q 199.03482,138.8774 197.55045,138.8774 Q 196.06607,138.8774 195.32082,137.74732 Q 194.57558,136.61723 194.57558,134.44869 Q 194.57558,132.23129 195.29639,131.12564 Q 196.02331,130.01999 197.58709,130.01999 Q 199.10813,130.01999 199.82893,131.13786 Q 200.55585,132.25572 200.55585,134.44869 Z M 199.43799,134.44869 Q 199.43799,132.58558 199.00428,131.74871 Q 198.57668,130.91184 197.58709,130.91184 Q 196.57307,130.91184 196.12715,131.73649 Q 195.68733,132.56115 195.68733,134.44869 Q 195.68733,136.28126 196.13326,137.13035 Q 196.58529,137.97944 197.56266,137.97944 Q 198.53392,137.97944 198.98596,137.11203 Q 199.43799,136.24461 199.43799,134.44869 Z"
           style="font-size:18.6667px;line-height:1.25;font-family:'Liberation Sans';-inkscape-font-specification:'Liberation Sans';white-space:pre;shape-inside:url(#rect42687);stroke-width:0.999998"
           id="path71633" />
      </g>
    </g>
    <g
       aria-label="ωn"
       transform="scale(0.79375002)"
       id="text76042"
       style="font-size:40px;line-height:1.25;font-family:'Liberation Sans';-inkscape-font-specification:'Liberation Sans';white-space:pre;shape-inside:url(#rect76044)">
      <g
         id="g92457"
         transform="matrix(0.50747464,0,0,0.50747464,100.18299,231.8624)"
         style="stroke-width:1.97054">
        <path
           d="M 173.51758,181.7919 Q 173.51758,184.8583 174.63086,186.55752 Q 175.74414,188.23721 177.73633,188.23721 Q 179.96289,188.23721 181.05664,186.4208 Q 182.16992,184.6044 182.16992,180.56143 Q 182.16992,176.94815 180.88086,174.62393 Q 179.5918,172.28018 177.20898,171.7333 L 177.6582,169.01846 Q 180.19727,169.42861 182.0332,171.01065 Q 183.88867,172.57315 184.86523,175.05361 Q 185.86133,177.51455 185.86133,180.46377 Q 185.86133,185.46377 183.83008,188.21768 Q 181.81836,190.95205 178.10742,190.95205 Q 175.64648,190.95205 174.10352,189.70205 Q 172.58008,188.43252 171.91602,185.73721 H 171.83789 Q 171.17383,188.43252 169.63086,189.70205 Q 168.10742,190.95205 165.64648,190.95205 Q 161.93555,190.95205 159.9043,188.21768 Q 157.89258,185.46377 157.89258,180.46377 Q 157.89258,175.89346 160.09961,172.76846 Q 162.30664,169.64346 166.0957,169.01846 L 166.54492,171.7333 Q 164.2207,172.24111 162.89258,174.5458 Q 161.58398,176.83096 161.58398,180.56143 Q 161.58398,184.58486 162.6582,186.4208 Q 163.75195,188.23721 165.97852,188.23721 Q 167.9707,188.23721 169.12305,186.55752 Q 170.27539,184.8583 170.27539,181.7919 V 176.87002 H 173.51758 Z"
           style="font-size:40px;line-height:1.25;font-family:'Liberation Sans';-inkscape-font-specification:'Liberation Sans';white-space:pre;shape-inside:url(#rect76044);stroke-width:1.97054"
           id="path89268" />
        <path
           d="M 197.1974,193.53776 V 184.56045 Q 197.1974,183.16021 196.92259,182.3881 Q 196.64777,181.616 196.0458,181.27576 Q 195.44382,180.93551 194.27913,180.93551 Q 192.57789,180.93551 191.59641,182.1002 Q 190.61492,183.2649 190.61492,185.33255 V 193.53776 H 188.25936 V 182.40119 Q 188.25936,179.92785 188.18084,179.37822 H 190.40554 Q 190.41863,179.44365 190.43171,179.73156 Q 190.4448,180.01946 190.45788,180.39896 Q 190.48406,180.76539 190.51023,181.79922 H 190.54949 Q 191.36085,180.33353 192.42085,179.73156 Q 193.49394,179.11649 195.0774,179.11649 Q 197.40679,179.11649 198.47988,180.28118 Q 199.56605,181.43279 199.56605,184.10243 V 193.53776 Z"
           style="font-size:40px;line-height:1.25;font-family:'Liberation Sans';-inkscape-font-specification:'Liberation Sans';white-space:pre;shape-inside:url(#rect76044);stroke-width:1.97054"
           id="path89270" />
      </g>
    </g>
    <text
       xml:space="preserve"
       transform="matrix(0.79375001,0,0,0.79375001,0.60819365,4.185658)"
       id="text18012"
       style="font-size:16px;line-height:1.25;font-family:'Noto Sans Display';-inkscape-font-specification:'Noto Sans Display';white-space:pre;shape-inside:url(#rect18014)"
       x="2.904"
       y="0"><tspan
         x="218.07573"
         y="55.655659"
         id="tspan89344"><tspan
           style="font-weight:bold;text-align:center;text-anchor:middle"
           id="tspan89342">1</tspan></tspan></text>
    <text
       xml:space="preserve"
       transform="matrix(0.79375001,0,0,0.79375001,-54.454243,4.0041134)"
       id="text31706"
       style="font-size:16px;line-height:1.25;font-family:'Noto Sans Display';-inkscape-font-specification:'Noto Sans Display';white-space:pre;shape-inside:url(#rect31708)"
       x="2.904"
       y="0"><tspan
         x="218.07573"
         y="55.655659"
         id="tspan89348"><tspan
           style="font-weight:bold;text-align:center;text-anchor:middle"
           id="tspan89346">2</tspan></tspan></text>
    <text
       xml:space="preserve"
       transform="matrix(0.79375001,0,0,0.79375001,27.203037,16.920119)"
       id="text31814"
       style="font-size:16px;line-height:1.25;font-family:'Noto Sans Display';-inkscape-font-specification:'Noto Sans Display';white-space:pre;shape-inside:url(#rect31816)"
       x="2.904"
       y="0"><tspan
         x="218.07573"
         y="55.655659"
         id="tspan89352"><tspan
           style="font-weight:bold;text-align:center;text-anchor:middle"
           id="tspan89350">3</tspan></tspan></text>
    <text
       xml:space="preserve"
       transform="matrix(0.79375001,0,0,0.79375001,50.0624,33.534487)"
       id="text35134"
       style="font-size:16px;line-height:1.25;font-family:'Noto Sans Display';-inkscape-font-specification:'Noto Sans Display';white-space:pre;shape-inside:url(#rect35136)"
       x="2.904"
       y="0"><tspan
         x="218.07573"
         y="55.655659"
         id="tspan89356"><tspan
           style="font-weight:bold;text-align:center;text-anchor:middle"
           id="tspan89354">5</tspan></tspan></text>
    <text
       xml:space="preserve"
       transform="matrix(0.79375001,0,0,0.79375001,65.961708,56.947789)"
       id="text41626"
       style="font-size:16px;line-height:1.25;font-family:'Noto Sans Display';-inkscape-font-specification:'Noto Sans Display';white-space:pre;shape-inside:url(#rect41628)"
       x="2.904"
       y="0"><tspan
         x="218.07573"
         y="55.655659"
         id="tspan89360"><tspan
           style="font-weight:bold;text-align:center;text-anchor:middle"
           id="tspan89358">7</tspan></tspan></text>
    <text
       xml:space="preserve"
       transform="matrix(0.79375001,0,0,0.79375001,76.157356,83.763131)"
       id="text44418"
       style="font-size:16px;line-height:1.25;font-family:'Noto Sans Display';-inkscape-font-specification:'Noto Sans Display';white-space:pre;shape-inside:url(#rect44420)"
       x="2.904"
       y="0"><tspan
         x="218.07573"
         y="55.655659"
         id="tspan89364"><tspan
           style="font-weight:bold;text-align:center;text-anchor:middle"
           id="tspan89362">9</tspan></tspan></text>
    <text
       xml:space="preserve"
       transform="matrix(0.79375001,0,0,0.79375001,79.385309,111.18383)"
       id="text45934"
       style="font-size:16px;line-height:1.25;font-family:'Noto Sans Display';-inkscape-font-specification:'Noto Sans Display';white-space:pre;shape-inside:url(#rect45936)"
       x="2.904"
       y="0"><tspan
         x="214.97372"
         y="55.655659"
         id="tspan89368"><tspan
           style="font-weight:bold;text-align:center;text-anchor:middle"
           id="tspan89366">11</tspan></tspan></text>
    <text
       xml:space="preserve"
       transform="matrix(0.79375001,0,0,0.79375001,77.667356,139.0389)"
       id="text52312"
       style="font-size:16px;line-height:1.25;font-family:'Noto Sans Display';-inkscape-font-specification:'Noto Sans Display';white-space:pre;shape-inside:url(#rect52314)"
       x="2.904"
       y="0"><tspan
         x="214.97372"
         y="55.655659"
         id="tspan89372"><tspan
           style="font-weight:bold;text-align:center;text-anchor:middle"
           id="tspan89370">13</tspan></tspan></text>
    <text
       xml:space="preserve"
       transform="matrix(0.79375001,0,0,0.79375001,66.179679,164.72872)"
       id="text56218"
       style="font-size:16px;line-height:1.25;font-family:'Noto Sans Display';-inkscape-font-specification:'Noto Sans Display';white-space:pre;shape-inside:url(#rect56220)"
       x="2.904"
       y="0"><tspan
         x="214.97372"
         y="55.655659"
         id="tspan89376"><tspan
           style="font-weight:bold;text-align:center;text-anchor:middle"
           id="tspan89374">15</tspan></tspan></text>
    <text
       xml:space="preserve"
       transform="matrix(0.79375001,0,0,0.79375001,48.782997,187.8761)"
       id="text63922"
       style="font-size:16px;line-height:1.25;font-family:'Noto Sans Display';-inkscape-font-specification:'Noto Sans Display';white-space:pre;shape-inside:url(#rect63924)"
       x="2.904"
       y="0"><tspan
         x="214.97372"
         y="55.655659"
         id="tspan89380"><tspan
           style="font-weight:bold;text-align:center;text-anchor:middle"
           id="tspan89378">17</tspan></tspan></text>
    <text
       xml:space="preserve"
       transform="matrix(0.79375001,0,0,0.79375001,27.156183,204.76893)"
       id="text66176"
       style="font-size:16px;line-height:1.25;font-family:'Noto Sans Display';-inkscape-font-specification:'Noto Sans Display';white-space:pre;shape-inside:url(#rect66178)"
       x="2.904"
       y="0"
       inkscape:transform-center-x="0.21967146"
       inkscape:transform-center-y="0.046853874"><tspan
         x="214.97372"
         y="55.655659"
         id="tspan89384"><tspan
           style="font-weight:bold;text-align:center;text-anchor:middle"
           id="tspan89382">19</tspan></tspan></text>
    <text
       xml:space="preserve"
       transform="matrix(0.79375001,0,0,0.79375001,0.32775032,216.32327)"
       id="text67862"
       style="font-size:16px;line-height:1.25;font-family:'Noto Sans Display';-inkscape-font-specification:'Noto Sans Display';white-space:pre;shape-inside:url(#rect67864)"
       x="2.904"
       y="0"
       inkscape:transform-center-x="0.21967146"
       inkscape:transform-center-y="0.046853874"><tspan
         x="214.97372"
         y="55.655659"
         id="tspan89388"><tspan
           style="font-weight:bold;text-align:center;text-anchor:middle"
           id="tspan89386">21</tspan></tspan></text>
    <text
       xml:space="preserve"
       transform="matrix(0.79375001,0,0,0.79375001,-55.342936,214.79416)"
       id="text70741"
       style="font-size:16px;line-height:1.25;font-family:'Noto Sans Display';-inkscape-font-specification:'Noto Sans Display';white-space:pre;shape-inside:url(#rect70743)"
       x="2.904"
       y="0"
       inkscape:transform-center-x="0.21967146"
       inkscape:transform-center-y="0.046853874"><tspan
         x="214.97372"
         y="55.655659"
         id="tspan89392"><tspan
           style="font-weight:bold;text-align:center;text-anchor:middle"
           id="tspan89390">22</tspan></tspan></text>
    <text
       xml:space="preserve"
       transform="matrix(0.79375001,0,0,0.79375001,-81.144086,203.18553)"
       id="text73437"
       style="font-size:16px;line-height:1.25;font-family:'Noto Sans Display';-inkscape-font-specification:'Noto Sans Display';white-space:pre;shape-inside:url(#rect73439)"
       x="2.904"
       y="0"
       inkscape:transform-center-x="0.21967146"
       inkscape:transform-center-y="0.046853874"><tspan
         x="214.97372"
         y="55.655659"
         id="tspan89396"><tspan
           style="font-weight:bold;text-align:center;text-anchor:middle"
           id="tspan89394">20</tspan></tspan></text>
    <text
       xml:space="preserve"
       transform="matrix(0.79375001,0,0,0.79375001,-103.19994,186.41683)"
       id="text74735"
       style="font-size:16px;line-height:1.25;font-family:'Noto Sans Display';-inkscape-font-specification:'Noto Sans Display';white-space:pre;shape-inside:url(#rect74737)"
       x="2.904"
       y="0"
       inkscape:transform-center-x="0.21967146"
       inkscape:transform-center-y="0.046853874"><tspan
         x="214.97372"
         y="55.655659"
         id="tspan89400"><tspan
           style="font-weight:bold;text-align:center;text-anchor:middle"
           id="tspan89398">18</tspan></tspan></text>
    <text
       xml:space="preserve"
       transform="matrix(0.79375001,0,0,0.79375001,-122.7791,163.5387)"
       id="text76111"
       style="font-size:16px;line-height:1.25;font-family:'Noto Sans Display';-inkscape-font-specification:'Noto Sans Display';white-space:pre;shape-inside:url(#rect76113)"
       x="2.904"
       y="0"
       inkscape:transform-center-x="0.21967146"
       inkscape:transform-center-y="0.046853874"><tspan
         x="214.97372"
         y="55.655659"
         id="tspan89404"><tspan
           style="font-weight:bold;text-align:center;text-anchor:middle"
           id="tspan89402">16</tspan></tspan></text>
    <text
       xml:space="preserve"
       transform="matrix(0.79375001,0,0,0.79375001,-133.18347,138.54571)"
       id="text79051"
       style="font-size:16px;line-height:1.25;font-family:'Noto Sans Display';-inkscape-font-specification:'Noto Sans Display';white-space:pre;shape-inside:url(#rect79053)"
       x="2.904"
       y="0"
       inkscape:transform-center-x="0.21967146"
       inkscape:transform-center-y="0.046853874"><tspan
         x="214.97372"
         y="55.655659"
         id="tspan89408"><tspan
           style="font-weight:bold;text-align:center;text-anchor:middle"
           id="tspan89406">14</tspan></tspan></text>
    <text
       xml:space="preserve"
       transform="matrix(0.79375001,0,0,0.79375001,-135.32728,110.54867)"
       id="text80691"
       style="font-size:16px;line-height:1.25;font-family:'Noto Sans Display';-inkscape-font-specification:'Noto Sans Display';white-space:pre;shape-inside:url(#rect80693)"
       x="2.904"
       y="0"
       inkscape:transform-center-x="0.21967146"
       inkscape:transform-center-y="0.046853874"><tspan
         x="214.97372"
         y="55.655659"
         id="tspan89412"><tspan
           style="font-weight:bold;text-align:center;text-anchor:middle"
           id="tspan89410">12</tspan></tspan></text>
    <text
       xml:space="preserve"
       transform="matrix(0.79375001,0,0,0.79375001,-131.03306,82.454061)"
       id="text82233"
       style="font-size:16px;line-height:1.25;font-family:'Noto Sans Display';-inkscape-font-specification:'Noto Sans Display';white-space:pre;shape-inside:url(#rect82235)"
       x="2.904"
       y="0"
       inkscape:transform-center-x="0.21967146"
       inkscape:transform-center-y="0.046853874"><tspan
         x="214.97372"
         y="55.655659"
         id="tspan89416"><tspan
           style="font-weight:bold;text-align:center;text-anchor:middle"
           id="tspan89414">10</tspan></tspan></text>
    <text
       xml:space="preserve"
       transform="matrix(0.79375001,0,0,0.79375001,-118.95861,57.607325)"
       id="text85925"
       style="font-size:16px;line-height:1.25;font-family:'Noto Sans Display';-inkscape-font-specification:'Noto Sans Display';white-space:pre;shape-inside:url(#rect85927)"
       x="2.904"
       y="0"><tspan
         x="218.07573"
         y="55.655659"
         id="tspan89420"><tspan
           style="font-weight:bold;text-align:center;text-anchor:middle"
           id="tspan89418">8</tspan></tspan></text>
    <text
       xml:space="preserve"
       transform="matrix(0.79375001,0,0,0.79375001,-102.51996,33.569871)"
       id="text87037"
       style="font-size:16px;line-height:1.25;font-family:'Noto Sans Display';-inkscape-font-specification:'Noto Sans Display';white-space:pre;shape-inside:url(#rect87039)"
       x="2.904"
       y="0"><tspan
         x="218.07573"
         y="55.655659"
         id="tspan89424"><tspan
           style="font-weight:bold;text-align:center;text-anchor:middle"
           id="tspan89422">6</tspan></tspan></text>
    <text
       xml:space="preserve"
       transform="matrix(0.79375001,0,0,0.79375001,-82.009059,13.006608)"
       id="text87929"
       style="font-size:16px;line-height:1.25;font-family:'Noto Sans Display';-inkscape-font-specification:'Noto Sans Display';white-space:pre;shape-inside:url(#rect87931)"
       x="2.904"
       y="0"><tspan
         x="218.07573"
         y="55.655659"
         id="tspan89428"><tspan
           style="font-weight:bold;text-align:center;text-anchor:middle"
           id="tspan89426">4</tspan></tspan></text>
  </g>
</svg>
