<?xml version="1.0" encoding="UTF-8" standalone="no"?>
<!-- Created with Inkscape (http://www.inkscape.org/) -->

<svg
   width="100mm"
   height="100mm"
   viewBox="0 0 300 300.00001"
   version="1.1"
   id="svg5"
   inkscape:version="1.1 (c68e22c387, 2021-05-23)"
   sodipodi:docname="spectralpermutation.svg"
   xmlns:inkscape="http://www.inkscape.org/namespaces/inkscape"
   xmlns:sodipodi="http://sodipodi.sourceforge.net/DTD/sodipodi-0.dtd"
   xmlns:xlink="http://www.w3.org/1999/xlink"
   xmlns="http://www.w3.org/2000/svg"
   xmlns:svg="http://www.w3.org/2000/svg">
  <sodipodi:namedview
     id="namedview7"
     pagecolor="#ffffff"
     bordercolor="#c7f2fb"
     borderopacity="1"
     inkscape:pageshadow="2"
     inkscape:pageopacity="0.0"
     inkscape:pagecheckerboard="true"
     inkscape:document-units="mm"
     showgrid="false"
     width="300mm"
     inkscape:snap-global="false"
     inkscape:zoom="2.137267"
     inkscape:cx="146.68266"
     inkscape:cy="225.98955"
     inkscape:window-width="1680"
     inkscape:window-height="978"
     inkscape:window-x="0"
     inkscape:window-y="28"
     inkscape:window-maximized="1"
     inkscape:current-layer="svg5"
     inkscape:snap-bbox="true"
     inkscape:snap-others="false"
     scale-x="3"
     inkscape:object-nodes="true"
     inkscape:snap-grids="false"
     inkscape:snap-to-guides="false"
     inkscape:object-paths="true"
     inkscape:bbox-nodes="true"
     inkscape:snap-smooth-nodes="false"
     inkscape:snap-nodes="true" />
  <defs
     id="defs2">
    <rect
       x="214.58865"
       y="41.096888"
       width="15.679821"
       height="22.761898"
       id="rect18014" />
    <rect
       x="127.27001"
       y="223.66598"
       width="147.82784"
       height="81.936497"
       id="rect5833" />
    <rect
       x="141.68007"
       y="150.29382"
       width="105.2564"
       height="58.361564"
       id="rect188900" />
    <rect
       x="136.86106"
       y="149.0378"
       width="106.88755"
       height="48.995521"
       id="rect174058" />
    <rect
       x="142.3325"
       y="138.17995"
       width="113.04249"
       height="71.467353"
       id="rect158869" />
    <rect
       x="145.87701"
       y="117.84126"
       width="118.86073"
       height="55.305959"
       id="rect150752" />
    <rect
       x="143.19542"
       y="127.04062"
       width="53.052788"
       height="48.050439"
       id="rect126872" />
    <rect
       x="126.08535"
       y="182.24609"
       width="139.93083"
       height="35.274103"
       id="rect94683" />
    <rect
       x="156.27173"
       y="154.53199"
       width="71.590046"
       height="61.505007"
       id="rect76044" />
    <rect
       x="180.01453"
       y="119.72036"
       width="30.517003"
       height="23.422415"
       id="rect42687" />
    <linearGradient
       inkscape:collect="always"
       id="Backgradient">
      <stop
         style="stop-color:#d9eaf2;stop-opacity:1"
         offset="0"
         id="stop960" />
      <stop
         style="stop-color:#f0f0dc;stop-opacity:1"
         offset="1"
         id="stop962" />
    </linearGradient>
    <rect
       x="280.44116"
       y="93.903404"
       width="348.69312"
       height="65.019081"
       id="rect73495" />
    <rect
       x="810.34015"
       y="76.609459"
       width="158.12024"
       height="40.934669"
       id="rect22919" />
    <rect
       x="836.91852"
       y="121.90139"
       width="85.342522"
       height="79.572823"
       id="rect9322" />
    <rect
       x="126.4501"
       y="353.63721"
       width="188.33687"
       height="141.26376"
       id="rect4811" />
    <rect
       x="735.84259"
       y="812.22839"
       width="232.6528"
       height="159.1553"
       id="rect111452" />
    <rect
       x="117.87085"
       y="281.94232"
       width="315.23315"
       height="240.20856"
       id="rect103135" />
    <rect
       x="955.68018"
       y="533.83032"
       width="46.705185"
       height="49.647881"
       id="rect94166" />
    <rect
       x="166.27986"
       y="640.80829"
       width="37.033524"
       height="48.738281"
       id="rect86164" />
    <rect
       x="186.27026"
       y="608.54156"
       width="35.770874"
       height="50.68338"
       id="rect75075" />
    <rect
       x="190.41675"
       y="374.6709"
       width="96.829758"
       height="63.563358"
       id="rect8790" />
    <rect
       x="810.34015"
       y="76.609459"
       width="255.82944"
       height="41.197124"
       id="rect41481" />
    <rect
       x="810.34015"
       y="76.609459"
       width="302.93381"
       height="41.197124"
       id="rect54249" />
    <rect
       x="810.34015"
       y="76.609459"
       width="302.93381"
       height="41.197124"
       id="rect58785" />
    <linearGradient
       inkscape:collect="always"
       xlink:href="#Backgradient"
       id="linearGradient966"
       x1="149.94312"
       y1="-1.1761929"
       x2="150.42719"
       y2="299.92682"
       gradientUnits="userSpaceOnUse"
       gradientTransform="scale(1.2598425)" />
    <clipPath
       clipPathUnits="userSpaceOnUse"
       id="clipPath1363">
      <path
         d="M 0,0.028 H 594.935 V 841.917 H 0 Z"
         clip-rule="evenodd"
         id="path1361" />
    </clipPath>
    <clipPath
       clipPathUnits="userSpaceOnUse"
       id="clipPath1389">
      <path
         d="M 61.71,113.215 H 537.59 V 753.929 H 61.71 Z"
         clip-rule="evenodd"
         id="path1387" />
    </clipPath>
    <clipPath
       clipPathUnits="userSpaceOnUse"
       id="clipPath1712">
      <path
         d="M 0,0.028 H 594.935 V 841.917 H 0 Z"
         clip-rule="evenodd"
         id="path1710" />
    </clipPath>
    <clipPath
       clipPathUnits="userSpaceOnUse"
       id="clipPath1738">
      <path
         d="M 61.71,113.215 H 537.59 V 753.929 H 61.71 Z"
         clip-rule="evenodd"
         id="path1736" />
    </clipPath>
    <rect
       x="214.58865"
       y="41.096888"
       width="15.679821"
       height="22.761898"
       id="rect31708" />
    <rect
       x="214.58865"
       y="41.096888"
       width="15.679821"
       height="22.761898"
       id="rect31816" />
    <rect
       x="214.58865"
       y="41.096888"
       width="15.679821"
       height="22.761898"
       id="rect35136" />
    <rect
       x="214.58865"
       y="41.096888"
       width="15.679821"
       height="22.761898"
       id="rect41628" />
    <rect
       x="214.58865"
       y="41.096888"
       width="15.679821"
       height="22.761898"
       id="rect44420" />
    <rect
       x="214.58865"
       y="41.096888"
       width="18.179608"
       height="23.634989"
       id="rect45936" />
    <rect
       x="214.58865"
       y="41.096888"
       width="18.179608"
       height="23.634989"
       id="rect52314" />
    <rect
       x="214.58865"
       y="41.096888"
       width="18.179608"
       height="23.634989"
       id="rect56220" />
    <rect
       x="214.58865"
       y="41.096888"
       width="18.179608"
       height="23.634989"
       id="rect63924" />
    <rect
       x="214.58865"
       y="41.096888"
       width="18.179608"
       height="23.634989"
       id="rect66178" />
    <rect
       x="214.58865"
       y="41.096888"
       width="18.179608"
       height="23.634989"
       id="rect67864" />
    <rect
       x="214.58865"
       y="41.096888"
       width="18.179608"
       height="23.634989"
       id="rect70743" />
    <rect
       x="214.58865"
       y="41.096888"
       width="18.179608"
       height="23.634989"
       id="rect73439" />
    <rect
       x="214.58865"
       y="41.096888"
       width="18.179608"
       height="23.634989"
       id="rect74737" />
    <rect
       x="214.58865"
       y="41.096888"
       width="18.179608"
       height="23.634989"
       id="rect76113" />
    <rect
       x="214.58865"
       y="41.096888"
       width="18.179608"
       height="23.634989"
       id="rect79053" />
    <rect
       x="214.58865"
       y="41.096888"
       width="18.179608"
       height="23.634989"
       id="rect80693" />
    <rect
       x="214.58865"
       y="41.096888"
       width="18.179608"
       height="23.634989"
       id="rect82235" />
    <rect
       x="214.58865"
       y="41.096888"
       width="15.679821"
       height="22.761898"
       id="rect85927" />
    <rect
       x="214.58865"
       y="41.096888"
       width="15.679821"
       height="22.761898"
       id="rect87039" />
    <rect
       x="214.58865"
       y="41.096888"
       width="15.679821"
       height="22.761898"
       id="rect87931" />
  </defs>
  <g
     inkscape:label="Layer 1"
     id="layer1"
     style="display:inline"
     sodipodi:insensitive="true">
    <path
       id="rect120965"
       style="font-size:40px;line-height:1.25;font-family:Dingbats;-inkscape-font-specification:Dingbats;white-space:pre;shape-inside:url(#rect103135);display:inline;fill:url(#linearGradient966);fill-opacity:1;fill-rule:nonzero;stroke:#40a9be;stroke-width:0.629921;stroke-linecap:round;stroke-linejoin:round;stroke-miterlimit:4;stroke-dasharray:none;stroke-opacity:1"
       d="M 0,0 V 377.95312 H 377.95312 V 0 Z"
       transform="scale(0.79375002)"
       sodipodi:insensitive="true" />
    <g
       id="g12068"
       sodipodi:insensitive="true">
      <path
         style="display:inline;fill:#ff80e5;stroke:#020607;stroke-width:0.944882;stroke-linecap:round;stroke-linejoin:round;stroke-miterlimit:4;stroke-dasharray:none;stroke-opacity:1"
         d="M 211.13153,20.328329 C 203.88006,19.385005 196.48513,18.898438 188.97656,18.898438 C 181.43748,18.898438 174.01298,19.388967 166.73321,20.33985 L 175.46588,86.330714 C 179.41265,85.852004 183.42844,85.605469 187.5,85.605469 C 192.57677,85.605469 197.56682,85.988762 202.44449,86.72751 Z"
         transform="scale(0.79375002)"
         id="path11639"
         inkscape:label="freq_0" />
      <path
         style="display:inline;fill:#80b3ff;stroke:#020607;stroke-width:0.982677;stroke-linecap:round;stroke-linejoin:round;stroke-miterlimit:4;stroke-dasharray:none;stroke-opacity:1"
         d="M 166.67721,357.60595 C 173.9749,358.56164 181.41815,359.05469 188.97656,359.05469 C 196.45959,359.05469 203.82974,358.57143 211.05752,357.6344 L 201.93014,288.41223 C 197.2162,289.06006 192.39847,289.39453 187.5,289.39453 C 183.54358,289.39453 179.63983,289.17634 175.80089,288.75107 Z"
         transform="scale(0.79375002)"
         id="path8834"
         inkscape:label="freq_n" />
    </g>
    <g
       id="g12074"
       transform="rotate(15,148.34995,148.29098)"
       sodipodi:insensitive="true">
      <path
         style="display:inline;fill:#f7c5d4;fill-opacity:1;stroke:#020607;stroke-width:0.944882;stroke-linecap:round;stroke-linejoin:round;stroke-miterlimit:4;stroke-dasharray:none;stroke-opacity:1"
         d="M 211.63953,19.694103 C 196.44247,17.823238 181.46345,17.922004 167.3042,19.735868 L 176.00805,86.114352 C 185.00563,85.531822 193.92205,85.438053 202.77504,86.516162 Z"
         transform="scale(0.79375002)"
         id="path12070"
         inkscape:label="freq_0"
         sodipodi:nodetypes="ccccc" />
      <path
         style="display:inline;fill:#c5e6f7;fill-opacity:1;stroke:#020607;stroke-width:0.982677;stroke-linecap:round;stroke-linejoin:round;stroke-miterlimit:4;stroke-dasharray:none;stroke-opacity:1"
         d="M 167.01669,357.61687 C 183.26791,358.55491 197.1156,358.87895 211.62142,356.99407 L 202.55985,288.15 C 193.45199,289.66485 184.52215,289.48489 176.12604,288.55458 Z"
         transform="scale(0.79375002)"
         id="path12072"
         inkscape:label="freq_n"
         sodipodi:nodetypes="ccccc" />
    </g>
    <g
       id="g12224"
       transform="rotate(30,149.51206,148.42304)"
       sodipodi:insensitive="true">
      <path
         style="display:inline;fill:#f7c5d4;fill-opacity:1;stroke:#020607;stroke-width:0.944882;stroke-linecap:round;stroke-linejoin:round;stroke-miterlimit:4;stroke-dasharray:none;stroke-opacity:1"
         d="M 212.48881,19.824839 C 197.17652,17.902055 181.89263,17.561072 167.65322,19.739528 L 176.3856,86.57898 C 185.24857,85.215651 194.82774,86.334687 203.16487,87.573057 Z"
         transform="scale(0.79375002)"
         id="path12220"
         inkscape:label="freq_0"
         sodipodi:nodetypes="ccccc" />
      <path
         style="display:inline;fill:#c5e6f7;fill-opacity:1;stroke:#020607;stroke-width:0.982677;stroke-linecap:round;stroke-linejoin:round;stroke-miterlimit:4;stroke-dasharray:none;stroke-opacity:1"
         d="M 167.62684,357.0264 C 183.57682,359.20615 197.28904,358.3548 212.01171,357.6971 L 202.93603,288.63037 C 193.9747,289.37728 184.55555,290.15128 176.59407,289.00494 Z"
         transform="scale(0.79375002)"
         id="path12222"
         inkscape:label="freq_n"
         sodipodi:nodetypes="ccccc" />
    </g>
    <g
       id="g12230"
       transform="rotate(45,149.14642,148.09604)"
       sodipodi:insensitive="true">
      <path
         style="display:inline;fill:#f7c5d4;fill-opacity:1;stroke:#020607;stroke-width:0.944882;stroke-linecap:round;stroke-linejoin:round;stroke-miterlimit:4;stroke-dasharray:none;stroke-opacity:1"
         d="M 212.78489,18.911614 C 197.80918,17.509588 181.94209,17.128516 168.55764,18.829883 L 177.08594,86.682848 C 186.11453,86.251283 194.83362,86.089468 203.69251,87.354769 Z"
         transform="scale(0.79375002)"
         id="path12226"
         inkscape:label="freq_0"
         sodipodi:nodetypes="ccccc" />
      <path
         style="display:inline;fill:#c5e6f7;fill-opacity:1;stroke:#020607;stroke-width:0.982677;stroke-linecap:round;stroke-linejoin:round;stroke-miterlimit:4;stroke-dasharray:none;stroke-opacity:1"
         d="M 168.152,356.14418 C 183.22717,357.51848 197.57164,358.06808 212.4985,356.15271 L 203.55492,288.12814 C 194.15052,289.4558 184.54769,289.70137 175.80089,288.75107 Z"
         transform="scale(0.79375002)"
         id="path12228"
         inkscape:label="freq_n"
         sodipodi:nodetypes="ccccc" />
    </g>
    <g
       id="g12236"
       transform="rotate(60,149.14858,148.63707)"
       sodipodi:insensitive="true">
      <path
         style="display:inline;fill:#f7c5d4;fill-opacity:1;stroke:#020607;stroke-width:0.944882;stroke-linecap:round;stroke-linejoin:round;stroke-miterlimit:4;stroke-dasharray:none;stroke-opacity:1"
         d="M 212.55968,19.235701 C 198.07024,17.270121 181.81999,16.015382 167.95289,18.527434 L 176.88471,86.991726 C 185.65873,86.507865 194.6925,86.170368 202.92458,87.393135 Z"
         transform="scale(0.79375002)"
         id="path12232"
         inkscape:label="freq_0"
         sodipodi:nodetypes="ccccc" />
      <path
         style="display:inline;fill:#c5e6f7;fill-opacity:1;stroke:#020607;stroke-width:0.982677;stroke-linecap:round;stroke-linejoin:round;stroke-miterlimit:4;stroke-dasharray:none;stroke-opacity:1"
         d="M 168.07798,356.47226 C 184.70361,357.21967 196.73323,357.44897 212.12304,355.82092 L 202.06868,288.7445 C 192.9959,289.61311 185.30435,290.73705 176.86221,289.81985 Z"
         transform="scale(0.79375002)"
         id="path12234"
         inkscape:label="freq_n"
         sodipodi:nodetypes="ccccc" />
    </g>
    <g
       id="g12242"
       transform="rotate(75,149.15033,148.97646)"
       sodipodi:insensitive="true">
      <path
         style="display:inline;fill:#f7c5d4;fill-opacity:1;stroke:#020607;stroke-width:0.944882;stroke-linecap:round;stroke-linejoin:round;stroke-miterlimit:4;stroke-dasharray:none;stroke-opacity:1"
         d="M 211.66938,18.368362 C 198.05042,16.157737 181.67567,16.402452 167.82047,18.898574 L 176.15412,87.227348 C 185.75999,86.286947 194.03241,86.604455 202.34918,87.375204 Z"
         transform="scale(0.79375002)"
         id="path12238"
         inkscape:label="freq_0"
         sodipodi:nodetypes="ccccc" />
      <path
         style="display:inline;fill:#c5e6f7;fill-opacity:1;stroke:#020607;stroke-width:0.982677;stroke-linecap:round;stroke-linejoin:round;stroke-miterlimit:4;stroke-dasharray:none;stroke-opacity:1"
         d="M 167.18769,355.60492 C 183.12034,356.98488 197.25842,357.24812 212.13769,356.15679 L 203.37169,289.50198 C 193.66402,290.18692 184.45971,291.06629 175.91104,289.46908 Z"
         transform="scale(0.79375002)"
         id="path12240"
         inkscape:label="freq_n"
         sodipodi:nodetypes="ccccc" />
    </g>
    <g
       id="g12248"
       transform="rotate(90,149.15163,149.21587)"
       sodipodi:insensitive="true">
      <path
         style="display:inline;fill:#f7c5d4;fill-opacity:1;stroke:#020607;stroke-width:0.944882;stroke-linecap:round;stroke-linejoin:round;stroke-miterlimit:4;stroke-dasharray:none;stroke-opacity:1"
         d="M 211.13628,18.301393 C 195.93922,16.430529 180.89608,16.476707 166.73683,18.290571 L 175.59449,87.358307 C 184.7444,86.290783 193.99998,86.426428 202.39215,87.391193 Z"
         transform="scale(0.79375002)"
         id="path12244"
         inkscape:label="freq_0"
         sodipodi:nodetypes="ccccc" />
      <path
         style="display:inline;fill:#c5e6f7;fill-opacity:1;stroke:#020607;stroke-width:0.982677;stroke-linecap:round;stroke-linejoin:round;stroke-miterlimit:4;stroke-dasharray:none;stroke-opacity:1"
         d="M 166.6546,355.53795 C 184.78499,357.20115 194.83951,356.89569 211.05405,355.54878 L 202.36295,289.4087 C 193.0304,290.38022 184.02432,290.28584 175.37795,289.40212 Z"
         transform="scale(0.79375002)"
         id="path12246"
         inkscape:label="freq_n"
         sodipodi:nodetypes="ccccc" />
    </g>
    <g
       id="g12254"
       transform="rotate(105,149.15069,149.39916)"
       sodipodi:insensitive="true">
      <path
         style="display:inline;fill:#f7c5d4;fill-opacity:1;stroke:#020607;stroke-width:0.944882;stroke-linecap:round;stroke-linejoin:round;stroke-miterlimit:4;stroke-dasharray:none;stroke-opacity:1"
         d="M 210.60145,18.371673 C 196.83402,17.076992 179.26769,16.817514 166.20199,18.360843 L 175.63756,87.359614 C 184.61006,85.792788 193.48001,86.193957 201.49209,87.433965 Z"
         transform="scale(0.79375002)"
         id="path12250"
         inkscape:label="freq_0"
         sodipodi:nodetypes="ccccc" />
      <path
         style="display:inline;fill:#c5e6f7;fill-opacity:1;stroke:#020607;stroke-width:0.982677;stroke-linecap:round;stroke-linejoin:round;stroke-miterlimit:4;stroke-dasharray:none;stroke-opacity:1"
         d="M 166.11976,355.60823 C 182.87285,357.02427 196.35315,357.42022 210.51922,355.61905 L 201.82813,289.47897 C 192.80817,290.26796 184.3462,290.5881 174.84312,289.47239 Z"
         transform="scale(0.79375002)"
         id="path12252"
         inkscape:label="freq_n"
         sodipodi:nodetypes="ccccc" />
    </g>
    <g
       id="g12260"
       transform="rotate(120,149.14958,149.55016)"
       sodipodi:insensitive="true">
      <path
         style="display:inline;fill:#f7c5d4;fill-opacity:1;stroke:#020607;stroke-width:0.944882;stroke-linecap:round;stroke-linejoin:round;stroke-miterlimit:4;stroke-dasharray:none;stroke-opacity:1"
         d="M 210.10093,18.580148 C 194.87721,17.170289 180.4412,17.247055 165.70146,18.569319 L 174.77713,87.636047 C 184.73629,86.726169 192.99887,86.876363 200.99156,87.642443 Z"
         transform="scale(0.79375002)"
         id="path12256"
         inkscape:label="freq_0"
         sodipodi:nodetypes="ccccc" />
      <path
         style="display:inline;fill:#c5e6f7;fill-opacity:1;stroke:#020607;stroke-width:0.982677;stroke-linecap:round;stroke-linejoin:round;stroke-miterlimit:4;stroke-dasharray:none;stroke-opacity:1"
         d="M 165.61923,355.8167 C 180.99318,357.47726 196.33651,357.6985 210.01869,355.82753 L 201.32759,289.68744 C 192.79159,290.45519 183.391,290.57384 174.34258,289.68086 Z"
         transform="scale(0.79375002)"
         id="path12258"
         inkscape:label="freq_n"
         sodipodi:nodetypes="ccccc" />
    </g>
    <g
       id="g12266"
       transform="rotate(135,149.28534,149.61289)"
       sodipodi:insensitive="true">
      <path
         style="display:inline;fill:#f7c5d4;fill-opacity:1;stroke:#020607;stroke-width:0.944882;stroke-linecap:round;stroke-linejoin:round;stroke-miterlimit:4;stroke-dasharray:none;stroke-opacity:1"
         d="M 210.02506,18.888893 C 193.96554,17.540576 179.78666,17.58651 165.62561,18.878066 L 174.70127,87.944799 C 185.42864,86.013913 192.47948,87.981795 200.9157,87.951187 Z"
         transform="scale(0.79375002)"
         id="path12262"
         inkscape:label="freq_0"
         sodipodi:nodetypes="ccccc" />
      <path
         style="display:inline;fill:#c5e6f7;fill-opacity:1;stroke:#020607;stroke-width:0.982677;stroke-linecap:round;stroke-linejoin:round;stroke-miterlimit:4;stroke-dasharray:none;stroke-opacity:1"
         d="M 165.54337,356.12544 C 181.7559,357.97345 196.86395,358.17695 209.94283,356.13627 L 201.25172,289.99619 C 191.79956,291.06932 182.82777,291.05538 174.26672,289.98961 Z"
         transform="scale(0.79375002)"
         id="path12264"
         inkscape:label="freq_n"
         sodipodi:nodetypes="ccccc" />
    </g>
    <g
       id="g12272"
       transform="rotate(150,149.19725,149.54256)"
       sodipodi:insensitive="true">
      <path
         style="display:inline;fill:#f7c5d4;fill-opacity:1;stroke:#020607;stroke-width:0.944882;stroke-linecap:round;stroke-linejoin:round;stroke-miterlimit:4;stroke-dasharray:none;stroke-opacity:1"
         d="M 209.61818,18.77703 C 194.39272,17.139406 180.13104,16.88528 165.21872,18.766207 L 174.29439,87.832934 C 185.13317,87.189032 192.50424,87.284972 200.50882,87.83933 Z"
         transform="scale(0.79375002)"
         id="path12268"
         inkscape:label="freq_0"
         sodipodi:nodetypes="ccccc" />
      <path
         style="display:inline;fill:#c5e6f7;fill-opacity:1;stroke:#020607;stroke-width:0.982677;stroke-linecap:round;stroke-linejoin:round;stroke-miterlimit:4;stroke-dasharray:none;stroke-opacity:1"
         d="M 165.13649,356.01358 C 180.30714,357.69762 196.14978,357.8462 209.53595,356.0244 L 200.84485,289.88433 C 192.97479,291.0363 182.78823,291.77035 173.85984,289.87775 Z"
         transform="scale(0.79375002)"
         id="path12270"
         inkscape:label="freq_n"
         sodipodi:nodetypes="ccccc" />
    </g>
    <g
       id="g12278"
       transform="rotate(165,149.43766,149.41651)"
       sodipodi:insensitive="true">
      <path
         style="display:inline;fill:#f7c5d4;fill-opacity:1;stroke:#020607;stroke-width:0.944882;stroke-linecap:round;stroke-linejoin:round;stroke-miterlimit:4;stroke-dasharray:none;stroke-opacity:1"
         d="M 210.01469,18.729575 C 194.20123,17.353785 179.95029,17.005358 165.61523,18.718745 L 174.6909,87.785479 C 183.84081,86.717955 192.52145,86.688518 200.99737,87.947504 Z"
         transform="scale(0.79375002)"
         id="path12274"
         inkscape:label="freq_0"
         sodipodi:nodetypes="ccccc" />
      <path
         style="display:inline;fill:#c5e6f7;fill-opacity:1;stroke:#020607;stroke-width:0.982677;stroke-linecap:round;stroke-linejoin:round;stroke-miterlimit:4;stroke-dasharray:none;stroke-opacity:1"
         d="M 165.53299,355.96612 C 180.73371,357.84782 195.76639,357.77811 209.93246,355.97695 L 201.24136,289.83687 C 192.5171,291.29102 183.71467,291.43106 174.25734,289.99271 Z"
         transform="scale(0.79375002)"
         id="path12276"
         inkscape:label="freq_n"
         sodipodi:nodetypes="ccccc" />
    </g>
    <g
       id="g8832"
       transform="rotate(-7.4860289,150,150)"
       inkscape:label="freqdiv"
       sodipodi:insensitive="true"
       style="display:none">
      <path
         id="path7408"
         style="fill:none;stroke:#000000;stroke-width:1.5;stroke-linecap:butt;stroke-linejoin:miter;stroke-miterlimit:4;stroke-dasharray:none;stroke-opacity:1"
         d="M 229.70701,150 H 285.00001 M 15,150 H 67.950002" />
      <path
         id="path8320"
         style="fill:none;stroke:#000000;stroke-width:1.5;stroke-linecap:butt;stroke-linejoin:miter;stroke-miterlimit:4;stroke-dasharray:none;stroke-opacity:1"
         d="M 226.99106,170.62969 L 280.4,184.94057 M 19.600014,115.05943 L 70.745788,128.7639" />
      <path
         id="path8322"
         style="fill:none;stroke:#000000;stroke-width:1.5;stroke-linecap:butt;stroke-linejoin:miter;stroke-miterlimit:4;stroke-dasharray:none;stroke-opacity:1"
         d="M 219.0283,189.8535 L 266.91344,217.5 M 33.086571,82.499997 L 78.942618,108.975" />
      <path
         id="path8324"
         style="fill:none;stroke:#000000;stroke-width:1.5;stroke-linecap:butt;stroke-linejoin:miter;stroke-miterlimit:4;stroke-dasharray:none;stroke-opacity:1"
         d="M 206.36137,206.36136 L 245.45942,245.45942 M 54.540586,54.540581 L 91.981891,91.981886" />
      <path
         id="path8326"
         style="fill:none;stroke:#000000;stroke-width:1.5;stroke-linecap:butt;stroke-linejoin:miter;stroke-miterlimit:4;stroke-dasharray:none;stroke-opacity:1"
         d="M 189.85351,219.02829 L 217.50001,266.91343 M 82.500002,33.086566 L 108.975,78.942613" />
      <path
         id="path8328"
         style="fill:none;stroke:#000000;stroke-width:1.5;stroke-linecap:butt;stroke-linejoin:miter;stroke-miterlimit:4;stroke-dasharray:none;stroke-opacity:1"
         d="M 170.6297,226.99105 L 184.94058,280.39999 M 115.05943,19.600009 L 128.7639,70.745783" />
      <path
         id="path8330"
         style="fill:none;stroke:#000000;stroke-width:1.5;stroke-linecap:butt;stroke-linejoin:miter;stroke-miterlimit:4;stroke-dasharray:none;stroke-opacity:1"
         d="M 150.00001,229.707 V 285 M 150.00001,14.999995 V 67.949997" />
      <path
         id="path8343"
         style="fill:none;stroke:#000000;stroke-width:1.5;stroke-linecap:butt;stroke-linejoin:miter;stroke-miterlimit:4;stroke-dasharray:none;stroke-opacity:1"
         d="M 70.774446,171.61313 L 19.231386,185.42997 M 280.03138,115.54883 L 228.8856,129.2533"
         sodipodi:nodetypes="cccc" />
      <path
         id="path8345"
         style="fill:none;stroke:#000000;stroke-width:1.5;stroke-linecap:butt;stroke-linejoin:miter;stroke-miterlimit:4;stroke-dasharray:none;stroke-opacity:1"
         d="M 78.658988,190.98092 L 32.244716,218.02798 M 266.07159,83.027977 L 220.21554,109.50298"
         sodipodi:nodetypes="cccc" />
      <path
         id="path8347"
         style="fill:none;stroke:#000000;stroke-width:1.5;stroke-linecap:butt;stroke-linejoin:miter;stroke-miterlimit:4;stroke-dasharray:none;stroke-opacity:1"
         d="M 93.031386,206.94209 L 53.933336,246.04015 M 244.85217,55.121307 L 207.41087,92.562612" />
      <path
         id="path8349"
         style="fill:none;stroke:#000000;stroke-width:1.5;stroke-linecap:butt;stroke-linejoin:miter;stroke-miterlimit:4;stroke-dasharray:none;stroke-opacity:1"
         d="M 109.8036,219.43068 L 82.157101,267.31582 M 217.15711,33.48896 L 190.68211,79.345007" />
      <path
         id="path8351"
         style="fill:none;stroke:#000000;stroke-width:1.5;stroke-linecap:butt;stroke-linejoin:miter;stroke-miterlimit:4;stroke-dasharray:none;stroke-opacity:1"
         d="M 129.37031,226.99105 L 115.05943,280.39999 M 184.94058,19.600009 L 171.23611,70.745783" />
    </g>
    <path
       id="circle2026"
       style="display:inline;fill:none;fill-opacity:1;stroke:#020607;stroke-width:1.88976;stroke-linecap:round;stroke-linejoin:round"
       d="M 188.97656,18.898438 C 95.045148,18.89844 18.89844,95.044969 18.898438,188.97638 C 18.898436,282.90779 95.045145,359.05469 188.97656,359.05469 C 282.90798,359.05469 359.05469,282.9078 359.05469,188.97638 C 359.05469,95.044963 282.90797,18.898436 188.97656,18.898438 Z M 187.5,85.605469 C 243.77483,85.605469 289.39453,132.70155 289.39453,188.97638 C 289.39453,245.2512 243.77482,289.39453 187.5,289.39453 C 131.22517,289.39453 85.605469,245.25121 85.605469,188.97638 C 85.605469,132.70155 131.22517,85.605469 187.5,85.605469 Z"
       sodipodi:nodetypes="ssssssssss"
       transform="scale(0.79375002)"
       sodipodi:insensitive="true" />
    <g
       id="g1179"
       inkscape:label="Perm_indices"
       sodipodi:insensitive="true">
      <g
         aria-label="ω0"
         transform="matrix(0.79375002,0,0,0.79375002,-0.80772002,-63.168986)"
         id="text42685"
         style="font-size:18.6667px;line-height:1.25;font-family:'Liberation Sans';-inkscape-font-specification:'Liberation Sans';white-space:pre;shape-inside:url(#rect42687)">
        <path
           d="M 188.06186,132.44236 Q 188.06186,133.87335 188.5814,134.66632 Q 189.10093,135.45018 190.03062,135.45018 Q 191.06968,135.45018 191.5801,134.60252 Q 192.09963,133.75486 192.09963,131.86814 Q 192.09963,130.18194 191.49807,129.0973 Q 190.8965,128.00355 189.78452,127.74834 L 189.99416,126.48141 Q 191.17906,126.67282 192.03583,127.4111 Q 192.90172,128.14027 193.35745,129.29782 Q 193.82229,130.44626 193.82229,131.82257 Q 193.82229,134.15591 192.87437,135.44106 Q 191.93557,136.71711 190.20379,136.71711 Q 189.05535,136.71711 188.3353,136.13377 Q 187.62436,135.54132 187.31447,134.28351 H 187.27801 Q 186.96811,135.54132 186.24806,136.13377 Q 185.53712,136.71711 184.38868,136.71711 Q 182.65691,136.71711 181.70899,135.44106 Q 180.77018,134.15591 180.77018,131.82257 Q 180.77018,129.68975 181.80013,128.23142 Q 182.83008,126.77308 184.59832,126.48141 L 184.80795,127.74834 Q 183.72331,127.98532 183.10352,129.06084 Q 182.49284,130.12725 182.49284,131.86814 Q 182.49284,133.74575 182.99415,134.60252 Q 183.50456,135.45018 184.54363,135.45018 Q 185.47332,135.45018 186.01108,134.66632 Q 186.54884,133.87335 186.54884,132.44236 V 130.14548 H 188.06186 Z"
           style="font-size:18.6667px;line-height:1.25;font-family:'Liberation Sans';-inkscape-font-specification:'Liberation Sans';white-space:pre;shape-inside:url(#rect42687)"
           id="path71631" />
        <path
           d="M 200.55585,134.44869 Q 200.55585,136.60502 199.79228,137.74121 Q 199.03482,138.8774 197.55045,138.8774 Q 196.06607,138.8774 195.32082,137.74732 Q 194.57558,136.61723 194.57558,134.44869 Q 194.57558,132.23129 195.29639,131.12564 Q 196.02331,130.01999 197.58709,130.01999 Q 199.10813,130.01999 199.82893,131.13786 Q 200.55585,132.25572 200.55585,134.44869 Z M 199.43799,134.44869 Q 199.43799,132.58558 199.00428,131.74871 Q 198.57668,130.91184 197.58709,130.91184 Q 196.57307,130.91184 196.12715,131.73649 Q 195.68733,132.56115 195.68733,134.44869 Q 195.68733,136.28126 196.13326,137.13035 Q 196.58529,137.97944 197.56266,137.97944 Q 198.53392,137.97944 198.98596,137.11203 Q 199.43799,136.24461 199.43799,134.44869 Z"
           style="font-size:18.6667px;line-height:1.25;font-family:'Liberation Sans';-inkscape-font-specification:'Liberation Sans';white-space:pre;shape-inside:url(#rect42687);stroke-width:0.999998"
           id="path71633" />
      </g>
      <g
         aria-label="ωn"
         transform="scale(0.79375002)"
         id="text76042"
         style="font-size:40px;line-height:1.25;font-family:'Liberation Sans';-inkscape-font-specification:'Liberation Sans';white-space:pre;shape-inside:url(#rect76044)">
        <g
           id="g92457"
           transform="matrix(0.50747464,0,0,0.50747464,100.18299,231.8624)"
           style="stroke-width:1.97054">
          <path
             d="M 173.51758,181.7919 Q 173.51758,184.8583 174.63086,186.55752 Q 175.74414,188.23721 177.73633,188.23721 Q 179.96289,188.23721 181.05664,186.4208 Q 182.16992,184.6044 182.16992,180.56143 Q 182.16992,176.94815 180.88086,174.62393 Q 179.5918,172.28018 177.20898,171.7333 L 177.6582,169.01846 Q 180.19727,169.42861 182.0332,171.01065 Q 183.88867,172.57315 184.86523,175.05361 Q 185.86133,177.51455 185.86133,180.46377 Q 185.86133,185.46377 183.83008,188.21768 Q 181.81836,190.95205 178.10742,190.95205 Q 175.64648,190.95205 174.10352,189.70205 Q 172.58008,188.43252 171.91602,185.73721 H 171.83789 Q 171.17383,188.43252 169.63086,189.70205 Q 168.10742,190.95205 165.64648,190.95205 Q 161.93555,190.95205 159.9043,188.21768 Q 157.89258,185.46377 157.89258,180.46377 Q 157.89258,175.89346 160.09961,172.76846 Q 162.30664,169.64346 166.0957,169.01846 L 166.54492,171.7333 Q 164.2207,172.24111 162.89258,174.5458 Q 161.58398,176.83096 161.58398,180.56143 Q 161.58398,184.58486 162.6582,186.4208 Q 163.75195,188.23721 165.97852,188.23721 Q 167.9707,188.23721 169.12305,186.55752 Q 170.27539,184.8583 170.27539,181.7919 V 176.87002 H 173.51758 Z"
             style="font-size:40px;line-height:1.25;font-family:'Liberation Sans';-inkscape-font-specification:'Liberation Sans';white-space:pre;shape-inside:url(#rect76044);stroke-width:1.97054"
             id="path89268" />
          <path
             d="M 197.1974,193.53776 V 184.56045 Q 197.1974,183.16021 196.92259,182.3881 Q 196.64777,181.616 196.0458,181.27576 Q 195.44382,180.93551 194.27913,180.93551 Q 192.57789,180.93551 191.59641,182.1002 Q 190.61492,183.2649 190.61492,185.33255 V 193.53776 H 188.25936 V 182.40119 Q 188.25936,179.92785 188.18084,179.37822 H 190.40554 Q 190.41863,179.44365 190.43171,179.73156 Q 190.4448,180.01946 190.45788,180.39896 Q 190.48406,180.76539 190.51023,181.79922 H 190.54949 Q 191.36085,180.33353 192.42085,179.73156 Q 193.49394,179.11649 195.0774,179.11649 Q 197.40679,179.11649 198.47988,180.28118 Q 199.56605,181.43279 199.56605,184.10243 V 193.53776 Z"
             style="font-size:40px;line-height:1.25;font-family:'Liberation Sans';-inkscape-font-specification:'Liberation Sans';white-space:pre;shape-inside:url(#rect76044);stroke-width:1.97054"
             id="path89270" />
        </g>
      </g>
      <g
         aria-label="1"
         transform="matrix(0.79375001,0,0,0.79375001,1.9977531,5.7603258)"
         id="text18012"
         style="font-size:16px;line-height:1.25;font-family:'Noto Sans Display';-inkscape-font-specification:'Noto Sans Display';white-space:pre;shape-inside:url(#rect18014)">
        <path
           d="M 224.63573,55.655659 H 222.02773 V 49.047659 Q 222.02773,48.631659 222.04373,47.959659 Q 222.05973,47.287659 222.07573,46.775659 Q 221.94773,46.871659 221.73973,47.127659 Q 221.54773,47.383659 221.33973,47.559659 L 220.13973,48.615659 L 218.82773,47.159659 L 222.39573,44.231659 H 224.63573 Z"
           style="font-weight:bold;text-align:center;text-anchor:middle"
           id="path1002" />
      </g>
      <g
         aria-label="2"
         transform="matrix(0.79375001,0,0,0.79375001,-54.454243,4.0041134)"
         id="text31706"
         style="font-size:16px;line-height:1.25;font-family:'Noto Sans Display';-inkscape-font-specification:'Noto Sans Display';white-space:pre;shape-inside:url(#rect31708)">
        <path
           d="M 226.25173,55.655659 H 218.60373 V 53.975659 L 221.25973,51.079659 Q 222.07573,50.183659 222.53973,49.591659 Q 223.01973,48.983659 223.21173,48.503659 Q 223.41973,48.007659 223.41973,47.447659 Q 223.41973,46.759659 223.08373,46.423659 Q 222.76373,46.087659 222.25173,46.087659 Q 221.69173,46.087659 221.13173,46.391659 Q 220.58773,46.695659 219.93173,47.255659 L 218.52373,45.703659 Q 219.00373,45.271659 219.53173,44.903659 Q 220.05973,44.535659 220.77973,44.311659 Q 221.49973,44.071659 222.50773,44.071659 Q 223.57973,44.071659 224.36373,44.487659 Q 225.14773,44.887659 225.56373,45.591659 Q 225.99573,46.279659 225.99573,47.159659 Q 225.99573,48.103659 225.62773,48.871659 Q 225.25973,49.639659 224.58773,50.423659 Q 223.93173,51.191659 223.03573,52.215659 L 221.88373,53.511659 L 221.86773,53.623659 H 226.25173 Z"
           style="font-weight:bold;text-align:center;text-anchor:middle"
           id="path1091" />
      </g>
      <g
         aria-label="3"
         transform="matrix(0.79375001,0,0,0.79375001,27.203037,16.920119)"
         id="text31814"
         style="font-size:16px;line-height:1.25;font-family:'Noto Sans Display';-inkscape-font-specification:'Noto Sans Display';white-space:pre;shape-inside:url(#rect31816)">
        <path
           d="M 225.86773,46.791659 Q 225.86773,47.975659 225.17973,48.679659 Q 224.49173,49.383659 223.51573,49.639659 V 49.687659 Q 224.79573,49.847659 225.48373,50.519659 Q 226.17173,51.191659 226.17173,52.327659 Q 226.17173,53.319659 225.70773,54.119659 Q 225.24373,54.903659 224.26773,55.367659 Q 223.30773,55.815659 221.77173,55.815659 Q 220.81173,55.815659 220.05973,55.655659 Q 219.30773,55.495659 218.61973,55.191659 V 53.143659 Q 219.32373,53.511659 220.05973,53.703659 Q 220.81173,53.895659 221.43573,53.895659 Q 222.57173,53.895659 223.00373,53.447659 Q 223.45173,52.999659 223.45173,52.183659 Q 223.45173,51.703659 223.24373,51.383659 Q 223.03573,51.047659 222.50773,50.887659 Q 221.99573,50.711659 221.01973,50.711659 H 220.28373 V 48.855659 H 221.03573 Q 221.94773,48.855659 222.44373,48.663659 Q 222.93973,48.455659 223.13173,48.119659 Q 223.33973,47.767659 223.33973,47.319659 Q 223.33973,46.711659 223.00373,46.375659 Q 222.66773,46.023659 221.97973,46.023659 Q 221.22773,46.023659 220.65173,46.311659 Q 220.07573,46.583659 219.75573,46.855659 L 218.63573,45.191659 Q 219.29173,44.711659 220.13973,44.391659 Q 221.00373,44.071659 222.28373,44.071659 Q 223.94773,44.071659 224.90773,44.791659 Q 225.86773,45.495659 225.86773,46.791659 Z"
           style="font-weight:bold;text-align:center;text-anchor:middle"
           id="path1005" />
      </g>
      <g
         aria-label="5"
         transform="matrix(0.79375001,0,0,0.79375001,50.0624,33.534487)"
         id="text35134"
         style="font-size:16px;line-height:1.25;font-family:'Noto Sans Display';-inkscape-font-specification:'Noto Sans Display';white-space:pre;shape-inside:url(#rect35136)">
        <path
           d="M 222.77973,48.359659 Q 223.72373,48.359659 224.45973,48.759659 Q 225.21173,49.159659 225.64373,49.927659 Q 226.09173,50.695659 226.09173,51.831659 Q 226.09173,53.687659 225.00373,54.759659 Q 223.93173,55.815659 221.77173,55.815659 Q 219.94773,55.815659 218.79573,55.191659 V 53.111659 Q 219.35573,53.415659 220.13973,53.639659 Q 220.93973,53.847659 221.61173,53.847659 Q 222.50773,53.847659 222.98773,53.415659 Q 223.48373,52.967659 223.48373,52.039659 Q 223.48373,50.311659 221.53173,50.311659 Q 221.11573,50.311659 220.69973,50.407659 Q 220.28373,50.487659 219.97973,50.567659 L 218.98773,50.055659 L 219.40373,44.231659 H 225.37173 V 46.279659 H 221.62773 L 221.45173,48.519659 Q 221.70773,48.471659 221.96373,48.423659 Q 222.23573,48.359659 222.77973,48.359659 Z"
           style="font-weight:bold;text-align:center;text-anchor:middle"
           id="path1008" />
      </g>
      <g
         aria-label="7"
         transform="matrix(0.79375001,0,0,0.79375001,65.961708,56.947789)"
         id="text41626"
         style="font-size:16px;line-height:1.25;font-family:'Noto Sans Display';-inkscape-font-specification:'Noto Sans Display';white-space:pre;shape-inside:url(#rect41628)">
        <path
           d="M 219.69173,55.655659 L 223.54773,46.263659 H 218.57173 V 44.231659 H 226.29973 V 45.751659 L 222.37973,55.655659 Z"
           style="font-weight:bold;text-align:center;text-anchor:middle"
           id="path1011" />
      </g>
      <g
         aria-label="9"
         transform="matrix(0.79375001,0,0,0.79375001,76.157356,83.763131)"
         id="text44418"
         style="font-size:16px;line-height:1.25;font-family:'Noto Sans Display';-inkscape-font-specification:'Noto Sans Display';white-space:pre;shape-inside:url(#rect44420)">
        <path
           d="M 226.26773,49.111659 Q 226.26773,50.439659 226.01173,51.655659 Q 225.75573,52.855659 225.13173,53.799659 Q 224.52373,54.727659 223.43573,55.271659 Q 222.36373,55.815659 220.71573,55.815659 Q 220.39573,55.815659 219.96373,55.783659 Q 219.54773,55.767659 219.24373,55.703659 V 53.767659 Q 219.54773,53.831659 219.86773,53.879659 Q 220.18773,53.927659 220.52373,53.927659 Q 221.85173,53.927659 222.55573,53.479659 Q 223.27573,53.015659 223.56373,52.215659 Q 223.86773,51.415659 223.89973,50.359659 H 223.81973 Q 223.61173,50.727659 223.33973,51.031659 Q 223.06773,51.335659 222.63573,51.511659 Q 222.20373,51.687659 221.49973,51.687659 Q 220.15573,51.687659 219.35573,50.743659 Q 218.57173,49.799659 218.57173,48.071659 Q 218.57173,46.215659 219.56373,45.143659 Q 220.57173,44.071659 222.26773,44.071659 Q 223.40373,44.071659 224.29973,44.615659 Q 225.21173,45.159659 225.73973,46.279659 Q 226.26773,47.399659 226.26773,49.111659 Z M 222.33173,46.007659 Q 221.78773,46.007659 221.41973,46.503659 Q 221.06773,46.999659 221.06773,48.039659 Q 221.06773,48.871659 221.37173,49.351659 Q 221.67573,49.831659 222.26773,49.831659 Q 222.69973,49.831659 223.01973,49.591659 Q 223.33973,49.351659 223.51573,48.999659 Q 223.69173,48.631659 223.69173,48.247659 Q 223.69173,47.655659 223.53173,47.143659 Q 223.38773,46.631659 223.08373,46.327659 Q 222.77973,46.007659 222.33173,46.007659 Z"
           style="font-weight:bold;text-align:center;text-anchor:middle"
           id="path1014" />
      </g>
      <g
         aria-label="11"
         transform="matrix(0.79375001,0,0,0.79375001,79.385309,111.18383)"
         id="text45934"
         style="font-size:16px;line-height:1.25;font-family:'Noto Sans Display';-inkscape-font-specification:'Noto Sans Display';white-space:pre;shape-inside:url(#rect45936)">
        <path
           d="M 221.53372,55.655659 H 218.92572 V 49.047659 Q 218.92572,48.631659 218.94172,47.959659 Q 218.95772,47.287659 218.97372,46.775659 Q 218.84572,46.871659 218.63772,47.127659 Q 218.44572,47.383659 218.23772,47.559659 L 217.03772,48.615659 L 215.72572,47.159659 L 219.29372,44.231659 H 221.53372 Z"
           style="font-weight:bold;text-align:center;text-anchor:middle"
           id="path1017" />
        <path
           d="M 230.23773,55.655659 H 227.62973 V 49.047659 Q 227.62973,48.631659 227.64573,47.959659 Q 227.66173,47.287659 227.67773,46.775659 Q 227.54973,46.871659 227.34173,47.127659 Q 227.14973,47.383659 226.94173,47.559659 L 225.74173,48.615659 L 224.42973,47.159659 L 227.99773,44.231659 H 230.23773 Z"
           style="font-weight:bold;text-align:center;text-anchor:middle"
           id="path1019" />
      </g>
      <g
         aria-label="13"
         transform="matrix(0.79375001,0,0,0.79375001,77.667356,139.0389)"
         id="text52312"
         style="font-size:16px;line-height:1.25;font-family:'Noto Sans Display';-inkscape-font-specification:'Noto Sans Display';white-space:pre;shape-inside:url(#rect52314)">
        <path
           d="M 221.53372,55.655659 H 218.92572 V 49.047659 Q 218.92572,48.631659 218.94172,47.959659 Q 218.95772,47.287659 218.97372,46.775659 Q 218.84572,46.871659 218.63772,47.127659 Q 218.44572,47.383659 218.23772,47.559659 L 217.03772,48.615659 L 215.72572,47.159659 L 219.29372,44.231659 H 221.53372 Z"
           style="font-weight:bold;text-align:center;text-anchor:middle"
           id="path1022" />
        <path
           d="M 231.46973,46.791659 Q 231.46973,47.975659 230.78173,48.679659 Q 230.09373,49.383659 229.11773,49.639659 V 49.687659 Q 230.39773,49.847659 231.08573,50.519659 Q 231.77373,51.191659 231.77373,52.327659 Q 231.77373,53.319659 231.30973,54.119659 Q 230.84573,54.903659 229.86973,55.367659 Q 228.90973,55.815659 227.37373,55.815659 Q 226.41373,55.815659 225.66173,55.655659 Q 224.90973,55.495659 224.22173,55.191659 V 53.143659 Q 224.92573,53.511659 225.66173,53.703659 Q 226.41373,53.895659 227.03773,53.895659 Q 228.17373,53.895659 228.60573,53.447659 Q 229.05373,52.999659 229.05373,52.183659 Q 229.05373,51.703659 228.84573,51.383659 Q 228.63773,51.047659 228.10973,50.887659 Q 227.59773,50.711659 226.62173,50.711659 H 225.88573 V 48.855659 H 226.63773 Q 227.54973,48.855659 228.04573,48.663659 Q 228.54173,48.455659 228.73373,48.119659 Q 228.94173,47.767659 228.94173,47.319659 Q 228.94173,46.711659 228.60573,46.375659 Q 228.26973,46.023659 227.58173,46.023659 Q 226.82973,46.023659 226.25373,46.311659 Q 225.67773,46.583659 225.35773,46.855659 L 224.23773,45.191659 Q 224.89373,44.711659 225.74173,44.391659 Q 226.60573,44.071659 227.88573,44.071659 Q 229.54973,44.071659 230.50973,44.791659 Q 231.46973,45.495659 231.46973,46.791659 Z"
           style="font-weight:bold;text-align:center;text-anchor:middle"
           id="path1024" />
      </g>
      <g
         aria-label="15"
         transform="matrix(0.79375001,0,0,0.79375001,66.179679,164.72872)"
         id="text56218"
         style="font-size:16px;line-height:1.25;font-family:'Noto Sans Display';-inkscape-font-specification:'Noto Sans Display';white-space:pre;shape-inside:url(#rect56220)">
        <path
           d="M 221.53372,55.655659 H 218.92572 V 49.047659 Q 218.92572,48.631659 218.94172,47.959659 Q 218.95772,47.287659 218.97372,46.775659 Q 218.84572,46.871659 218.63772,47.127659 Q 218.44572,47.383659 218.23772,47.559659 L 217.03772,48.615659 L 215.72572,47.159659 L 219.29372,44.231659 H 221.53372 Z"
           style="font-weight:bold;text-align:center;text-anchor:middle"
           id="path1027" />
        <path
           d="M 228.38173,48.359659 Q 229.32573,48.359659 230.06173,48.759659 Q 230.81373,49.159659 231.24573,49.927659 Q 231.69373,50.695659 231.69373,51.831659 Q 231.69373,53.687659 230.60573,54.759659 Q 229.53373,55.815659 227.37373,55.815659 Q 225.54973,55.815659 224.39773,55.191659 V 53.111659 Q 224.95773,53.415659 225.74173,53.639659 Q 226.54173,53.847659 227.21373,53.847659 Q 228.10973,53.847659 228.58973,53.415659 Q 229.08573,52.967659 229.08573,52.039659 Q 229.08573,50.311659 227.13373,50.311659 Q 226.71773,50.311659 226.30173,50.407659 Q 225.88573,50.487659 225.58173,50.567659 L 224.58973,50.055659 L 225.00573,44.231659 H 230.97373 V 46.279659 H 227.22973 L 227.05373,48.519659 Q 227.30973,48.471659 227.56573,48.423659 Q 227.83773,48.359659 228.38173,48.359659 Z"
           style="font-weight:bold;text-align:center;text-anchor:middle"
           id="path1029" />
      </g>
      <g
         aria-label="17"
         transform="matrix(0.79375001,0,0,0.79375001,48.782997,187.8761)"
         id="text63922"
         style="font-size:16px;line-height:1.25;font-family:'Noto Sans Display';-inkscape-font-specification:'Noto Sans Display';white-space:pre;shape-inside:url(#rect63924)">
        <path
           d="M 221.53372,55.655659 H 218.92572 V 49.047659 Q 218.92572,48.631659 218.94172,47.959659 Q 218.95772,47.287659 218.97372,46.775659 Q 218.84572,46.871659 218.63772,47.127659 Q 218.44572,47.383659 218.23772,47.559659 L 217.03772,48.615659 L 215.72572,47.159659 L 219.29372,44.231659 H 221.53372 Z"
           style="font-weight:bold;text-align:center;text-anchor:middle"
           id="path1032" />
        <path
           d="M 225.29373,55.655659 L 229.14973,46.263659 H 224.17373 V 44.231659 H 231.90173 V 45.751659 L 227.98173,55.655659 Z"
           style="font-weight:bold;text-align:center;text-anchor:middle"
           id="path1034" />
      </g>
      <g
         aria-label="19"
         transform="matrix(0.79375001,0,0,0.79375001,27.156183,204.76893)"
         id="text66176"
         style="font-size:16px;line-height:1.25;font-family:'Noto Sans Display';-inkscape-font-specification:'Noto Sans Display';white-space:pre;shape-inside:url(#rect66178)"
         inkscape:transform-center-x="0.21967146"
         inkscape:transform-center-y="0.046853874">
        <path
           d="M 221.53372,55.655659 H 218.92572 V 49.047659 Q 218.92572,48.631659 218.94172,47.959659 Q 218.95772,47.287659 218.97372,46.775659 Q 218.84572,46.871659 218.63772,47.127659 Q 218.44572,47.383659 218.23772,47.559659 L 217.03772,48.615659 L 215.72572,47.159659 L 219.29372,44.231659 H 221.53372 Z"
           style="font-weight:bold;text-align:center;text-anchor:middle"
           id="path1037" />
        <path
           d="M 231.86973,49.111659 Q 231.86973,50.439659 231.61373,51.655659 Q 231.35773,52.855659 230.73373,53.799659 Q 230.12573,54.727659 229.03773,55.271659 Q 227.96573,55.815659 226.31773,55.815659 Q 225.99773,55.815659 225.56573,55.783659 Q 225.14973,55.767659 224.84573,55.703659 V 53.767659 Q 225.14973,53.831659 225.46973,53.879659 Q 225.78973,53.927659 226.12573,53.927659 Q 227.45373,53.927659 228.15773,53.479659 Q 228.87773,53.015659 229.16573,52.215659 Q 229.46973,51.415659 229.50173,50.359659 H 229.42173 Q 229.21373,50.727659 228.94173,51.031659 Q 228.66973,51.335659 228.23773,51.511659 Q 227.80573,51.687659 227.10173,51.687659 Q 225.75773,51.687659 224.95773,50.743659 Q 224.17373,49.799659 224.17373,48.071659 Q 224.17373,46.215659 225.16573,45.143659 Q 226.17373,44.071659 227.86973,44.071659 Q 229.00573,44.071659 229.90173,44.615659 Q 230.81373,45.159659 231.34173,46.279659 Q 231.86973,47.399659 231.86973,49.111659 Z M 227.93373,46.007659 Q 227.38973,46.007659 227.02173,46.503659 Q 226.66973,46.999659 226.66973,48.039659 Q 226.66973,48.871659 226.97373,49.351659 Q 227.27773,49.831659 227.86973,49.831659 Q 228.30173,49.831659 228.62173,49.591659 Q 228.94173,49.351659 229.11773,48.999659 Q 229.29373,48.631659 229.29373,48.247659 Q 229.29373,47.655659 229.13373,47.143659 Q 228.98973,46.631659 228.68573,46.327659 Q 228.38173,46.007659 227.93373,46.007659 Z"
           style="font-weight:bold;text-align:center;text-anchor:middle"
           id="path1039" />
      </g>
      <g
         aria-label="21"
         transform="matrix(0.79375001,0,0,0.79375001,0.32775032,216.32327)"
         id="text67862"
         style="font-size:16px;line-height:1.25;font-family:'Noto Sans Display';-inkscape-font-specification:'Noto Sans Display';white-space:pre;shape-inside:url(#rect67864)"
         inkscape:transform-center-x="0.21967146"
         inkscape:transform-center-y="0.046853874">
        <path
           d="M 223.14972,55.655659 H 215.50172 V 53.975659 L 218.15772,51.079659 Q 218.97372,50.183659 219.43772,49.591659 Q 219.91772,48.983659 220.10972,48.503659 Q 220.31772,48.007659 220.31772,47.447659 Q 220.31772,46.759659 219.98172,46.423659 Q 219.66172,46.087659 219.14972,46.087659 Q 218.58972,46.087659 218.02972,46.391659 Q 217.48572,46.695659 216.82972,47.255659 L 215.42172,45.703659 Q 215.90172,45.271659 216.42972,44.903659 Q 216.95772,44.535659 217.67772,44.311659 Q 218.39772,44.071659 219.40572,44.071659 Q 220.47772,44.071659 221.26172,44.487659 Q 222.04572,44.887659 222.46172,45.591659 Q 222.89372,46.279659 222.89372,47.159659 Q 222.89372,48.103659 222.52572,48.871659 Q 222.15772,49.639659 221.48572,50.423659 Q 220.82972,51.191659 219.93372,52.215659 L 218.78172,53.511659 L 218.76572,53.623659 H 223.14972 Z"
           style="font-weight:bold;text-align:center;text-anchor:middle"
           id="path1042" />
        <path
           d="M 230.23773,55.655659 H 227.62973 V 49.047659 Q 227.62973,48.631659 227.64573,47.959659 Q 227.66173,47.287659 227.67773,46.775659 Q 227.54973,46.871659 227.34173,47.127659 Q 227.14973,47.383659 226.94173,47.559659 L 225.74173,48.615659 L 224.42973,47.159659 L 227.99773,44.231659 H 230.23773 Z"
           style="font-weight:bold;text-align:center;text-anchor:middle"
           id="path1044" />
      </g>
      <g
         aria-label="22"
         transform="matrix(0.79375001,0,0,0.79375001,-55.342936,214.79416)"
         id="text70741"
         style="font-size:16px;line-height:1.25;font-family:'Noto Sans Display';-inkscape-font-specification:'Noto Sans Display';white-space:pre;shape-inside:url(#rect70743)"
         inkscape:transform-center-x="0.21967146"
         inkscape:transform-center-y="0.046853874">
        <path
           d="M 223.14972,55.655659 H 215.50172 V 53.975659 L 218.15772,51.079659 Q 218.97372,50.183659 219.43772,49.591659 Q 219.91772,48.983659 220.10972,48.503659 Q 220.31772,48.007659 220.31772,47.447659 Q 220.31772,46.759659 219.98172,46.423659 Q 219.66172,46.087659 219.14972,46.087659 Q 218.58972,46.087659 218.02972,46.391659 Q 217.48572,46.695659 216.82972,47.255659 L 215.42172,45.703659 Q 215.90172,45.271659 216.42972,44.903659 Q 216.95772,44.535659 217.67772,44.311659 Q 218.39772,44.071659 219.40572,44.071659 Q 220.47772,44.071659 221.26172,44.487659 Q 222.04572,44.887659 222.46172,45.591659 Q 222.89372,46.279659 222.89372,47.159659 Q 222.89372,48.103659 222.52572,48.871659 Q 222.15772,49.639659 221.48572,50.423659 Q 220.82972,51.191659 219.93372,52.215659 L 218.78172,53.511659 L 218.76572,53.623659 H 223.14972 Z"
           style="font-weight:bold;text-align:center;text-anchor:middle"
           id="path1047" />
        <path
           d="M 231.85373,55.655659 H 224.20573 V 53.975659 L 226.86173,51.079659 Q 227.67773,50.183659 228.14173,49.591659 Q 228.62173,48.983659 228.81373,48.503659 Q 229.02173,48.007659 229.02173,47.447659 Q 229.02173,46.759659 228.68573,46.423659 Q 228.36573,46.087659 227.85373,46.087659 Q 227.29373,46.087659 226.73373,46.391659 Q 226.18973,46.695659 225.53373,47.255659 L 224.12573,45.703659 Q 224.60573,45.271659 225.13373,44.903659 Q 225.66173,44.535659 226.38173,44.311659 Q 227.10173,44.071659 228.10973,44.071659 Q 229.18173,44.071659 229.96573,44.487659 Q 230.74973,44.887659 231.16573,45.591659 Q 231.59773,46.279659 231.59773,47.159659 Q 231.59773,48.103659 231.22973,48.871659 Q 230.86173,49.639659 230.18973,50.423659 Q 229.53373,51.191659 228.63773,52.215659 L 227.48573,53.511659 L 227.46973,53.623659 H 231.85373 Z"
           style="font-weight:bold;text-align:center;text-anchor:middle"
           id="path1049" />
      </g>
      <g
         aria-label="20"
         transform="matrix(0.79375001,0,0,0.79375001,-81.144086,203.18553)"
         id="text73437"
         style="font-size:16px;line-height:1.25;font-family:'Noto Sans Display';-inkscape-font-specification:'Noto Sans Display';white-space:pre;shape-inside:url(#rect73439)"
         inkscape:transform-center-x="0.21967146"
         inkscape:transform-center-y="0.046853874">
        <path
           d="M 223.14972,55.655659 H 215.50172 V 53.975659 L 218.15772,51.079659 Q 218.97372,50.183659 219.43772,49.591659 Q 219.91772,48.983659 220.10972,48.503659 Q 220.31772,48.007659 220.31772,47.447659 Q 220.31772,46.759659 219.98172,46.423659 Q 219.66172,46.087659 219.14972,46.087659 Q 218.58972,46.087659 218.02972,46.391659 Q 217.48572,46.695659 216.82972,47.255659 L 215.42172,45.703659 Q 215.90172,45.271659 216.42972,44.903659 Q 216.95772,44.535659 217.67772,44.311659 Q 218.39772,44.071659 219.40572,44.071659 Q 220.47772,44.071659 221.26172,44.487659 Q 222.04572,44.887659 222.46172,45.591659 Q 222.89372,46.279659 222.89372,47.159659 Q 222.89372,48.103659 222.52572,48.871659 Q 222.15772,49.639659 221.48572,50.423659 Q 220.82972,51.191659 219.93372,52.215659 L 218.78172,53.511659 L 218.76572,53.623659 H 223.14972 Z"
           style="font-weight:bold;text-align:center;text-anchor:middle"
           id="path1052" />
        <path
           d="M 231.83773,49.943659 Q 231.83773,51.783659 231.46973,53.095659 Q 231.10173,54.407659 230.25373,55.111659 Q 229.42173,55.815659 228.01373,55.815659 Q 226.02973,55.815659 225.11773,54.263659 Q 224.20573,52.695659 224.20573,49.943659 Q 224.20573,48.087659 224.57373,46.775659 Q 224.94173,45.463659 225.77373,44.759659 Q 226.62173,44.055659 228.01373,44.055659 Q 229.98173,44.055659 230.90973,45.607659 Q 231.83773,47.159659 231.83773,49.943659 Z M 226.78173,49.943659 Q 226.78173,51.895659 227.02173,52.887659 Q 227.27773,53.863659 228.01373,53.863659 Q 228.73373,53.863659 228.98973,52.887659 Q 229.26173,51.911659 229.26173,49.943659 Q 229.26173,47.991659 228.98973,46.999659 Q 228.73373,46.007659 228.01373,46.007659 Q 227.27773,46.007659 227.02173,46.999659 Q 226.78173,47.991659 226.78173,49.943659 Z"
           style="font-weight:bold;text-align:center;text-anchor:middle"
           id="path1054" />
      </g>
      <g
         aria-label="18"
         transform="matrix(0.79375001,0,0,0.79375001,-103.19994,186.41683)"
         id="text74735"
         style="font-size:16px;line-height:1.25;font-family:'Noto Sans Display';-inkscape-font-specification:'Noto Sans Display';white-space:pre;shape-inside:url(#rect74737)"
         inkscape:transform-center-x="0.21967146"
         inkscape:transform-center-y="0.046853874">
        <path
           d="M 221.53372,55.655659 H 218.92572 V 49.047659 Q 218.92572,48.631659 218.94172,47.959659 Q 218.95772,47.287659 218.97372,46.775659 Q 218.84572,46.871659 218.63772,47.127659 Q 218.44572,47.383659 218.23772,47.559659 L 217.03772,48.615659 L 215.72572,47.159659 L 219.29372,44.231659 H 221.53372 Z"
           style="font-weight:bold;text-align:center;text-anchor:middle"
           id="path1057" />
        <path
           d="M 228.04573,44.087659 Q 229.03773,44.087659 229.82173,44.391659 Q 230.62173,44.695659 231.08573,45.303659 Q 231.54973,45.911659 231.54973,46.839659 Q 231.54973,47.863659 231.00573,48.535659 Q 230.47773,49.191659 229.66173,49.623659 Q 230.20573,49.943659 230.70173,50.375659 Q 231.21373,50.791659 231.53373,51.367659 Q 231.86973,51.927659 231.86973,52.695659 Q 231.86973,54.119659 230.87773,54.967659 Q 229.88573,55.815659 228.02973,55.815659 Q 226.10973,55.815659 225.14973,54.999659 Q 224.18973,54.183659 224.18973,52.759659 Q 224.18973,51.575659 224.76573,50.855659 Q 225.35773,50.135659 226.20573,49.687659 Q 225.50173,49.207659 225.00573,48.535659 Q 224.50973,47.847659 224.50973,46.823659 Q 224.50973,45.911659 224.97373,45.303659 Q 225.45373,44.695659 226.25373,44.391659 Q 227.06973,44.087659 228.04573,44.087659 Z M 228.02973,45.847659 Q 227.58173,45.847659 227.26173,46.151659 Q 226.94173,46.455659 226.94173,47.015659 Q 226.94173,47.607659 227.26173,47.975659 Q 227.58173,48.343659 228.02973,48.615659 Q 228.44573,48.359659 228.78173,48.007659 Q 229.11773,47.639659 229.11773,47.015659 Q 229.11773,46.455659 228.79773,46.151659 Q 228.49373,45.847659 228.02973,45.847659 Z M 226.57373,52.615659 Q 226.57373,53.239659 226.94173,53.639659 Q 227.30973,54.039659 227.99773,54.039659 Q 228.74973,54.039659 229.11773,53.655659 Q 229.48573,53.271659 229.48573,52.631659 Q 229.48573,52.199659 229.27773,51.863659 Q 229.06973,51.527659 228.76573,51.271659 Q 228.46173,50.999659 228.15773,50.807659 L 227.96573,50.679659 Q 227.37373,51.031659 226.97373,51.495659 Q 226.57373,51.959659 226.57373,52.615659 Z"
           style="font-weight:bold;text-align:center;text-anchor:middle"
           id="path1059" />
      </g>
      <g
         aria-label="16"
         transform="matrix(0.79375001,0,0,0.79375001,-122.7791,163.5387)"
         id="text76111"
         style="font-size:16px;line-height:1.25;font-family:'Noto Sans Display';-inkscape-font-specification:'Noto Sans Display';white-space:pre;shape-inside:url(#rect76113)"
         inkscape:transform-center-x="0.21967146"
         inkscape:transform-center-y="0.046853874">
        <path
           d="M 221.53372,55.655659 H 218.92572 V 49.047659 Q 218.92572,48.631659 218.94172,47.959659 Q 218.95772,47.287659 218.97372,46.775659 Q 218.84572,46.871659 218.63772,47.127659 Q 218.44572,47.383659 218.23772,47.559659 L 217.03772,48.615659 L 215.72572,47.159659 L 219.29372,44.231659 H 221.53372 Z"
           style="font-weight:bold;text-align:center;text-anchor:middle"
           id="path1062" />
        <path
           d="M 224.18973,50.807659 Q 224.18973,49.815659 224.31773,48.855659 Q 224.46173,47.895659 224.79773,47.047659 Q 225.14973,46.183659 225.75773,45.527659 Q 226.38173,44.855659 227.34173,44.487659 Q 228.31773,44.103659 229.69373,44.103659 Q 230.01373,44.103659 230.44573,44.135659 Q 230.89373,44.151659 231.18173,44.215659 V 46.151659 Q 230.87773,46.071659 230.52573,46.039659 Q 230.17373,45.991659 229.74173,45.991659 Q 228.52573,45.991659 227.83773,46.439659 Q 227.16573,46.887659 226.87773,47.703659 Q 226.58973,48.503659 226.54173,49.559659 H 226.63773 Q 226.92573,48.999659 227.45373,48.615659 Q 227.98173,48.231659 228.86173,48.231659 Q 230.26973,48.231659 231.08573,49.175659 Q 231.90173,50.119659 231.90173,51.847659 Q 231.90173,53.703659 230.89373,54.759659 Q 229.88573,55.815659 228.17373,55.815659 Q 227.05373,55.815659 226.14173,55.287659 Q 225.24573,54.743659 224.71773,53.639659 Q 224.18973,52.519659 224.18973,50.807659 Z M 228.12573,53.879659 Q 228.68573,53.879659 229.03773,53.399659 Q 229.38973,52.903659 229.38973,51.879659 Q 229.38973,51.047659 229.08573,50.567659 Q 228.79773,50.087659 228.15773,50.087659 Q 227.72573,50.087659 227.40573,50.327659 Q 227.10173,50.551659 226.92573,50.919659 Q 226.76573,51.287659 226.76573,51.671659 Q 226.76573,52.199659 226.90973,52.711659 Q 227.05373,53.207659 227.35773,53.543659 Q 227.66173,53.879659 228.12573,53.879659 Z"
           style="font-weight:bold;text-align:center;text-anchor:middle"
           id="path1064" />
      </g>
      <g
         aria-label="14"
         transform="matrix(0.79375001,0,0,0.79375001,-133.18347,138.54571)"
         id="text79051"
         style="font-size:16px;line-height:1.25;font-family:'Noto Sans Display';-inkscape-font-specification:'Noto Sans Display';white-space:pre;shape-inside:url(#rect79053)"
         inkscape:transform-center-x="0.21967146"
         inkscape:transform-center-y="0.046853874">
        <path
           d="M 221.53372,55.655659 H 218.92572 V 49.047659 Q 218.92572,48.631659 218.94172,47.959659 Q 218.95772,47.287659 218.97372,46.775659 Q 218.84572,46.871659 218.63772,47.127659 Q 218.44572,47.383659 218.23772,47.559659 L 217.03772,48.615659 L 215.72572,47.159659 L 219.29372,44.231659 H 221.53372 Z"
           style="font-weight:bold;text-align:center;text-anchor:middle"
           id="path1067" />
        <path
           d="M 232.14173,53.287659 H 230.90973 V 55.655659 H 228.36573 V 53.287659 H 223.93373 V 51.607659 L 228.52573,44.231659 H 230.90973 V 51.415659 H 232.14173 Z M 228.36573,49.479659 Q 228.36573,49.111659 228.38173,48.583659 Q 228.39773,48.055659 228.41373,47.607659 Q 228.44573,47.143659 228.44573,46.999659 H 228.38173 Q 228.23773,47.319659 228.09373,47.623659 Q 227.96573,47.911659 227.78973,48.247659 L 226.17373,51.415659 H 228.36573 Z"
           style="font-weight:bold;text-align:center;text-anchor:middle"
           id="path1069" />
      </g>
      <g
         aria-label="12"
         transform="matrix(0.79375001,0,0,0.79375001,-135.32728,110.54867)"
         id="text80691"
         style="font-size:16px;line-height:1.25;font-family:'Noto Sans Display';-inkscape-font-specification:'Noto Sans Display';white-space:pre;shape-inside:url(#rect80693)"
         inkscape:transform-center-x="0.21967146"
         inkscape:transform-center-y="0.046853874">
        <path
           d="M 221.53372,55.655659 H 218.92572 V 49.047659 Q 218.92572,48.631659 218.94172,47.959659 Q 218.95772,47.287659 218.97372,46.775659 Q 218.84572,46.871659 218.63772,47.127659 Q 218.44572,47.383659 218.23772,47.559659 L 217.03772,48.615659 L 215.72572,47.159659 L 219.29372,44.231659 H 221.53372 Z"
           style="font-weight:bold;text-align:center;text-anchor:middle"
           id="path1072" />
        <path
           d="M 231.85373,55.655659 H 224.20573 V 53.975659 L 226.86173,51.079659 Q 227.67773,50.183659 228.14173,49.591659 Q 228.62173,48.983659 228.81373,48.503659 Q 229.02173,48.007659 229.02173,47.447659 Q 229.02173,46.759659 228.68573,46.423659 Q 228.36573,46.087659 227.85373,46.087659 Q 227.29373,46.087659 226.73373,46.391659 Q 226.18973,46.695659 225.53373,47.255659 L 224.12573,45.703659 Q 224.60573,45.271659 225.13373,44.903659 Q 225.66173,44.535659 226.38173,44.311659 Q 227.10173,44.071659 228.10973,44.071659 Q 229.18173,44.071659 229.96573,44.487659 Q 230.74973,44.887659 231.16573,45.591659 Q 231.59773,46.279659 231.59773,47.159659 Q 231.59773,48.103659 231.22973,48.871659 Q 230.86173,49.639659 230.18973,50.423659 Q 229.53373,51.191659 228.63773,52.215659 L 227.48573,53.511659 L 227.46973,53.623659 H 231.85373 Z"
           style="font-weight:bold;text-align:center;text-anchor:middle"
           id="path1074" />
      </g>
      <g
         aria-label="10"
         transform="matrix(0.79375001,0,0,0.79375001,-131.03306,82.454061)"
         id="text82233"
         style="font-size:16px;line-height:1.25;font-family:'Noto Sans Display';-inkscape-font-specification:'Noto Sans Display';white-space:pre;shape-inside:url(#rect82235)"
         inkscape:transform-center-x="0.21967146"
         inkscape:transform-center-y="0.046853874">
        <path
           d="M 221.53372,55.655659 H 218.92572 V 49.047659 Q 218.92572,48.631659 218.94172,47.959659 Q 218.95772,47.287659 218.97372,46.775659 Q 218.84572,46.871659 218.63772,47.127659 Q 218.44572,47.383659 218.23772,47.559659 L 217.03772,48.615659 L 215.72572,47.159659 L 219.29372,44.231659 H 221.53372 Z"
           style="font-weight:bold;text-align:center;text-anchor:middle"
           id="path1077" />
        <path
           d="M 231.83773,49.943659 Q 231.83773,51.783659 231.46973,53.095659 Q 231.10173,54.407659 230.25373,55.111659 Q 229.42173,55.815659 228.01373,55.815659 Q 226.02973,55.815659 225.11773,54.263659 Q 224.20573,52.695659 224.20573,49.943659 Q 224.20573,48.087659 224.57373,46.775659 Q 224.94173,45.463659 225.77373,44.759659 Q 226.62173,44.055659 228.01373,44.055659 Q 229.98173,44.055659 230.90973,45.607659 Q 231.83773,47.159659 231.83773,49.943659 Z M 226.78173,49.943659 Q 226.78173,51.895659 227.02173,52.887659 Q 227.27773,53.863659 228.01373,53.863659 Q 228.73373,53.863659 228.98973,52.887659 Q 229.26173,51.911659 229.26173,49.943659 Q 229.26173,47.991659 228.98973,46.999659 Q 228.73373,46.007659 228.01373,46.007659 Q 227.27773,46.007659 227.02173,46.999659 Q 226.78173,47.991659 226.78173,49.943659 Z"
           style="font-weight:bold;text-align:center;text-anchor:middle"
           id="path1079" />
      </g>
      <g
         aria-label="8"
         transform="matrix(0.79375001,0,0,0.79375001,-118.95861,57.607325)"
         id="text85925"
         style="font-size:16px;line-height:1.25;font-family:'Noto Sans Display';-inkscape-font-specification:'Noto Sans Display';white-space:pre;shape-inside:url(#rect85927)">
        <path
           d="M 222.44373,44.087659 Q 223.43573,44.087659 224.21973,44.391659 Q 225.01973,44.695659 225.48373,45.303659 Q 225.94773,45.911659 225.94773,46.839659 Q 225.94773,47.863659 225.40373,48.535659 Q 224.87573,49.191659 224.05973,49.623659 Q 224.60373,49.943659 225.09973,50.375659 Q 225.61173,50.791659 225.93173,51.367659 Q 226.26773,51.927659 226.26773,52.695659 Q 226.26773,54.119659 225.27573,54.967659 Q 224.28373,55.815659 222.42773,55.815659 Q 220.50773,55.815659 219.54773,54.999659 Q 218.58773,54.183659 218.58773,52.759659 Q 218.58773,51.575659 219.16373,50.855659 Q 219.75573,50.135659 220.60373,49.687659 Q 219.89973,49.207659 219.40373,48.535659 Q 218.90773,47.847659 218.90773,46.823659 Q 218.90773,45.911659 219.37173,45.303659 Q 219.85173,44.695659 220.65173,44.391659 Q 221.46773,44.087659 222.44373,44.087659 Z M 222.42773,45.847659 Q 221.97973,45.847659 221.65973,46.151659 Q 221.33973,46.455659 221.33973,47.015659 Q 221.33973,47.607659 221.65973,47.975659 Q 221.97973,48.343659 222.42773,48.615659 Q 222.84373,48.359659 223.17973,48.007659 Q 223.51573,47.639659 223.51573,47.015659 Q 223.51573,46.455659 223.19573,46.151659 Q 222.89173,45.847659 222.42773,45.847659 Z M 220.97173,52.615659 Q 220.97173,53.239659 221.33973,53.639659 Q 221.70773,54.039659 222.39573,54.039659 Q 223.14773,54.039659 223.51573,53.655659 Q 223.88373,53.271659 223.88373,52.631659 Q 223.88373,52.199659 223.67573,51.863659 Q 223.46773,51.527659 223.16373,51.271659 Q 222.85973,50.999659 222.55573,50.807659 L 222.36373,50.679659 Q 221.77173,51.031659 221.37173,51.495659 Q 220.97173,51.959659 220.97173,52.615659 Z"
           style="font-weight:bold;text-align:center;text-anchor:middle"
           id="path1082" />
      </g>
      <g
         aria-label="6"
         transform="matrix(0.79375001,0,0,0.79375001,-102.51996,33.569871)"
         id="text87037"
         style="font-size:16px;line-height:1.25;font-family:'Noto Sans Display';-inkscape-font-specification:'Noto Sans Display';white-space:pre;shape-inside:url(#rect87039)">
        <path
           d="M 218.58773,50.807659 Q 218.58773,49.815659 218.71573,48.855659 Q 218.85973,47.895659 219.19573,47.047659 Q 219.54773,46.183659 220.15573,45.527659 Q 220.77973,44.855659 221.73973,44.487659 Q 222.71573,44.103659 224.09173,44.103659 Q 224.41173,44.103659 224.84373,44.135659 Q 225.29173,44.151659 225.57973,44.215659 V 46.151659 Q 225.27573,46.071659 224.92373,46.039659 Q 224.57173,45.991659 224.13973,45.991659 Q 222.92373,45.991659 222.23573,46.439659 Q 221.56373,46.887659 221.27573,47.703659 Q 220.98773,48.503659 220.93973,49.559659 H 221.03573 Q 221.32373,48.999659 221.85173,48.615659 Q 222.37973,48.231659 223.25973,48.231659 Q 224.66773,48.231659 225.48373,49.175659 Q 226.29973,50.119659 226.29973,51.847659 Q 226.29973,53.703659 225.29173,54.759659 Q 224.28373,55.815659 222.57173,55.815659 Q 221.45173,55.815659 220.53973,55.287659 Q 219.64373,54.743659 219.11573,53.639659 Q 218.58773,52.519659 218.58773,50.807659 Z M 222.52373,53.879659 Q 223.08373,53.879659 223.43573,53.399659 Q 223.78773,52.903659 223.78773,51.879659 Q 223.78773,51.047659 223.48373,50.567659 Q 223.19573,50.087659 222.55573,50.087659 Q 222.12373,50.087659 221.80373,50.327659 Q 221.49973,50.551659 221.32373,50.919659 Q 221.16373,51.287659 221.16373,51.671659 Q 221.16373,52.199659 221.30773,52.711659 Q 221.45173,53.207659 221.75573,53.543659 Q 222.05973,53.879659 222.52373,53.879659 Z"
           style="font-weight:bold;text-align:center;text-anchor:middle"
           id="path1085" />
      </g>
      <g
         aria-label="4"
         transform="matrix(0.79375001,0,0,0.79375001,-82.009059,13.006608)"
         id="text87929"
         style="font-size:16px;line-height:1.25;font-family:'Noto Sans Display';-inkscape-font-specification:'Noto Sans Display';white-space:pre;shape-inside:url(#rect87931)">
        <path
           d="M 226.53973,53.287659 H 225.30773 V 55.655659 H 222.76373 V 53.287659 H 218.33173 V 51.607659 L 222.92373,44.231659 H 225.30773 V 51.415659 H 226.53973 Z M 222.76373,49.479659 Q 222.76373,49.111659 222.77973,48.583659 Q 222.79573,48.055659 222.81173,47.607659 Q 222.84373,47.143659 222.84373,46.999659 H 222.77973 Q 222.63573,47.319659 222.49173,47.623659 Q 222.36373,47.911659 222.18773,48.247659 L 220.57173,51.415659 H 222.76373 Z"
           style="font-weight:bold;text-align:center;text-anchor:middle"
           id="path1088" />
      </g>
    </g>
  </g>
</svg>
