<?xml version="1.0" encoding="UTF-8" standalone="no"?>
<!-- Created with Inkscape (http://www.inkscape.org/) -->

<svg
   version="1.1"
   id="svg2"
   width="300"
   height="300"
   viewBox="0 0 300 300"
   sodipodi:docname="spiral.svg"
   inkscape:version="1.1 (c68e22c387, 2021-05-23)"
   xmlns:inkscape="http://www.inkscape.org/namespaces/inkscape"
   xmlns:sodipodi="http://sodipodi.sourceforge.net/DTD/sodipodi-0.dtd"
   xmlns:xlink="http://www.w3.org/1999/xlink"
   xmlns="http://www.w3.org/2000/svg"
   xmlns:svg="http://www.w3.org/2000/svg">
  <defs
     id="defs6">
    <linearGradient
       inkscape:collect="always"
       id="linearGradient1226">
      <stop
         style="stop-color:#d5e5f6;stop-opacity:1"
         offset="0"
         id="stop1222" />
      <stop
         style="stop-color:#ecf9f2;stop-opacity:1"
         offset="1"
         id="stop1224" />
    </linearGradient>
    <inkscape:path-effect
       effect="interpolate"
       id="path-effect2766"
       is_visible="true"
       lpeversion="1"
       trajectory="M 233.88768,981.70518 C 168.20989,800.24593 295.61003,580.92322 446.51259,583.38008 C 597.41516,585.83694 905.71397,749.86597 921.77308,450.54919"
       equidistant_spacing="true"
       steps="30"
       trajectory-nodetypes="czc" />
    <inkscape:path-effect
       effect="interpolate"
       id="path-effect1948"
       is_visible="true"
       lpeversion="1"
       trajectory="M 1063.6886,768.93117 C 975.84843,313.30785 21.746783,528.51595 607.71459,1121.123"
       equidistant_spacing="false"
       steps="12"
       trajectory-nodetypes="cc" />
    <linearGradient
       inkscape:collect="always"
       xlink:href="#linearGradient1226"
       id="linearGradient1228"
       x1="150.04196"
       y1="-0.028411258"
       x2="150.04196"
       y2="300.02206"
       gradientUnits="userSpaceOnUse" />
  </defs>
  <sodipodi:namedview
     id="namedview4"
     pagecolor="#ffffff"
     bordercolor="#666666"
     borderopacity="1.0"
     inkscape:pageshadow="2"
     inkscape:pageopacity="0.0"
     inkscape:pagecheckerboard="0"
     showgrid="false"
     inkscape:zoom="2.5166667"
     inkscape:cx="149.80132"
     inkscape:cy="150"
     inkscape:window-width="1680"
     inkscape:window-height="977"
     inkscape:window-x="0"
     inkscape:window-y="28"
     inkscape:window-maximized="1"
     inkscape:current-layer="layer1"
     inkscape:snap-global="false" />
  <g
     inkscape:groupmode="layer"
     id="layer1"
     inkscape:label="Background"
     style="display:inline"
     sodipodi:insensitive="true">
    <path
       id="rect1090"
       style="display:inline;fill:url(#linearGradient1228);fill-opacity:1;fill-rule:evenodd;stroke:none;stroke-width:4;stroke-linecap:round;stroke-linejoin:round;stroke-opacity:0.75"
       d="M 0,0 H 300 V 300 H 0 Z"
       inkscape:label="gradient" />
  </g>
  <g
     inkscape:groupmode="layer"
     inkscape:label="Image"
     id="g8"
     style="display:inline"
     sodipodi:insensitive="true">
    <path
       id="ellipse1013"
       style="fill:none;fill-opacity:0.496611;fill-rule:evenodd;stroke:#4141c0;stroke-width:0.75;stroke-miterlimit:4;stroke-dasharray:none;stroke-opacity:0.67"
       d="M 250.13599,239.02011 C 215.4347,273.38367 105.97203,306.53636 81.916572,256.66342 C 31.153847,151.41972 79.211516,-26.698515 28.225581,24.898844 C -22.760352,76.496204 140.90171,15.083781 248.79256,56.741629 C 305.20557,78.523304 281.69157,199.99526 248.87003,235.7841 C 216.81863,270.73307 109.28336,301.05952 86.101312,252.79616 C 37.219907,151.02855 83.450816,-22.61099 33.539353,28.048692 C -16.37211,78.708379 142.46104,19.490078 247.2145,59.499878 C 302.19754,80.500251 280.33273,198.05418 247.5741,232.81844 C 216.11223,266.20644 112.66535,295.81938 90.356692,249.16527 C 43.356594,150.87395 87.760755,-18.287061 38.923761,31.43495 C -9.9132265,81.156958 144.09199,24.131947 245.707,62.494537 C 299.26141,82.712863 279.23292,196.45809 246.42016,230.20244 C 215.46974,262.03156 116.09518,290.929 94.659923,245.88393 C 49.541096,151.0691 92.118547,-13.613595 44.356027,35.170739 C -3.4064914,83.955079 145.77188,29.122412 244.24742,65.838732 C 296.37447,85.274155 278.05342,195.21011 245.19706,228.00544 C 214.80296,258.34297 119.48721,286.52365 98.925327,243.0873 C 55.68774,151.74917 96.438515,-8.4554232 49.750461,39.39124 C 3.0624136,87.237905 147.41515,34.596543 242.74998,69.667632 C 293.4511,88.3192 276.92375,194.51979 243.88758,226.35866 C 213.96347,255.19819 122.68526,282.65892 102.99678,240.831 C 61.640388,152.96978 100.5645,-2.7569445 54.95094,44.15204 C 9.3373649,91.061034 148.86574,40.609822 241.05857,74.036833 C 290.3354,91.903482 275.5822,194.04584 242.21372,224.98622 C 212.66039,252.38909 125.57531,279.22381 106.76024,239.00386 C 67.284999,154.61991 104.38254,3.3707509 59.843435,49.342065 C 15.304331,95.313377 150.00977,47.051004 239.05922,78.83526 C 286.91337,95.915766 273.92408,194.01381 240.3579,223.96346 C 211.35433,249.84208 128.16715,276.04597 110.22548,237.43363 C 72.631341,156.52723 107.90234,9.7553219 64.437699,54.788965 C 20.97307,99.822614 150.85715,53.7476 236.76162,83.890561 C 283.195,100.18354 271.70339,194.17951 238.09282,223.25476 C 209.80263,247.72751 130.52996,273.00523 113.46168,235.99999 C 77.748581,158.57148 111.1931,16.276472 68.802933,60.372436 C 26.412771,104.46841 151.4772,60.579117 234.23497,89.082438 C 279.24962,104.58633 269.59163,194.66784 235.73232,222.64057 C 208.06065,245.50137 132.73127,270.03719 116.53642,234.63851 C 82.704279,160.68832 114.32239,22.8698 73.006701,66.028091 C 31.691013,109.18639 151.93768,67.480929 231.54687,94.346496 C 275.14504,109.05948 267.35341,195.23805 233.23658,222.08188 C 206.23819,243.3248 134.82354,267.10868 119.50214,233.31594 C 87.550872,162.84453 117.34267,29.502012 77.101448,71.722635 C 36.860231,113.94326 152.29125,74.419472 228.74977,99.649438 C 270.93383,113.56945 265.04221,195.86084 230.65214,221.55304 C 204.37778,241.18204 136.84742,264.20155 122.39951,232.01398 C 92.32901,165.02191 120.2946,36.154872 81.127854,77.437819 C 41.961109,118.72077 152.57878,81.376191 225.88429,104.97304 C 266.65697,118.09765 262.6997,196.52255 228.0167,221.03903 C 202.51613,239.06464 138.83756,261.30442 125.26318,230.72119 C 97.073314,167.20911 123.21283,42.816882 85.120555,83.162152 C 47.028281,123.50743 152.83521,88.339205 222.98511,110.30578 C 262.34933,122.63218 260.361,197.2168 225.36477,220.52952 C 200.68975,236.96673 140.82837,258.40806 128.12763,229.42821 C 101.81822,169.39684 126.13182,49.478691 89.11403,88.88629 C 52.096229,128.29389 153.09532,95.298703 220.08673,115.63831 C 258.04573,127.16323 258.06079,197.93995 222.73457,220.01403 C 198.94248,234.88081 142.86178,255.50115 131.03476,228.12344 C 106.6056,171.5737 129.09354,56.128738 93.150197,94.598674 C 57.206868,133.06858 153.40133,102.24255 217.23103,120.95908 C 253.78837,131.67864 255.84074,198.68684 220.17901,219.47546 C 197.33996,232.78924 145.0015,252.56136 134.04839,226.78439 C 111.4992,173.71735 132.16171,62.744495 97.292845,100.27676 C 62.423988,137.80899 153.81745,109.14755 214.48179,126.24556 C 249.64142,136.15517 253.76566,199.44315 217.79505,218.86753 C 196.01572,230.62851 147.37785,249.51863 137.29887,225.34077 C 116.62929,175.75773 135.46676,69.255659 101.67238,105.85024 C 67.87798,142.44482 154.47451,115.94253 211.96945,131.42746 C 245.7357,140.52161 251.97355,200.15519 215.7137,218.084 C 195.11419,228.26946 150.12212,246.23148 140.9176,223.65058 C 122.12721,177.55313 139.14007,75.520275 106.42013,111.17718 C 73.700229,146.83409 155.50443,122.48446 209.82535,136.3628 C 242.20299,144.63489 250.59599,200.6984 213.95953,217.0273 C 194.56359,225.67211 153.15204,242.64715 144.82247,221.66067 C 127.91059,179.05082 143.09949,81.48518 111.45404,116.20441 C 79.808601,150.92364 156.82559,128.71884 207.96738,140.99844 C 238.96164,148.44041 249.53973,201.02922 212.44295,215.6714 C 194.26218,222.84742 156.37026,238.76735 148.91639,219.37201 C 133.88217,180.25231 147.24796,87.151333 116.67698,120.9329 C 86.106008,154.71445 158.3416,134.64489 206.29846,145.33531 C 235.91501,151.93736 248.69498,201.15627 211.07878,214.02767 C 194.12922,219.82747 159.70315,234.61471 153.12608,216.80647 C 139.96828,181.18015 151.51221,92.540581 122.01571,125.38447 C 92.519201,158.22835 159.97984,140.28222 204.74529,149.39529 C 232.99029,155.14522 247.97576,201.10877 209.80506,212.11922 C 194.10544,216.64784 163.09949,230.21494 157.40091,213.98834 C 146.11771,181.85977 155.84159,97.677277 127.41955,129.58349 C 98.997543,161.48968 161.69038,145.65224 203.25728,153.20271 C 230.13722,158.08534 247.31798,200.91789 208.57864,209.96796 C 194.14416,213.3401 166.52252,225.5893 161.70521,210.93723 C 152.29385,182.31223 160.20045,102.58097 132.8529,133.54949 C 105.50533,164.51802 163.43819,150.77064 201.79875,156.77713 C 227.32021,160.77326 246.67115,200.60834 207.36807,207.5904 C 194.20233,209.92926 169.94311,220.75377 166.0117,207.66647 C 158.46773,182.5533 164.56151,107.265 138.28842,137.29586 C 112.01534,167.32672 165.19637,155.64552 200.34242,160.13189 C 224.51172,163.21707 245.99196,200.19593 206.14795,204.99707 C 194.23347,206.43277 173.3342,215.7199 170.29691,204.18381 C 164.61274,182.59434 168.90128,111.73716 143.70265,140.83035 C 118.50404,169.92353 166.94121,160.27761 198.86479,163.27479 C 221.68721,165.41749 245.23973,199.68707 204.89514,202.19369 C 194.1816,202.85932 176.66568,210.49706 174.53803,200.49293 C 170.69964,182.44494 173.19695,116.00106 149.07281,144.15657 C 124.94867,172.3121 168.64844,164.6608 197.34306,166.20941 C 218.8213,167.36856 244.37455,199.07932 203.58613,199.1826 C 193.9764,199.20693 179.89715,205.09396 178.71086,196.59493 C 176.68989,182.11593 177.42435,120.05786 154.37469,147.27572 C 131.325,174.49355 170.28958,168.78299 195.75306,168.93693 C 215.8845,169.05865 243.35641,198.36246 202.19544,195.96487 C 193.53066,195.46017 182.96227,199.51685 182.78858,192.49072 C 182.51989,181.62153 181.55663,123.90847 159.58142,150.18863 C 137.60623,176.4688 171.82796,172.62716 194.06794,171.45827 C 212.83989,170.47165 242.14542,197.52051 200.69483,192.54264 C 192.74458,191.58788 185.12382,193.58797 186.74159,188.1837 C 187.43844,180.87008 185.5642,127.55624 164.66347,152.89874 C 143.76275,178.24121 173.16278,175.72576 192.25811,173.77676 C 209.57833,171.14238 241.11838,197.15328 199.46887,189.53983 C 191.93827,188.16324 188.00412,187.49869 190.53881,183.68257 C 193.0735,179.86646 189.41597,131.00993 169.58972,155.41473 C 149.76345,179.81956 183.86931,170.79321 190.29247,175.90119 C 196.71567,181.00918 196.69434,181.35768 200.24151,186.37863 C 241.05872,244.15465 113.63842,323.87013 79.579783,262.48031 C 27.980064,169.47316 70.995485,-25.48958 23.919724,23.001691 C -22.644534,70.966077 130.79279,10.75437 249.67906,53.346044 C 310.26282,75.050511 279.75303,209.69133 250.13599,239.02011 Z"
       sodipodi:nodetypes="ssssssssssssssssssssssssssssssssssssssssssssssssssssssssssssssssssssssssssssssssssssssssssssssssssssssssssssssssssssszszsssss"
       inkscape:label="loopedspiral"
       sodipodi:insensitive="true" />
  </g>
</svg>
