<?xml version="1.0" encoding="UTF-8" standalone="no"?>
<svg
   width="460.8pt"
   height="345.6pt"
   viewBox="0 0 460.8 345.6"
   version="1.1"
   id="svg223"
   sodipodi:docname="wheelieplot.svg"
   inkscape:version="1.1 (c68e22c387, 2021-05-23)"
   xmlns:inkscape="http://www.inkscape.org/namespaces/inkscape"
   xmlns:sodipodi="http://sodipodi.sourceforge.net/DTD/sodipodi-0.dtd"
   xmlns:xlink="http://www.w3.org/1999/xlink"
   xmlns="http://www.w3.org/2000/svg"
   xmlns:svg="http://www.w3.org/2000/svg"
   xmlns:rdf="http://www.w3.org/1999/02/22-rdf-syntax-ns#"
   xmlns:cc="http://creativecommons.org/ns#"
   xmlns:dc="http://purl.org/dc/elements/1.1/">
  <sodipodi:namedview
     id="namedview225"
     pagecolor="#ffffff"
     bordercolor="#666666"
     borderopacity="1.0"
     inkscape:pageshadow="2"
     inkscape:pageopacity="0.0"
     inkscape:pagecheckerboard="0"
     inkscape:document-units="pt"
     showgrid="false"
     inkscape:zoom="1.3671875"
     inkscape:cx="301.34858"
     inkscape:cy="230.4"
     inkscape:window-width="1680"
     inkscape:window-height="978"
     inkscape:window-x="0"
     inkscape:window-y="28"
     inkscape:window-maximized="1"
     inkscape:current-layer="line2d_5" />
  <metadata
     id="metadata2">
    <rdf:RDF>
      <cc:Work>
        <dc:type
           rdf:resource="http://purl.org/dc/dcmitype/StillImage" />
        <dc:date>2022-02-20T10:55:54.444994</dc:date>
        <dc:format>image/svg+xml</dc:format>
        <dc:creator>
          <cc:Agent>
            <dc:title>Matplotlib v3.5.1, https://matplotlib.org/</dc:title>
          </cc:Agent>
        </dc:creator>
      </cc:Work>
    </rdf:RDF>
  </metadata>
  <defs
     id="defs6">
    <style
       type="text/css"
       id="style4">*{stroke-linejoin: round; stroke-linecap: butt}</style>
  </defs>
  <g
     id="figure_1">
    <g
       id="patch_1">
      <path
         d="M 0,345.6 H 460.8 V 0 H 0 Z"
         style="fill:none"
         id="path8" />
    </g>
    <g
       id="axes_1">
      <g
         id="patch_2">
        <path
           d="M 125.76165,307.584 H 346.55835 V 41.472 H 125.76165 Z"
           style="fill:#fcfcd5;fill-opacity:0.5"
           id="path11" />
      </g>
      <g
         id="matplotlib.axis_1">
        <g
           id="xtick_1">
          <g
             id="line2d_1">
            <path
               d="M 136.98414,307.584 V 41.472"
               clip-path="url(#pa1e189a0c7)"
               style="fill:none;stroke:#b0b0b0;stroke-width:0.8;stroke-linecap:square"
               id="path14" />
          </g>
          <g
             id="line2d_2">
            <defs
               id="defs18">
              <path
                 id="m9ff04bca58"
                 d="M 0,0 V 3.5"
                 style="stroke:#000000;stroke-width:0.8" />
            </defs>
            <g
               id="g22">
              <use
                 xlink:href="#m9ff04bca58"
                 x="136.98415"
                 y="307.58401"
                 style="stroke:#000000;stroke-width:0.8"
                 id="use20"
                 width="100%"
                 height="100%" />
            </g>
          </g>
          <g
             id="text_1">
            <!-- −1.0 -->
            <g
               transform="matrix(0.1,0,0,-0.1,124.84274,322.18244)"
               id="g39">
              <defs
                 id="defs29">
                <path
                   id="DejaVuSans-2212"
                   d="M 678,2272 H 4684 V 1741 H 678 Z"
                   transform="scale(0.015625)" />
                <path
                   id="DejaVuSans-31"
                   d="M 794,531 H 1825 V 4091 L 703,3866 V 4441 L 1819,4666 H 2450 V 531 H 3481 V 0 H 794 Z"
                   transform="scale(0.015625)" />
                <path
                   id="DejaVuSans-2e"
                   d="M 684,794 H 1344 V 0 H 684 Z"
                   transform="scale(0.015625)" />
                <path
                   id="DejaVuSans-30"
                   d="M 2034,4250 Q 1547,4250 1301,3770 Q 1056,3291 1056,2328 Q 1056,1369 1301,889 Q 1547,409 2034,409 Q 2525,409 2770,889 Q 3016,1369 3016,2328 Q 3016,3291 2770,3770 Q 2525,4250 2034,4250 Z M 2034,4750 Q 2819,4750 3233,4129 Q 3647,3509 3647,2328 Q 3647,1150 3233,529 Q 2819,-91 2034,-91 Q 1250,-91 836,529 Q 422,1150 422,2328 Q 422,3509 836,4129 Q 1250,4750 2034,4750 Z"
                   transform="scale(0.015625)" />
              </defs>
              <use
                 xlink:href="#DejaVuSans-2212"
                 id="use31"
                 x="0"
                 y="0"
                 width="100%"
                 height="100%" />
              <use
                 xlink:href="#DejaVuSans-31"
                 x="83.789062"
                 id="use33"
                 y="0"
                 width="100%"
                 height="100%" />
              <use
                 xlink:href="#DejaVuSans-2e"
                 x="147.41211"
                 id="use35"
                 y="0"
                 width="100%"
                 height="100%" />
              <use
                 xlink:href="#DejaVuSans-30"
                 x="179.19922"
                 id="use37"
                 y="0"
                 width="100%"
                 height="100%" />
            </g>
          </g>
        </g>
        <g
           id="xtick_2">
          <g
             id="line2d_3">
            <path
               d="M 190.65104,307.584 V 41.472"
               clip-path="url(#pa1e189a0c7)"
               style="fill:none;stroke:#b0b0b0;stroke-width:0.8;stroke-linecap:square"
               id="path43" />
          </g>
          <g
             id="line2d_4">
            <g
               id="g48">
              <use
                 xlink:href="#m9ff04bca58"
                 x="190.65103"
                 y="307.58401"
                 style="stroke:#000000;stroke-width:0.8"
                 id="use46"
                 width="100%"
                 height="100%" />
            </g>
          </g>
          <g
             id="text_2">
            <!-- −0.5 -->
            <g
               transform="matrix(0.1,0,0,-0.1,178.50963,322.18244)"
               id="g62">
              <defs
                 id="defs52">
                <path
                   id="DejaVuSans-35"
                   d="M 691,4666 H 3169 V 4134 H 1269 V 2991 Q 1406,3038 1543,3061 Q 1681,3084 1819,3084 Q 2600,3084 3056,2656 Q 3513,2228 3513,1497 Q 3513,744 3044,326 Q 2575,-91 1722,-91 Q 1428,-91 1123,-41 Q 819,9 494,109 V 744 Q 775,591 1075,516 Q 1375,441 1709,441 Q 2250,441 2565,725 Q 2881,1009 2881,1497 Q 2881,1984 2565,2268 Q 2250,2553 1709,2553 Q 1456,2553 1204,2497 Q 953,2441 691,2322 Z"
                   transform="scale(0.015625)" />
              </defs>
              <use
                 xlink:href="#DejaVuSans-2212"
                 id="use54"
                 x="0"
                 y="0"
                 width="100%"
                 height="100%" />
              <use
                 xlink:href="#DejaVuSans-30"
                 x="83.789062"
                 id="use56"
                 y="0"
                 width="100%"
                 height="100%" />
              <use
                 xlink:href="#DejaVuSans-2e"
                 x="147.41211"
                 id="use58"
                 y="0"
                 width="100%"
                 height="100%" />
              <use
                 xlink:href="#DejaVuSans-35"
                 x="179.19922"
                 id="use60"
                 y="0"
                 width="100%"
                 height="100%" />
            </g>
          </g>
        </g>
        <g
           id="xtick_3">
          <g
             id="line2d_5">
            <path
               d="M 244.31793,307.584 V 41.472"
               clip-path="url(#pa1e189a0c7)"
               style="fill:none;stroke:#8dbfd8;stroke-width:0.8;stroke-linecap:square;stroke-opacity:1"
               id="path66" />
          </g>
          <g
             id="line2d_6">
            <g
               id="g71">
              <use
                 xlink:href="#m9ff04bca58"
                 x="244.31793"
                 y="307.58401"
                 style="stroke:#000000;stroke-width:0.8"
                 id="use69"
                 width="100%"
                 height="100%" />
            </g>
          </g>
          <g
             id="text_3">
            <!-- 0.0 -->
            <g
               transform="matrix(0.1,0,0,-0.1,236.36637,322.18244)"
               id="g80">
              <use
                 xlink:href="#DejaVuSans-30"
                 id="use74"
                 x="0"
                 y="0"
                 width="100%"
                 height="100%" />
              <use
                 xlink:href="#DejaVuSans-2e"
                 x="63.623047"
                 id="use76"
                 y="0"
                 width="100%"
                 height="100%" />
              <use
                 xlink:href="#DejaVuSans-30"
                 x="95.410156"
                 id="use78"
                 y="0"
                 width="100%"
                 height="100%" />
            </g>
          </g>
        </g>
        <g
           id="xtick_4">
          <g
             id="line2d_7">
            <path
               d="M 297.98483,307.584 V 41.472"
               clip-path="url(#pa1e189a0c7)"
               style="fill:none;stroke:#b0b0b0;stroke-width:0.8;stroke-linecap:square"
               id="path84" />
          </g>
          <g
             id="line2d_8">
            <g
               id="g89">
              <use
                 xlink:href="#m9ff04bca58"
                 x="297.98483"
                 y="307.58401"
                 style="stroke:#000000;stroke-width:0.8"
                 id="use87"
                 width="100%"
                 height="100%" />
            </g>
          </g>
          <g
             id="text_4">
            <!-- 0.5 -->
            <g
               transform="matrix(0.1,0,0,-0.1,290.03326,322.18244)"
               id="g98">
              <use
                 xlink:href="#DejaVuSans-30"
                 id="use92"
                 x="0"
                 y="0"
                 width="100%"
                 height="100%" />
              <use
                 xlink:href="#DejaVuSans-2e"
                 x="63.623047"
                 id="use94"
                 y="0"
                 width="100%"
                 height="100%" />
              <use
                 xlink:href="#DejaVuSans-35"
                 x="95.410156"
                 id="use96"
                 y="0"
                 width="100%"
                 height="100%" />
            </g>
          </g>
        </g>
      </g>
      <g
         id="matplotlib.axis_2">
        <g
           id="ytick_1">
          <g
             id="line2d_9">
            <path
               d="M 125.76165,282.26374 H 346.55835"
               clip-path="url(#pa1e189a0c7)"
               style="fill:none;stroke:#b0b0b0;stroke-width:0.8;stroke-linecap:square"
               id="path103" />
          </g>
          <g
             id="line2d_10">
            <defs
               id="defs107">
              <path
                 id="m2331093311"
                 d="M 0,0 H -3.5"
                 style="stroke:#000000;stroke-width:0.8" />
            </defs>
            <g
               id="g111">
              <use
                 xlink:href="#m2331093311"
                 x="125.76165"
                 y="282.26373"
                 style="stroke:#000000;stroke-width:0.8"
                 id="use109"
                 width="100%"
                 height="100%" />
            </g>
          </g>
          <g
             id="text_5">
            <!-- −1.0 -->
            <g
               transform="matrix(0.1,0,0,-0.1,94.478836,286.06296)"
               id="g122">
              <use
                 xlink:href="#DejaVuSans-2212"
                 id="use114"
                 x="0"
                 y="0"
                 width="100%"
                 height="100%" />
              <use
                 xlink:href="#DejaVuSans-31"
                 x="83.789062"
                 id="use116"
                 y="0"
                 width="100%"
                 height="100%" />
              <use
                 xlink:href="#DejaVuSans-2e"
                 x="147.41211"
                 id="use118"
                 y="0"
                 width="100%"
                 height="100%" />
              <use
                 xlink:href="#DejaVuSans-30"
                 x="179.19922"
                 id="use120"
                 y="0"
                 width="100%"
                 height="100%" />
            </g>
          </g>
        </g>
        <g
           id="ytick_2">
          <g
             id="line2d_11">
            <path
               d="M 125.76165,228.59685 H 346.55835"
               clip-path="url(#pa1e189a0c7)"
               style="fill:none;stroke:#b0b0b0;stroke-width:0.8;stroke-linecap:square"
               id="path126" />
          </g>
          <g
             id="line2d_12">
            <g
               id="g131">
              <use
                 xlink:href="#m2331093311"
                 x="125.76165"
                 y="228.59685"
                 style="stroke:#000000;stroke-width:0.8"
                 id="use129"
                 width="100%"
                 height="100%" />
            </g>
          </g>
          <g
             id="text_6">
            <!-- −0.5 -->
            <g
               transform="matrix(0.1,0,0,-0.1,94.478836,232.39607)"
               id="g142">
              <use
                 xlink:href="#DejaVuSans-2212"
                 id="use134"
                 x="0"
                 y="0"
                 width="100%"
                 height="100%" />
              <use
                 xlink:href="#DejaVuSans-30"
                 x="83.789062"
                 id="use136"
                 y="0"
                 width="100%"
                 height="100%" />
              <use
                 xlink:href="#DejaVuSans-2e"
                 x="147.41211"
                 id="use138"
                 y="0"
                 width="100%"
                 height="100%" />
              <use
                 xlink:href="#DejaVuSans-35"
                 x="179.19922"
                 id="use140"
                 y="0"
                 width="100%"
                 height="100%" />
            </g>
          </g>
        </g>
        <g
           id="ytick_3">
          <g
             id="line2d_13">
            <path
               d="M 125.76165,174.92995 H 346.55835"
               clip-path="url(#pa1e189a0c7)"
               style="fill:none;stroke:#8dbfd8;stroke-width:0.8;stroke-linecap:square;stroke-opacity:1"
               id="path146" />
          </g>
          <g
             id="line2d_14">
            <g
               id="g151">
              <use
                 xlink:href="#m2331093311"
                 x="125.76165"
                 y="174.92995"
                 style="stroke:#000000;stroke-width:0.8"
                 id="use149"
                 width="100%"
                 height="100%" />
            </g>
          </g>
          <g
             id="text_7">
            <!-- 0.0 -->
            <g
               transform="matrix(0.1,0,0,-0.1,102.85852,178.72917)"
               id="g160">
              <use
                 xlink:href="#DejaVuSans-30"
                 id="use154"
                 x="0"
                 y="0"
                 width="100%"
                 height="100%" />
              <use
                 xlink:href="#DejaVuSans-2e"
                 x="63.623047"
                 id="use156"
                 y="0"
                 width="100%"
                 height="100%" />
              <use
                 xlink:href="#DejaVuSans-30"
                 x="95.410156"
                 id="use158"
                 y="0"
                 width="100%"
                 height="100%" />
            </g>
          </g>
        </g>
        <g
           id="ytick_4">
          <g
             id="line2d_15">
            <path
               d="M 125.76165,121.26306 H 346.55835"
               clip-path="url(#pa1e189a0c7)"
               style="fill:none;stroke:#b0b0b0;stroke-width:0.8;stroke-linecap:square"
               id="path164" />
          </g>
          <g
             id="line2d_16">
            <g
               id="g169">
              <use
                 xlink:href="#m2331093311"
                 x="125.76165"
                 y="121.26306"
                 style="stroke:#000000;stroke-width:0.8"
                 id="use167"
                 width="100%"
                 height="100%" />
            </g>
          </g>
          <g
             id="text_8">
            <!-- 0.5 -->
            <g
               transform="matrix(0.1,0,0,-0.1,102.85852,125.06228)"
               id="g178">
              <use
                 xlink:href="#DejaVuSans-30"
                 id="use172"
                 x="0"
                 y="0"
                 width="100%"
                 height="100%" />
              <use
                 xlink:href="#DejaVuSans-2e"
                 x="63.623047"
                 id="use174"
                 y="0"
                 width="100%"
                 height="100%" />
              <use
                 xlink:href="#DejaVuSans-35"
                 x="95.410156"
                 id="use176"
                 y="0"
                 width="100%"
                 height="100%" />
            </g>
          </g>
        </g>
        <g
           id="ytick_5">
          <g
             id="line2d_17">
            <path
               d="M 125.76165,67.596166 H 346.55835"
               clip-path="url(#pa1e189a0c7)"
               style="fill:none;stroke:#b0b0b0;stroke-width:0.8;stroke-linecap:square"
               id="path182" />
          </g>
          <g
             id="line2d_18">
            <g
               id="g187">
              <use
                 xlink:href="#m2331093311"
                 x="125.76165"
                 y="67.596169"
                 style="stroke:#000000;stroke-width:0.8"
                 id="use185"
                 width="100%"
                 height="100%" />
            </g>
          </g>
          <g
             id="text_9">
            <!-- 1.0 -->
            <g
               transform="matrix(0.1,0,0,-0.1,102.85852,71.395385)"
               id="g196">
              <use
                 xlink:href="#DejaVuSans-31"
                 id="use190"
                 x="0"
                 y="0"
                 width="100%"
                 height="100%" />
              <use
                 xlink:href="#DejaVuSans-2e"
                 x="63.623047"
                 id="use192"
                 y="0"
                 width="100%"
                 height="100%" />
              <use
                 xlink:href="#DejaVuSans-30"
                 x="95.410156"
                 id="use194"
                 y="0"
                 width="100%"
                 height="100%" />
            </g>
          </g>
        </g>
      </g>
      <g
         id="line2d_19">
        <path
           d="M 332.21555,70.355276 L 331.06258,67.885463 L 329.77499,65.604419 L 328.35442,63.515777 L 326.80287,61.622552 L 325.12273,59.927137 L 323.31678,58.431302 L 321.38822,57.136194 L 319.34061,56.042343 L 317.17792,55.149664 L 314.90448,54.457467 L 312.52504,53.964465 L 310.04469,53.66879 L 307.46889,53.568 L 304.80348,53.659102 L 302.0546,53.938567 L 299.22877,54.402345 L 296.33278,55.045894 L 293.37373,55.864195 L 290.35902,56.851784 L 287.2963,58.002767 L 284.19345,59.310856 L 281.05858,60.769391 L 277.89998,62.37137 L 271.54564,65.976124 L 265.19977,70.063395 L 258.93313,74.567921 L 252.81702,79.421908 L 246.92223,84.556025 L 241.31815,89.900401 L 236.07168,95.385581 L 231.24626,100.94345 L 226.9009,106.5081 L 223.08923,112.01662 L 219.85857,117.4098 L 218.47399,120.04581 L 217.24916,122.63279 L 216.18788,125.16466 L 215.29342,127.63565 L 214.56849,130.04036 L 214.01525,132.37373 L 213.63529,134.63108 L 213.42958,136.80809 L 213.39853,138.90082 L 213.54192,140.90569 L 213.85892,142.81954 L 214.34809,144.63955 L 215.00737,146.36332 L 215.8341,147.98879 L 216.82498,149.51432 L 217.97615,150.93859 L 219.2831,152.26069 L 220.74079,153.48004 L 222.34357,154.59641 L 224.08525,155.60992 L 225.9591,156.52102 L 227.95786,157.33045 L 230.07379,158.03929 L 232.29866,158.64889 L 234.62381,159.16088 L 239.5382,159.89988 L 244.73974,160.27436 L 250.14604,160.30589 L 255.67061,160.01902 L 261.22408,159.4408 L 266.71546,158.60026 L 272.05343,157.52792 L 277.14766,156.25535 L 281.91012,154.81471 L 286.25642,153.23836 L 290.10703,151.55853 L 293.38853,149.80695 L 296.03468,148.01466 L 297.10103,147.11268 L 297.98748,146.21171 L 298.68823,145.31534 L 299.19808,144.42707 L 299.51249,143.55033 L 299.62756,142.68845 L 299.5401,141.8447 L 299.24757,141.02224 L 298.74818,140.22415 L 298.04081,139.45344 L 297.1251,138.71302 L 296.00138,138.0057 L 294.67071,137.33424 L 293.1349,136.70129 L 289.45855,135.56116 L 285.00084,134.60499 L 279.80129,133.85127 L 273.90989,133.31734 L 267.38645,133.01947 L 260.29976,132.97292 L 252.72665,133.19193 L 244.75094,133.68982 L 236.4622,134.47886 L 227.95456,135.57035 L 219.32535,136.97447 L 210.67376,138.70021 L 202.09939,140.75524 L 193.70091,143.14574 L 185.57469,145.87621 L 181.64282,147.36983 L 177.81341,148.94927 L 174.09728,150.61453 L 170.50484,152.36545 L 167.04611,154.20172 L 163.73063,156.12289 L 160.56747,158.12831 L 157.56519,160.21718 L 154.7318,162.38848 L 152.07476,164.64103 L 149.60091,166.97344 L 147.3165,169.38412 L 145.22714,171.87126 L 143.33781,174.43282 L 141.65281,177.06657 L 140.17577,179.77004 L 138.90965,182.54051 L 137.85671,185.37506 L 137.01853,188.27049 L 136.39598,191.22341 L 135.98926,194.23017 L 135.79786,197.28686 L 135.82061,200.38938 L 136.05566,203.53335 L 136.50048,206.71419 L 137.15192,209.92707 L 138.00619,213.16697 L 139.05887,216.42861 L 140.30497,219.70655 L 141.7389,222.99513 L 143.35456,226.28849 L 145.14529,229.58061 L 147.10396,232.86531 L 149.22296,236.13624 L 151.49427,239.38694 L 153.90943,242.61079 L 156.45965,245.80112 L 159.13578,248.95112 L 161.92837,252.05395 L 164.82772,255.10269 L 170.90678,261.01022 L 177.29139,266.61829 L 183.89816,271.87211 L 190.64301,276.71819 L 197.44238,281.10518 L 204.21436,284.98454 L 210.87976,288.31142 L 214.14876,289.75484 L 217.36318,291.04534 L 220.51433,292.17867 L 223.59387,293.15094 L 226.59384,293.95863 L 229.50666,294.59865 L 232.32517,295.06831 L 235.04263,295.36536 L 237.65278,295.488 L 240.14978,295.43491 L 242.52831,295.20524 L 244.78351,294.79864 L 246.91102,294.21525 L 248.90699,293.45571 L 250.76809,292.52121 L 252.49147,291.41342 L 254.07481,290.13456 L 255.51632,288.68736 L 256.81468,287.07507 L 257.96911,285.30147 L 258.97929,283.37083 L 259.84544,281.28796 L 260.56821,279.05813 L 261.14875,276.68712 L 261.58864,274.18118 L 261.88992,271.54701 L 262.05506,268.79174 L 262.08692,265.92295 L 261.98875,262.94859 L 261.76419,259.87701 L 260.95213,253.47729 L 259.68637,246.79712 L 258.00712,239.91417 L 255.95841,232.90943 L 253.58731,225.86621 L 250.94319,218.86894 L 248.07691,212.00209 L 245.04015,205.34892 L 241.88463,198.9903 L 238.66146,193.00355 L 235.4205,187.46126 L 232.20982,182.4302 L 229.07518,177.97029 L 226.05956,174.13362 L 223.20287,170.96367 L 220.54157,168.4945 L 218.10853,166.75019 L 216.98684,166.15455 L 215.93282,165.7444 L 214.9495,165.51978 L 214.03967,165.48002 L 213.20588,165.62378 L 212.45043,165.94903 L 211.77541,166.45308 L 211.18265,167.13254 L 210.67375,167.98337 L 210.25011,169.00091 L 209.9129,170.17981 L 209.66305,171.51413 L 209.42829,174.62232 L 209.54943,178.26634 L 210.02715,182.37859 L 210.85939,186.88397 L 212.04162,191.7009 L 213.5671,196.74246 L 215.42712,201.91766 L 217.6112,207.13272 L 220.10731,212.29243 L 222.90207,217.30153 L 225.98084,222.06612 L 229.3279,226.49503 L 231.09685,228.55618 L 232.92651,230.50112 L 234.81466,232.31982 L 236.75898,234.00264 L 238.75712,235.54039 L 240.80667,236.92436 L 242.90515,238.14635 L 245.05003,239.19872 L 247.23872,240.07437 L 249.46856,240.76682 L 251.73684,241.27021 L 254.04077,241.57932 L 256.37751,241.68957 L 258.74413,241.59709 L 261.13765,241.29869 L 263.555,240.79188 L 265.99305,240.0749 L 268.44859,239.14668 L 270.91833,238.00691 L 273.39889,236.65597 L 275.88684,235.095 L 278.37865,233.32582 L 280.87069,231.35099 L 283.3593,229.17377 L 285.8407,226.79809 L 288.31103,224.22858 L 290.76639,221.47052 L 293.20278,218.52982 L 295.61613,215.41302 L 298.0023,212.12725 L 300.35711,208.6802 L 302.67629,205.0801 L 307.19056,197.45622 L 311.51019,189.33108 L 315.59982,180.78669 L 319.42395,171.91038 L 322.94723,162.79362 L 326.13492,153.53067 L 328.95324,144.2173 L 331.36988,134.94941 L 333.35445,125.82177 L 334.879,116.92669 L 335.9185,108.35283 L 336.24946,104.21277 L 336.45137,100.18401 L 336.52214,96.276104 L 336.45997,92.498161 L 336.26336,88.858843 L 335.93109,85.366328 L 335.46228,82.028283 L 334.85636,78.851849 L 334.11312,75.843616 L 333.23269,73.00961 L 332.21555,70.355276 V 70.355276"
           clip-path="url(#pa1e189a0c7)"
           style="fill:none;stroke:#1f77b4;stroke-width:1.5;stroke-linecap:square"
           id="path201" />
      </g>
      <g
         id="patch_3">
        <path
           d="M 125.76165,307.584 V 41.472"
           style="fill:none;stroke:#000000;stroke-width:0.8;stroke-linecap:square;stroke-linejoin:miter"
           id="path204" />
      </g>
      <g
         id="patch_4">
        <path
           d="M 346.55835,307.584 V 41.472"
           style="fill:none;stroke:#000000;stroke-width:0.8;stroke-linecap:square;stroke-linejoin:miter"
           id="path207" />
      </g>
      <g
         id="patch_5">
        <path
           d="M 125.76165,307.584 H 346.55835"
           style="fill:none;stroke:#000000;stroke-width:0.8;stroke-linecap:square;stroke-linejoin:miter"
           id="path210" />
      </g>
      <g
         id="patch_6">
        <path
           d="M 125.76165,41.472 H 346.55835"
           style="fill:none;stroke:#000000;stroke-width:0.8;stroke-linecap:square;stroke-linejoin:miter"
           id="path213" />
      </g>
    </g>
  </g>
  <defs
     id="defs221">
    <clipPath
       id="pa1e189a0c7">
      <rect
         x="125.761649"
         y="41.472"
         width="220.796703"
         height="266.112"
         id="rect218" />
    </clipPath>
  </defs>
</svg>
