<?xml version="1.0" encoding="UTF-8" standalone="no"?>
<svg
   xmlns:dc="http://purl.org/dc/elements/1.1/"
   xmlns:cc="http://creativecommons.org/ns#"
   xmlns:rdf="http://www.w3.org/1999/02/22-rdf-syntax-ns#"
   xmlns:svg="http://www.w3.org/2000/svg"
   xmlns="http://www.w3.org/2000/svg"
   xmlns:xlink="http://www.w3.org/1999/xlink"
   xmlns:sodipodi="http://sodipodi.sourceforge.net/DTD/sodipodi-0.dtd"
   xmlns:inkscape="http://www.inkscape.org/namespaces/inkscape"
   width="450"
   height="100"
   viewbox="0 0 442.91339 88.582678"
   id="svg2"
   version="1.1"
   inkscape:version="1.0.2 (e86c870879, 2021-01-15)"
   sodipodi:docname="routedir.svg"
   viewBox="0 0 450 100">
  <title
     id="title943">G'MIC Routing Directive Layout</title>
  <defs
     id="defs4">
    <color-profile
       name="sRGB-IEC61966-2.1"
       xlink:href="file:///home/gosgood/.local/share/color/icc/iec_defaultRGB.icc"
       id="color-profile945" />
  </defs>
  <sodipodi:namedview
     id="base"
     pagecolor="#ffffff"
     bordercolor="#666666"
     borderopacity="1.0"
     inkscape:pageopacity="0.0"
     inkscape:pageshadow="2"
     inkscape:zoom="1.4835225"
     inkscape:cx="118.59161"
     inkscape:cy="200.74809"
     inkscape:document-units="mm"
     inkscape:current-layer="g4227"
     showgrid="false"
     inkscape:window-width="1680"
     inkscape:window-height="977"
     inkscape:window-x="0"
     inkscape:window-y="28"
     inkscape:window-maximized="1"
     inkscape:document-rotation="0"
     units="px" />
  <metadata
     id="metadata7">
    <rdf:rdf>
      <cc:work
         rdf:about="">
        <dc:format>image/svg+xml</dc:format>
        <dc:type
           rdf:resource="http://purl.org/dc/dcmitype/StillImage">
          <dc:title />
        </dc:type>
      </cc:work>
    </rdf:rdf>
    <rdf:RDF>
      <cc:Work
         rdf:about="">
        <dc:format>image/svg+xml</dc:format>
        <dc:type
           rdf:resource="http://purl.org/dc/dcmitype/StillImage" />
        <dc:title>G'MIC Routing Directive Layout</dc:title>
        <cc:license
           rdf:resource="http://creativecommons.org/publicdomain/zero/1.0/" />
      </cc:Work>
      <cc:License
         rdf:about="http://creativecommons.org/publicdomain/zero/1.0/">
        <cc:permits
           rdf:resource="http://creativecommons.org/ns#Reproduction" />
        <cc:permits
           rdf:resource="http://creativecommons.org/ns#Distribution" />
        <cc:permits
           rdf:resource="http://creativecommons.org/ns#DerivativeWorks" />
      </cc:License>
    </rdf:RDF>
  </metadata>
  <g
     inkscape:label="Layer 1"
     inkscape:groupmode="layer"
     id="layer1"
     transform="translate(0,-963.77953)">
    <g
       id="g4227"
       transform="translate(0,-35.433062)">
      <g
         id="g941"
         transform="translate(8.4024807,6.272597)">
        <path
           inkscape:connector-curvature="0"
           id="rect4136"
           d="m 322.94097,1021.321 h 53.06117 v 53.0611 h -53.06117 z"
           style="fill:#aaccff;fill-opacity:1;fill-rule:evenodd;stroke:#000000;stroke-width:1;stroke-miterlimit:4;stroke-dasharray:none;stroke-opacity:1" />
        <path
           inkscape:connector-curvature="0"
           style="fill:#ffcc00;fill-opacity:1;fill-rule:evenodd;stroke:#000000;stroke-width:1;stroke-miterlimit:4;stroke-dasharray:none;stroke-opacity:1"
           d="m 269.79135,1021.321 h 53.06118 v 53.0611 h -53.06118 z"
           id="path4139" />
        <path
           inkscape:connector-curvature="0"
           id="path4141"
           d="m 216.64173,1021.321 h 53.06118 v 53.0611 h -53.06118 z"
           style="fill:#ffeeaa;fill-opacity:1;fill-rule:evenodd;stroke:#000000;stroke-width:1;stroke-miterlimit:4;stroke-dasharray:none;stroke-opacity:1" />
        <path
           inkscape:connector-curvature="0"
           style="fill:#ff2a7f;fill-opacity:1;fill-rule:evenodd;stroke:#000000;stroke-width:1;stroke-miterlimit:4;stroke-dasharray:none;stroke-opacity:1"
           d="m 163.49213,1021.321 h 53.06117 v 53.0611 h -53.06117 z"
           id="path4143" />
        <path
           sodipodi:nodetypes="ccccc"
           inkscape:connector-curvature="0"
           id="path4145"
           d="m 376.09055,1021.321 h 53.06118 v 53.0611 h -53.06118 z"
           style="fill:#5599ff;fill-opacity:1;fill-rule:evenodd;stroke:#000000;stroke-width:1;stroke-miterlimit:4;stroke-dasharray:none;stroke-opacity:1" />
        <path
           inkscape:connector-curvature="0"
           id="path4147"
           d="m 110.34252,1021.321 h 53.06118 v 53.0611 h -53.06118 z"
           style="fill:#ffaacc;fill-opacity:1;fill-rule:evenodd;stroke:#000000;stroke-width:1;stroke-miterlimit:4;stroke-dasharray:none;stroke-opacity:1" />
        <g
           transform="translate(318.17131,898.71579)"
           style="font-style:normal;font-weight:normal;font-size:40px;line-height:125%;font-family:sans-serif;letter-spacing:0px;word-spacing:0px;fill:#000000;fill-opacity:1;stroke:none;stroke-width:1px;stroke-linecap:butt;stroke-linejoin:miter;stroke-opacity:1"
           id="flowRoot4157">
          <path
             d="m 68.929687,149.62404 v -2.89062 H 78.8125 v 2.89062 z"
             id="path4540" />
          <path
             d="m 81.117187,159.74123 6.894532,-11.21094 -6.660157,-10 h 4.453125 l 5.3125,7.94922 4.765625,-7.94922 H 99.4375 l -6.484375,10.6836 7.011719,10.52734 H 95.53125 l -5.742188,-8.51563 -5.117187,8.51563 z"
             id="path4542" />
        </g>
        <g
           transform="translate(259.86548,898.71579)"
           style="font-style:normal;font-weight:normal;font-size:40px;line-height:125%;font-family:sans-serif;letter-spacing:0px;word-spacing:0px;fill:#000000;fill-opacity:1;stroke:none;stroke-width:1px;stroke-linecap:butt;stroke-linejoin:miter;stroke-opacity:1"
           id="flowRoot4165">
          <path
             d="m 77.425781,157.80764 v -8.1836 h -8.183594 v -2.89062 h 8.183594 v -8.20313 h 2.890625 v 8.20313 h 8.203125 v 2.89062 h -8.203125 v 8.1836 z"
             id="path4535" />
          <path
             d="m 91.117187,159.74123 6.894532,-11.21094 -6.660157,-10 h 4.453125 l 5.312503,7.94922 4.76562,-7.94922 h 3.55469 l -6.48437,10.6836 7.01171,10.52734 h -4.43359 l -5.742188,-8.51563 -5.117187,8.51563 z"
             id="path4537" />
        </g>
        <g
           transform="translate(211.68657,898.71579)"
           style="font-style:normal;font-weight:normal;font-size:40px;line-height:125%;font-family:sans-serif;letter-spacing:0px;word-spacing:0px;fill:#000000;fill-opacity:1;stroke:none;stroke-width:1px;stroke-linecap:butt;stroke-linejoin:miter;stroke-opacity:1"
           id="flowRoot4173">
          <path
             d="m 68.929687,149.62404 v -2.89062 H 78.8125 v 2.89062 z"
             id="path4530" />
          <path
             d="m 88.460937,159.74123 -7.519531,-21.21094 h 3.90625 l 5.761719,16.26953 6.328125,-16.26953 h 3.39844 L 89.125,167.45607 h -4.003906 z"
             id="path4532" />
        </g>
        <g
           transform="translate(153.38069,898.71579)"
           style="font-style:normal;font-weight:normal;font-size:40px;line-height:125%;font-family:sans-serif;letter-spacing:0px;word-spacing:0px;fill:#000000;fill-opacity:1;stroke:none;stroke-width:1px;stroke-linecap:butt;stroke-linejoin:miter;stroke-opacity:1"
           id="flowRoot4181">
          <path
             d="m 77.425781,157.80764 v -8.1836 h -8.183594 v -2.89062 h 8.183594 v -8.20313 h 2.890625 v 8.20313 h 8.203125 v 2.89062 h -8.203125 v 8.1836 z"
             id="path4525" />
          <path
             d="m 98.460937,159.74123 -7.519531,-21.21094 h 3.90625 l 5.761724,16.26953 6.32812,-16.26953 h 3.39844 L 99.125,167.45607 h -4.003906 z"
             id="path4527" />
        </g>
        <g
           transform="translate(105.99281,898.71579)"
           style="font-style:normal;font-weight:normal;font-size:40px;line-height:125%;font-family:sans-serif;letter-spacing:0px;word-spacing:0px;fill:#000000;fill-opacity:1;stroke:none;stroke-width:1px;stroke-linecap:butt;stroke-linejoin:miter;stroke-opacity:1"
           id="flowRoot4189">
          <path
             d="m 68.929687,149.62404 v -2.89062 H 78.8125 v 2.89062 z"
             id="path4520" />
          <path
             d="M 82.015625,159.74123 V 156.8506 L 94.144531,141.42092 H 82.621094 v -2.89063 h 16.269531 v 2.89063 L 86.761719,156.8506 H 99.125 v 2.89063 z"
             id="path4522" />
        </g>
        <g
           transform="translate(47.686947,898.71579)"
           style="font-style:normal;font-weight:normal;font-size:40px;line-height:125%;font-family:sans-serif;letter-spacing:0px;word-spacing:0px;fill:#000000;fill-opacity:1;stroke:none;stroke-width:1px;stroke-linecap:butt;stroke-linejoin:miter;stroke-opacity:1"
           id="flowRoot4197">
          <path
             d="m 77.425781,157.80764 v -8.1836 h -8.183594 v -2.89062 h 8.183594 v -8.20313 h 2.890625 v 8.20313 h 8.203125 v 2.89062 h -8.203125 v 8.1836 z"
             id="path4515" />
          <path
             d="M 92.015625,159.74123 V 156.8506 L 104.14453,141.42092 H 92.621094 v -2.89063 h 16.269536 v 2.89063 L 96.761719,156.8506 H 109.125 v 2.89063 z"
             id="path4517" />
        </g>
        <g
           transform="translate(367.17346,869.52017)"
           style="font-style:normal;font-weight:normal;font-size:40px;line-height:125%;font-family:sans-serif;letter-spacing:0px;word-spacing:0px;fill:#000000;fill-opacity:1;stroke:none;stroke-width:1px;stroke-linecap:butt;stroke-linejoin:miter;stroke-opacity:1"
           id="flowRoot4211">
          <path
             d="m 23.037354,148.77412 v -16.25977 h 2.307128 v 14.53492 h 7.976075 v 1.72485 z"
             style="font-size:22.5px"
             id="path4508" />
          <path
             d="m 35.221191,148.20283 v -2.28516 q 3.251954,1.53809 6.416016,1.53809 3.548584,0 3.548584,-2.62573 0,-1.36231 -0.977783,-1.99951 -0.758057,-0.50538 -2.438965,-1.05469 l -2.208252,-0.7251 q -4.251709,-1.39526 -4.251709,-4.60327 0,-4.3396 5.95459,-4.3396 2.548828,0 5.284424,0.69214 v 2.12036 q -2.856446,-1.08765 -5.427246,-1.08765 -3.581543,0 -3.581543,2.43897 0,0.95581 0.670166,1.53808 0.692138,0.60425 2.438964,1.17554 l 2.263184,0.73608 q 2.559815,0.83497 3.603516,1.91163 1.043701,1.06567 1.043701,2.85644 0,2.16431 -1.604004,3.42774 -1.593018,1.26342 -4.405518,1.26342 -2.768554,0 -6.328125,-0.97778 z"
             style="font-size:22.5px"
             id="path4510" />
          <path
             d="m 50.766846,148.77412 v -16.25977 h 5.207519 q 3.208008,0 4.526367,0.82398 1.329346,0.83496 1.329346,2.8125 0,1.82373 -1.307373,2.95532 -0.791016,0.68115 -2.296143,1.19751 1.911622,0.57129 2.878418,1.39526 1.373291,1.16455 1.373291,3.02124 0,1.72486 -1.120605,2.86744 -0.791016,0.81298 -2.076416,1.02172 -1.021729,0.1648 -2.735596,0.1648 z m 2.307129,-1.72485 h 1.70288 q 3.229981,0 4.251709,-0.4834 1.010743,-0.47242 1.010743,-1.99951 0,-1.68091 -1.307373,-2.55982 -1.307373,-0.88989 -3.779297,-0.88989 h -1.878662 z m 0,-7.3938 h 1.966552 q 4.416504,0 4.416504,-3.10913 0,-1.57105 -1.263427,-1.98853 -0.966797,-0.3186 -2.988282,-0.3186 h -2.131347 z"
             style="font-size:22.5px"
             id="path4512" />
        </g>
        <g
           transform="translate(-19.494046,869.52017)"
           style="font-style:normal;font-weight:normal;font-size:40px;line-height:125%;font-family:sans-serif;letter-spacing:0px;word-spacing:0px;fill:#000000;fill-opacity:1;stroke:none;stroke-width:1px;stroke-linecap:butt;stroke-linejoin:miter;stroke-opacity:1"
           id="flowRoot4219">
          <path
             d="m 23.037354,148.77412 v -16.25977 h 3.197021 l 4.471436,12.57935 4.592285,-12.57935 h 2.856445 v 16.25977 h -2.15332 v -13.21655 l -4.438477,12.1289 H 29.33252 l -4.306641,-12.17285 v 13.2605 z"
             style="font-size:22.5px"
             id="path4501" />
          <path
             d="m 41.307617,148.20283 v -2.28516 q 3.251953,1.53809 6.416016,1.53809 3.548584,0 3.548584,-2.62573 0,-1.36231 -0.977783,-1.99951 -0.758057,-0.50538 -2.438965,-1.05469 l -2.208252,-0.7251 q -4.251709,-1.39526 -4.251709,-4.60327 0,-4.3396 5.95459,-4.3396 2.548828,0 5.284423,0.69214 v 2.12036 q -2.856445,-1.08765 -5.427246,-1.08765 -3.581543,0 -3.581543,2.43897 0,0.95581 0.670166,1.53808 0.692139,0.60425 2.438965,1.17554 l 2.263184,0.73608 q 2.559814,0.83497 3.603515,1.91163 1.043702,1.06567 1.043702,2.85644 0,2.16431 -1.604004,3.42774 -1.593018,1.26342 -4.405518,1.26342 -2.768555,0 -6.328125,-0.97778 z"
             style="font-size:22.5px"
             id="path4503" />
          <path
             d="m 56.831299,148.77412 v -16.25977 h 5.207519 q 3.208008,0 4.526368,0.82398 1.329345,0.83496 1.329345,2.8125 0,1.82373 -1.307373,2.95532 -0.791015,0.68115 -2.296142,1.19751 1.911621,0.57129 2.878418,1.39526 1.373291,1.16455 1.373291,3.02124 0,1.72486 -1.120606,2.86744 -0.791015,0.81298 -2.076416,1.02172 -1.021728,0.1648 -2.735596,0.1648 z m 2.307129,-1.72485 h 1.702881 q 3.22998,0 4.251709,-0.4834 1.010742,-0.47242 1.010742,-1.99951 0,-1.68091 -1.307373,-2.55982 -1.307373,-0.88989 -3.779297,-0.88989 h -1.878662 z m 0,-7.3938 h 1.966552 q 4.416504,0 4.416504,-3.10913 0,-1.57105 -1.263427,-1.98853 -0.966797,-0.3186 -2.988282,-0.3186 h -2.131347 z"
             style="font-size:22.5px"
             id="path4505" />
        </g>
        <path
           style="fill:#b7b7c8;fill-opacity:1;fill-rule:evenodd;stroke:#000000;stroke-width:1;stroke-miterlimit:4;stroke-dasharray:none;stroke-opacity:1"
           d="M 57.192914,1021.321 H 110.2541 v 53.0611 H 57.192914 Z"
           id="path4267"
           inkscape:connector-curvature="0" />
        <path
           inkscape:connector-curvature="0"
           id="path4269"
           d="M 4.0433076,1021.321 H 57.104492 v 53.0611 H 4.0433076 Z"
           style="fill:#b7b7c8;fill-opacity:1;fill-rule:evenodd;stroke:#000000;stroke-width:1;stroke-miterlimit:4;stroke-dasharray:none;stroke-opacity:1" />
        <g
           transform="translate(298.47187,906.32447)"
           style="font-style:normal;font-weight:normal;font-size:40px;line-height:125%;font-family:sans-serif;letter-spacing:0px;word-spacing:0px;fill:#000000;fill-opacity:1;stroke:none;stroke-width:1px;stroke-linecap:butt;stroke-linejoin:miter;stroke-opacity:1"
           id="flowRoot4271">
          <path
             d="m 73.933594,177.74683 v -0.84473 q 0.332031,-0.78125 1.123047,-1.60644 l 0.527343,-0.53711 0.478516,-0.48828 q 0.942383,-0.96192 0.942383,-1.92871 0,-0.68848 -0.361328,-1.01563 -0.292969,-0.26855 -0.810547,-0.26855 -0.673828,0 -1.71875,0.58594 v -0.84961 q 0.991211,-0.45411 1.845703,-0.45411 0.947266,0 1.508789,0.55176 0.561523,0.54688 0.561523,1.47461 0,0.63965 -0.288086,1.13281 -0.302734,0.50782 -1.09375,1.22071 l -0.336914,0.30273 q -1.010742,0.91797 -1.21582,1.87988 h 2.895508 v 0.84473 z"
             style="font-size:10px;text-align:end;text-anchor:end"
             id="path4573" />
        </g>
        <g
           transform="translate(244.68749,906.32447)"
           style="font-style:normal;font-weight:normal;font-size:40px;line-height:125%;font-family:sans-serif;letter-spacing:0px;word-spacing:0px;fill:#000000;fill-opacity:1;stroke:none;stroke-width:1px;stroke-linecap:butt;stroke-linejoin:miter;stroke-opacity:1"
           id="flowRoot4279">
          <path
             d="m 76.794922,177.74683 v -2.0459 h -3.208008 v -0.72754 l 3.208008,-4.45312 h 0.90332 v 4.39453 h 0.966797 v 0.78613 h -0.966797 v 2.0459 z m -2.265625,-2.83203 h 2.329101 v -3.21289 z"
             style="font-size:10px;text-align:end;text-anchor:end"
             id="path4570" />
        </g>
        <g
           transform="translate(191.44998,906.32447)"
           style="font-style:normal;font-weight:normal;font-size:40px;line-height:125%;font-family:sans-serif;letter-spacing:0px;word-spacing:0px;fill:#000000;fill-opacity:1;stroke:none;stroke-width:1px;stroke-linecap:butt;stroke-linejoin:miter;stroke-opacity:1"
           id="flowRoot4287">
          <path
             d="m 75.354492,173.81128 q -0.478515,-0.34668 -0.717773,-0.66406 -0.341797,-0.45898 -0.341797,-0.99121 0,-0.7959 0.600586,-1.30371 0.600586,-0.5127 1.567383,-0.5127 0.898437,0 1.450195,0.43457 0.551758,0.42969 0.551758,1.13282 0,0.62988 -0.488282,1.1914 -0.297851,0.33692 -0.859375,0.71289 0.732422,0.37598 1.108399,0.77637 0.527344,0.56641 0.527344,1.30371 0,0.89356 -0.688477,1.46485 -0.683594,0.57128 -1.772461,0.57128 -1.069336,0 -1.71875,-0.54199 -0.654297,-0.54199 -0.654297,-1.43554 0,-0.78125 0.527344,-1.39649 0.3125,-0.37109 0.908203,-0.74219 z m 1.225586,-0.30273 q 1.010742,-0.69336 1.010742,-1.44531 0,-0.45899 -0.332031,-0.72754 -0.332031,-0.27344 -0.898437,-0.27344 -0.53711,0 -0.864258,0.25879 -0.327149,0.25391 -0.327149,0.68359 0,0.5127 0.551758,0.94727 0.283203,0.22461 0.859375,0.55664 z m -0.703125,0.69336 q -0.537109,0.41992 -0.751953,0.72754 -0.244141,0.35156 -0.244141,0.8789 0,0.62989 0.400391,1.01075 0.400391,0.38574 1.05957,0.38574 0.625,0 1.020508,-0.32715 0.400391,-0.32715 0.400391,-0.84961 0,-0.46387 -0.307617,-0.78125 -0.25879,-0.26367 -0.893555,-0.63965 z"
             style="font-size:10px;text-align:end;text-anchor:end"
             id="path4567" />
        </g>
        <g
           transform="translate(138.61287,906.32447)"
           style="font-style:normal;font-weight:normal;font-size:40px;line-height:125%;font-family:sans-serif;letter-spacing:0px;word-spacing:0px;fill:#000000;fill-opacity:1;stroke:none;stroke-width:1px;stroke-linecap:butt;stroke-linejoin:miter;stroke-opacity:1"
           id="flowRoot4295">
          <path
             d="m 69.34375,177.74683 v -0.72266 h 1.445312 v -5.70312 l -1.445312,0.36133 v -0.74219 l 2.412109,-0.60059 v 6.68457 h 1.445313 v 0.72266 z"
             style="font-size:10px;text-align:end;text-anchor:end"
             id="path4562" />
          <path
             d="m 74.880859,173.948 q 0.673828,-0.83984 1.645508,-0.83984 0.888672,0 1.401367,0.60547 0.512696,0.60058 0.512696,1.66015 0,1.17676 -0.605469,1.86524 -0.605469,0.68847 -1.621094,0.68847 -1.108398,0 -1.743164,-0.95214 -0.634766,-0.94727 -0.634766,-2.61231 0,-1.88965 0.756836,-2.95898 0.756836,-1.06934 2.094727,-1.06934 0.615234,0 1.362305,0.27344 v 0.83984 q -0.883789,-0.39062 -1.381836,-0.39062 -1.079102,0 -1.513672,1.08398 -0.170899,0.42969 -0.229492,0.96192 -0.03418,0.2832 -0.04395,0.84472 z m 1.386719,-0.14648 q -0.605469,0 -0.976562,0.41992 -0.375977,0.41992 -0.375977,1.1377 0,0.80078 0.385742,1.32324 0.385742,0.52246 1.000977,0.52246 1.191406,0 1.191406,-1.63086 0,-1.77246 -1.225586,-1.77246 z"
             style="font-size:10px;text-align:end;text-anchor:end"
             id="path4564" />
        </g>
        <g
           transform="translate(85.873425,906.32447)"
           style="font-style:normal;font-weight:normal;font-size:40px;line-height:125%;font-family:sans-serif;letter-spacing:0px;word-spacing:0px;fill:#000000;fill-opacity:1;stroke:none;stroke-width:1px;stroke-linecap:butt;stroke-linejoin:miter;stroke-opacity:1"
           id="flowRoot4303">
          <path
             d="m 68.616211,177.69312 v -0.89844 l 0.03418,0.0146 q 0.126953,0.0537 0.180664,0.0684 0.532226,0.19531 0.722656,0.24414 0.317383,0.083 0.576172,0.083 0.737304,0 1.103515,-0.41016 0.322266,-0.35156 0.322266,-1.00097 0,-0.75684 -0.493164,-1.15723 -0.488281,-0.40039 -1.396484,-0.40039 h -0.38086 v -0.64942 l 0.332031,-0.005 q 0.839844,-0.0147 1.293946,-0.38574 0.473633,-0.38086 0.473633,-1.04981 0,-1.08398 -1.166993,-1.08398 -0.600586,0 -1.503906,0.40527 v -0.83984 q 0.883789,-0.28809 1.5625,-0.28809 1.176758,0 1.689453,0.56153 0.38086,0.41504 0.38086,1.10351 0,0.77637 -0.546875,1.2793 -0.322266,0.29785 -0.957032,0.54688 0.556641,0.14648 0.839844,0.3125 0.90332,0.52246 0.90332,1.61132 0,0.98633 -0.649414,1.57715 -0.649414,0.5957 -1.708984,0.5957 -0.571289,0 -1.611328,-0.23437 z"
             style="font-size:10px;text-align:end;text-anchor:end"
             id="path4557" />
          <path
             d="m 73.933594,177.74683 v -0.84473 q 0.332031,-0.78125 1.123047,-1.60644 l 0.527343,-0.53711 0.478516,-0.48828 q 0.942383,-0.96192 0.942383,-1.92871 0,-0.68848 -0.361328,-1.01563 -0.292969,-0.26855 -0.810547,-0.26855 -0.673828,0 -1.71875,0.58594 v -0.84961 q 0.991211,-0.45411 1.845703,-0.45411 0.947266,0 1.508789,0.55176 0.561523,0.54688 0.561523,1.47461 0,0.63965 -0.288086,1.13281 -0.302734,0.50782 -1.09375,1.22071 l -0.336914,0.30273 q -1.010742,0.91797 -1.21582,1.87988 h 2.895508 v 0.84473 z"
             style="font-size:10px;text-align:end;text-anchor:end"
             id="path4559" />
        </g>
        <g
           transform="translate(32.098825,906.32447)"
           style="font-style:normal;font-weight:normal;font-size:40px;line-height:125%;font-family:sans-serif;letter-spacing:0px;word-spacing:0px;fill:#000000;fill-opacity:1;stroke:none;stroke-width:1px;stroke-linecap:butt;stroke-linejoin:miter;stroke-opacity:1"
           id="flowRoot4311">
          <path
             d="m 69.207031,173.948 q 0.673828,-0.83984 1.645508,-0.83984 0.888672,0 1.401367,0.60547 0.512696,0.60058 0.512696,1.66015 0,1.17676 -0.605469,1.86524 -0.605469,0.68847 -1.621094,0.68847 -1.108398,0 -1.743164,-0.95214 -0.634766,-0.94727 -0.634766,-2.61231 0,-1.88965 0.756836,-2.95898 0.756836,-1.06934 2.094727,-1.06934 0.615234,0 1.362305,0.27344 v 0.83984 q -0.88379,-0.39062 -1.381836,-0.39062 -1.079102,0 -1.513672,1.08398 -0.170899,0.42969 -0.229492,0.96192 -0.03418,0.2832 -0.04395,0.84472 z m 1.386719,-0.14648 q -0.605469,0 -0.976563,0.41992 -0.375976,0.41992 -0.375976,1.1377 0,0.80078 0.385742,1.32324 0.385742,0.52246 1.000977,0.52246 1.191406,0 1.191406,-1.63086 0,-1.77246 -1.225586,-1.77246 z"
             style="font-size:10px;text-align:end;text-anchor:end"
             id="path4552" />
          <path
             d="m 76.785156,177.74683 v -2.0459 h -3.208008 v -0.72754 l 3.208008,-4.45312 h 0.903321 v 4.39453 h 0.966796 v 0.78613 h -0.966796 v 2.0459 z m -2.265625,-2.83203 h 2.329102 v -3.21289 z"
             style="font-size:10px;text-align:end;text-anchor:end"
             id="path4554" />
        </g>
        <g
           transform="translate(-18.314453,906.32447)"
           style="font-style:normal;font-weight:normal;font-size:40px;line-height:125%;font-family:sans-serif;letter-spacing:0px;word-spacing:0px;fill:#000000;fill-opacity:1;stroke:none;stroke-width:1px;stroke-linecap:butt;stroke-linejoin:miter;stroke-opacity:1"
           id="flowRoot4319">
          <path
             d="m 60.669922,177.74683 v -0.72266 h 1.445312 v -5.70312 l -1.445312,0.36133 v -0.74219 l 2.412109,-0.60059 v 6.68457 h 1.445313 v 0.72266 z"
             style="font-size:10px"
             id="path4545" />
          <path
             d="m 65.523437,177.74683 v -0.84473 q 0.332032,-0.78125 1.123047,-1.60644 l 0.527344,-0.53711 0.478516,-0.48828 q 0.942383,-0.96192 0.942383,-1.92871 0,-0.68848 -0.361329,-1.01563 -0.292968,-0.26855 -0.810546,-0.26855 -0.673829,0 -1.71875,0.58594 v -0.84961 q 0.99121,-0.45411 1.845703,-0.45411 0.947265,0 1.508789,0.55176 0.561523,0.54688 0.561523,1.47461 0,0.63965 -0.288086,1.13281 -0.302734,0.50782 -1.09375,1.22071 l -0.336914,0.30273 q -1.010742,0.91797 -1.21582,1.87988 h 2.895508 v 0.84473 z"
             style="font-size:10px"
             id="path4547" />
          <path
             d="m 72.520508,173.81128 q -0.478516,-0.34668 -0.717774,-0.66406 -0.341797,-0.45898 -0.341797,-0.99121 0,-0.7959 0.600586,-1.30371 0.600586,-0.5127 1.567383,-0.5127 0.898438,0 1.450196,0.43457 0.551757,0.42969 0.551757,1.13282 0,0.62988 -0.488281,1.1914 -0.297851,0.33692 -0.859375,0.71289 0.732422,0.37598 1.108399,0.77637 0.527343,0.56641 0.527343,1.30371 0,0.89356 -0.688476,1.46485 -0.683594,0.57128 -1.772461,0.57128 -1.069336,0 -1.71875,-0.54199 -0.654297,-0.54199 -0.654297,-1.43554 0,-0.78125 0.527344,-1.39649 0.3125,-0.37109 0.908203,-0.74219 z m 1.225586,-0.30273 q 1.010742,-0.69336 1.010742,-1.44531 0,-0.45899 -0.332031,-0.72754 -0.332032,-0.27344 -0.898438,-0.27344 -0.537109,0 -0.864258,0.25879 -0.327148,0.25391 -0.327148,0.68359 0,0.5127 0.551758,0.94727 0.283203,0.22461 0.859375,0.55664 z m -0.703125,0.69336 q -0.53711,0.41992 -0.751953,0.72754 -0.244141,0.35156 -0.244141,0.8789 0,0.62989 0.400391,1.01075 0.40039,0.38574 1.05957,0.38574 0.625,0 1.020508,-0.32715 0.40039,-0.32715 0.40039,-0.84961 0,-0.46387 -0.307617,-0.78125 -0.258789,-0.26367 -0.893555,-0.63965 z"
             style="font-size:10px"
             id="path4549" />
        </g>
        <g
           transform="translate(351.23571,906.32447)"
           style="font-style:normal;font-weight:normal;font-size:40px;line-height:125%;font-family:sans-serif;letter-spacing:0px;word-spacing:0px;fill:#000000;fill-opacity:1;stroke:none;stroke-width:1px;stroke-linecap:butt;stroke-linejoin:miter;stroke-opacity:1"
           id="flowRoot4327">
          <path
             d="m 74.558594,177.74683 v -0.72266 h 1.445312 v -5.70312 l -1.445312,0.36133 v -0.74219 l 2.412109,-0.60059 v 6.68457 h 1.445313 v 0.72266 z"
             style="font-size:10px;text-align:end;text-anchor:end"
             id="path4576" />
        </g>
      </g>
    </g>
  </g>
</svg>
