<?xml version="1.0" encoding="UTF-8" standalone="no"?>
<!-- Created with Inkscape (http://www.inkscape.org/) -->
<!-- Path template: $ gmic wheelie_simple.gmic wheelie 2048,1,0,1,0.5,0,-3,0.5,0,7 -->
<svg
   version="1.1"
   id="svg2"
   width="2050"
   height="2050"
   viewBox="0 0 2050 2050"
   sodipodi:docname="arabesque_1n37.svg"
   inkscape:version="1.1 (c68e22c387, 2021-05-23)"
   xmlns:inkscape="http://www.inkscape.org/namespaces/inkscape"
   xmlns:sodipodi="http://sodipodi.sourceforge.net/DTD/sodipodi-0.dtd"
   xmlns="http://www.w3.org/2000/svg"
   xmlns:svg="http://www.w3.org/2000/svg">
  <defs
     id="defs6" />
  <sodipodi:namedview
     id="namedview4"
     pagecolor="#ffffff"
     bordercolor="#666666"
     borderopacity="1.0"
     inkscape:pageshadow="2"
     inkscape:pageopacity="0.0"
     inkscape:pagecheckerboard="0"
     showgrid="false"
     inkscape:zoom="0.36212787"
     inkscape:cx="1023.1193"
     inkscape:cy="1024.5"
     inkscape:window-width="1680"
     inkscape:window-height="978"
     inkscape:window-x="0"
     inkscape:window-y="28"
     inkscape:window-maximized="1"
     inkscape:current-layer="layer1" />
  <g
     inkscape:groupmode="layer"
     id="layer1"
     inkscape:label="PathLayer"
     style="display:inline">
    <path
       style="display:inline;fill:none;stroke:#000000;stroke-width:2;stroke-linecap:round;stroke-linejoin:round;stroke-miterlimit:4;stroke-dasharray:none;stroke-opacity:1"
       d="M 1024.3956,200.9952 C 868.97466,200.9952 760.3956,360.8282 760.3956,550.9952 C 760.3956,741.1622 861.68681,867.92075 877.8956,895.9952 C 937.64675,999.48722 1124.3956,1082.2822 1124.3956,1027.9952 C 1124.3956,984.39665 1008.6278,960.9952 948.3956,960.9952 C 627.41611,960.9952 236.20275,1269.6839 236.20275,1610.2872 C 236.20275,1709.0624 288.32629,1848.9952 409.3956,1848.9952 C 530.46491,1848.9952 625.3956,1714.1909 625.3956,1567.9952 C 625.3956,1421.7995 538.0948,1300.7241 458.8582,1300.7241 C 412.10027,1300.7241 401.35511,1345.6882 401.35511,1372.0724 C 401.35511,1502.1956 636.0408,1737.2811 1024.4579,1737.2811 C 1412.875,1737.2811 1647.5784,1502.2546 1647.5784,1371.4514 C 1647.5784,1332.706 1634.3271,1300.8694 1587.4326,1300.8694 C 1508.9874,1300.8694 1423.4602,1429.8087 1423.4524,1567.9952 C 1423.4446,1706.1817 1519.137,1847.7998 1633.3956,1848.9952 C 1747.6542,1850.1906 1813.7364,1739.7847 1813.7972,1609.6547 C 1813.9476,1287.5309 1451.8129,960.9952 1100.3956,960.9952 C 1040.3971,960.9952 924.3956,979.83394 924.3956,1027.9952 C 924.3956,1085.8692 1113.6564,998.60045 1172.8956,895.9952 C 1232.1348,793.38995 1288.3956,741.53656 1288.3956,550.9952 C 1288.3956,360.45384 1179.8165,200.9952 1024.3956,200.9952 Z"
       id="path207"
       sodipodi:nodetypes="zzsssszzsszsszzssszzz"
       inkscape:label="path_10105030507" />
  </g>
</svg>
