<?xml version="1.0" encoding="UTF-8" standalone="no"?>
<svg
   xmlns:dc="http://purl.org/dc/elements/1.1/"
   xmlns:cc="http://creativecommons.org/ns#"
   xmlns:rdf="http://www.w3.org/1999/02/22-rdf-syntax-ns#"
   xmlns:svg="http://www.w3.org/2000/svg"
   xmlns="http://www.w3.org/2000/svg"
   xmlns:sodipodi="http://sodipodi.sourceforge.net/DTD/sodipodi-0.dtd"
   xmlns:inkscape="http://www.inkscape.org/namespaces/inkscape"
   id="svg2"
   version="1.1"
   inkscape:version="1.0.2 (e86c870879, 2021-01-15)"
   width="273.06668"
   height="273.06668"
   sodipodi:docname="ampersand_circ.svg"
   inkscape:export-filename="/media/berthawork/webcontent/gmic/gradients/blurface-00.png"
   inkscape:export-xdpi="180"
   inkscape:export-ydpi="180">
  <metadata
     id="metadata8">
    <rdf:RDF>
      <cc:Work
         rdf:about="">
        <dc:format>image/svg+xml</dc:format>
        <dc:type
           rdf:resource="http://purl.org/dc/dcmitype/StillImage" />
        <dc:title />
      </cc:Work>
    </rdf:RDF>
  </metadata>
  <defs
     id="defs6" />
  <sodipodi:namedview
     pagecolor="#ffffff"
     bordercolor="#666666"
     borderopacity="1"
     objecttolerance="10"
     gridtolerance="10"
     guidetolerance="10"
     inkscape:pageopacity="0"
     inkscape:pageshadow="2"
     inkscape:window-width="1680"
     inkscape:window-height="978"
     id="namedview4"
     showgrid="false"
     inkscape:zoom="2.7539061"
     inkscape:cx="136.53334"
     inkscape:cy="136.53334"
     inkscape:window-x="0"
     inkscape:window-y="28"
     inkscape:window-maximized="1"
     inkscape:current-layer="svg2"
     inkscape:document-rotation="0" />
  <path
     inkscape:connector-curvature="0"
     id="goudyampersand-01"
     style="font-style:normal;font-variant:normal;font-weight:normal;font-stretch:normal;font-size:40px;line-height:125%;font-family:'Goudy Bookletter 1911';-inkscape-font-specification:'Goudy Bookletter 1911';letter-spacing:0px;word-spacing:0px;fill:none;fill-opacity:1;stroke:#000000;stroke-width:0.25;stroke-miterlimit:4;stroke-dasharray:none;stroke-opacity:1"
     d="M 17.05617,80.266008 C 14.940459,77.669453 12.8378,73.998188 10.848058,69.260715 C 8.886613,64.590615 8.026189,59.384321 8.026189,53.740438 C 8.026189,40.760007 13.106317,29.285218 23.264282,19.313637 C 33.611879,9.1559034 45.462937,4.075544 58.819831,4.075544 C 62.958503,4.075544 67.191347,4.5458408 71.518246,5.486476 C 75.845074,6.4270958 79.856764,8.3530115 83.652273,11.130213 C 87.570381,13.997121 89.578203,17.52664 89.578203,21.853315 C 89.578203,25.615992 88.261193,28.720002 85.627593,31.165487 C 82.993713,33.611232 79.983763,34.833912 76.597613,34.833912 C 72.646914,34.833912 68.409663,32.571288 64.181386,27.779244 C 59.942245,22.974887 55.809778,20.442385 51.482972,20.442385 C 44.522309,20.442385 37.702802,23.690845 30.883332,30.036739 C 24.157464,36.295531 20.724603,44.146243 20.724603,53.740438 C 20.724603,59.384321 21.92848,64.897947 24.67522,70.107279 C 27.385377,75.247228 29.942668,77.726318 32.01208,77.726318 C 32.388305,77.726318 34.113075,77.243148 37.091444,76.033198 C 40.135221,74.796678 44.051969,73.399478 48.943293,72.082588 C 53.834444,70.765738 58.819766,70.107279 63.899195,70.107279 C 71.047856,70.107279 76.905453,71.721928 81.676973,74.622268 C 86.502333,77.555328 89.013833,81.300808 89.013833,86.191928 C 89.013833,91.083278 86.474023,95.033858 81.394783,98.043778 C 76.315313,101.05384 70.013172,102.55888 63.758046,102.55888 C 57.502921,102.55888 53.120347,102.06283 48.661125,100.86565 C 44.201903,99.668469 37.968671,97.416838 33.21892,94.223258 C 36.722599,89.966038 41.477537,85.440378 44.992713,83.370068 C 50.106846,80.358028 59.169722,78.803408 66.438918,79.419458 C 74.74541,80.123418 78.855143,82.053208 78.855143,86.756318 C 78.855143,91.459428 74.810381,93.528798 66.7211,93.528798 C 56.18606,93.528798 48.216048,91.742148 43.017401,87.885068 C 42.37647,87.409538 41.185183,86.221888 41.185183,86.221888 C 36.985656,89.764068 32.888818,93.96689 29.891124,98.701558 C 24.260951,107.59406 22.982142,118.45546 22.982142,129.36661 C 22.982142,136.13915 24.1739,142.82917 26.650568,149.40187 C 29.065193,155.80991 32.755688,162.27752 37.938044,168.59057 C 43.10389,174.88351 50.572777,180.36667 60.512996,184.11086 C 73.028523,188.8251 86.314499,191.26612 100.30135,191.16553 C 111.40029,191.08571 121.089,189.56652 129.3666,186.36836 C 137.64395,183.1703 143.94619,178.93753 148.27312,173.66995 C 152.5999,168.40255 155.62061,163.01151 157.58528,157.58529 C 159.57169,152.09904 160.68935,146.67412 160.68935,141.21845 C 160.68935,131.24792 157.9615,122.97034 152.50592,116.38601 C 147.05029,109.80163 139.80736,106.50945 130.77754,106.50945 C 122.49993,106.50945 115.1214,109.28454 108.76696,114.97507 C 102.5167,120.57231 99.454793,127.01512 99.454793,134.16378 C 99.454793,139.05509 100.85939,143.3748 103.96977,146.86219 C 107.07001,150.33821 111.21245,151.94155 116.10381,151.94155 C 118.17306,151.94155 120.43055,151.47127 122.8763,150.53062 C 125.32179,149.59005 126.54473,148.46131 126.54473,147.14438 C 126.54473,146.39194 126.1684,145.82748 125.41598,145.45125 C 124.66339,145.07493 123.71985,144.80936 122.59412,144.6047 C 121.65022,144.4331 120.52467,143.9462 119.20787,143.19375 C 117.89093,142.44122 116.75487,141.41179 115.82163,140.0897 C 114.49735,138.21364 113.84632,136.13915 113.84632,133.88159 C 113.84632,131.05979 114.83543,128.56771 116.95037,126.54473 C 119.16332,124.428 121.93556,123.44068 125.1338,123.44068 C 129.46053,123.44068 133.27381,125.08627 136.70346,128.23785 C 140.23503,131.48308 142.06501,135.38666 142.06501,140.0897 C 142.06501,145.92163 139.66635,151.14661 134.72815,155.60998 C 129.88332,159.98895 123.91085,162.10028 116.95037,162.10028 C 109.23716,162.10028 102.65287,159.27838 97.197293,153.63467 C 91.741666,147.99091 89.013873,141.12445 89.013873,133.03503 C 89.013873,125.51013 91.442533,118.34918 96.350733,111.58883 C 101.41315,104.61606 108.27794,98.947196 116.95037,94.657608 C 125.77367,90.293397 138.39406,86.835794 154.76342,84.216698 C 171.31584,81.568312 182.4889,78.898455 188.34366,76.315468 C 195.28177,73.254535 201.12515,68.875971 205.83925,63.052675 C 210.71952,57.024115 213.17611,49.978173 213.17611,41.888661 C 213.17611,33.046974 210.30506,25.757106 204.7105,19.878083 C 199.20532,14.092984 192.95252,11.130286 185.80397,11.130286 C 179.97193,11.130286 176.06046,12.30084 177.05619,13.669971 L 179.31368,16.774023 C 180.88632,18.936408 181.85336,21.195138 181.85336,23.8287 C 181.85336,27.215123 180.72442,30.036984 178.46712,32.294306 C 176.20944,34.551968 173.38758,35.680549 170.00151,35.680549 C 166.23885,35.680549 163.08859,34.406008 160.68935,31.729933 C 158.19664,28.949602 157.02091,25.522002 157.02091,21.571204 C 157.02091,15.551408 159.5604,10.472009 164.63996,6.333111 C 169.71912,2.1945362 175.64507,0.125 182.41773,0.125 C 193.32876,0.125 203.06183,4.780886 211.76517,13.952155 C 220.55764,23.217345 225.02796,34.646032 225.02796,48.378957 C 225.02796,63.80532 219.01147,77.072128 206.96799,88.167308 C 195.11967,99.08269 181.0078,104.77758 164.63996,105.09853 C 161.81846,105.15386 160.40715,105.85112 160.40715,107.35603 C 160.40715,107.54421 161.09037,108.99589 162.66465,111.58883 C 164.28957,114.26517 166.0509,118.07915 167.74401,123.15849 C 169.43714,128.23787 170.28352,133.69354 170.28352,146.67414 C 170.28352,159.65475 161.81798,176.77413 144.88688,191.44776 C 127.95558,206.12155 107.73215,213.45833 84.216703,213.45833 C 60.512931,213.45833 40.52488,205.88889 24.393073,190.60119 C 8.1673312,175.22447 0.124993,156.92694 0.125,135.85693 C 0.124993,130.21327 0.59990835,124.73771 1.818121,119.49009 C 3.0459104,114.20122 4.7340114,109.70771 6.615302,105.94512 C 8.4965014,102.18272 10.218727,98.94169 11.97685,96.350768 C 13.794159,93.672623 15.8426,91.730325 17.338404,89.860468 L 19.595856,87.038498 C 20.121333,86.381615 20.160227,85.627678 20.16023,84.992673 C 20.160234,84.216728 19.079874,82.749646 17.05617,80.266008 Z"
     inkscape:label="Goudy Ampersand"
     sodipodi:nodetypes="sssssssssssssssssssssssscssssscsssssssssssssssssssssssssssssssssssssssssssssssssssssssssssssssssss" />
</svg>
