<?xml version="1.0" encoding="UTF-8" standalone="no"?>
<!-- Created with Inkscape (http://www.inkscape.org/) -->

<svg
   width="300mm"
   height="300mm"
   viewBox="0 0 299.99999 300"
   version="1.1"
   id="svg5"
   inkscape:version="1.2.1 (9c6d41e410, 2022-07-14)"
   sodipodi:docname="racetrack.svg"
   xmlns:inkscape="http://www.inkscape.org/namespaces/inkscape"
   xmlns:sodipodi="http://sodipodi.sourceforge.net/DTD/sodipodi-0.dtd"
   xmlns="http://www.w3.org/2000/svg"
   xmlns:svg="http://www.w3.org/2000/svg">
  <sodipodi:namedview
     id="namedview7"
     pagecolor="#ffffff"
     bordercolor="#666666"
     borderopacity="1.0"
     inkscape:showpageshadow="2"
     inkscape:pageopacity="0.0"
     inkscape:pagecheckerboard="0"
     inkscape:deskcolor="#d1d1d1"
     inkscape:document-units="mm"
     showgrid="false"
     inkscape:zoom="0.35451255"
     inkscape:cx="5.6415492"
     inkscape:cy="84.623238"
     inkscape:window-width="1680"
     inkscape:window-height="977"
     inkscape:window-x="0"
     inkscape:window-y="28"
     inkscape:window-maximized="1"
     inkscape:current-layer="layer1"
     showguides="false" />
  <defs
     id="defs2">
    <inkscape:path-effect
       effect="interpolate"
       id="path-effect1050"
       is_visible="true"
       lpeversion="1"
       trajectory="M 91.739347,105.67469 C 134.90864,205.2807 294.56621,74.519836 203.98596,95.517693 C 113.40571,116.51555 256.13608,123.86142 244.67275,183.37062"
       equidistant_spacing="true"
       steps="5"
       trajectory-nodetypes="czc" />
  </defs>
  <g
     inkscape:label="TrackLayer"
     inkscape:groupmode="layer"
     id="layer1">
    <path
       id="path1047"
       style="fill:#e6d789;fill-opacity:0.5;fill-rule:evenodd;stroke:#000000;stroke-width:1.99999;stroke-linecap:round;stroke-linejoin:round;stroke-dasharray:none"
       inkscape:label="Racetrack"
       inkscape:transform-center-x="5.4754022"
       inkscape:transform-center-y="-43.836322"
       d="M 281.73544,94.783528 C 256.78314,77.403868 205.41684,137.65537 204.47134,175.95236 C 203.52584,214.24935 256.80147,274.26617 209.30326,287.96304 C 161.80505,301.65991 119.49396,166.77565 117.06738,132.73761 C 114.6408,98.699574 118.54855,65.387302 165.76384,66.212925 C 212.97914,67.038549 306.86974,180.44932 276.67152,229.69586 C 246.47329,278.94242 149.12228,258.77469 126.33914,214.60047 C 103.55601,170.42625 156.64598,66.671691 202.91132,86.407354 C 249.17666,106.14303 110.49978,212.18925 159.87637,228.99969 C 209.25296,245.81015 230.22583,119.03657 219.83967,80.919096 C 209.45351,42.80164 196.2522,32.932873 158.0557,32.932873 C 119.8592,32.932873 26.89758,149.09088 74.56773,182.32581 C 122.23787,215.56075 154.89154,82.320052 209.26028,140.63899 C 263.62901,198.95794 306.68775,112.16319 281.73544,94.783528 Z"
       sodipodi:nodetypes="zzzzzzzzzzzzzz" />
  </g>
</svg>
